<?xml version="1.0" encoding="UTF-8" standalone="no"?>
<!-- Created with Inkscape (http://www.inkscape.org/) -->

<svg
   version="1.1"
   id="svg2"
   width="4000"
   height="2933.3333"
   viewBox="0 0 4000 2933.3333"
   sodipodi:docname="vecteezy_world-map-with-simple-modern-cartoon-line-art-design_23692867.eps"
   xmlns:inkscape="http://www.inkscape.org/namespaces/inkscape"
   xmlns:sodipodi="http://sodipodi.sourceforge.net/DTD/sodipodi-0.dtd"
   xmlns="http://www.w3.org/2000/svg"
   xmlns:svg="http://www.w3.org/2000/svg">
  <defs
     id="defs6" />
  <sodipodi:namedview
     id="namedview4"
     pagecolor="#ffffff"
     bordercolor="#000000"
     borderopacity="0.25"
     inkscape:showpageshadow="2"
     inkscape:pageopacity="0.0"
     inkscape:pagecheckerboard="0"
     inkscape:deskcolor="#d1d1d1" />
  <g
     id="g8"
     inkscape:groupmode="layer"
     inkscape:label="ink_ext_XXXXXX"
     transform="matrix(1.3333333,0,0,-1.3333333,0,2933.3333)">
    <g
       id="g10"
       transform="scale(0.1)">
      <path
         d="M 0,0 H 30000 V 22000 H 0 V 0"
         style="fill:#4b71a2;fill-opacity:1;fill-rule:evenodd;stroke:none"
         id="path12" />
      <path
         d="m 24311.1,13459 -152.6,-206.7 -814.1,-216.9 152.6,206.6 z m -2420.5,-2199 586.9,-800.5 756.8,-682.3 292.3,-6.1 152.6,206.7 -292.4,6.1 -756.7,682.2 -586.9,800.5 -589.4,156.9 -152.6,-206.6 589.4,-156.9 z m -3542.4,1110.2 -229.7,-217 152.6,206.6 229.7,217.1 1009,-424.3 111.3,-503.1 931.9,-1207.2 522.3,-38.4 -152.5,-206.7 -522.4,38.5 -931.9,1207.2 -111.3,503.1 -1009,424.2 z m -1022.7,-115.3 967.8,-1576.1 766.2,710 152.6,206.6 -766.2,-710 -967.8,1576.1 -244.1,-16.4 -152.6,-206.5 244.1,16.3 z m -4128.6,-1476.5 445.1,1833.4 152.6,206.7 -445,-1833.5 1499.1,-447.7 759.4,-1003.8 -108.8,-534.8 274.1,-650.2 350.3,-1532.9 1342.3,963 -152.6,-206.6 -1342.2,-962.9 -350.4,1532.7 -274.1,650.4 108.8,534.7 -759.4,1003.8 -1499.2,447.7 z m 4002.1,2196.2 -270.7,-411.5 152.6,206.5 270.7,411.6 -337.1,165.4 -152.5,-206.5 337,-165.5 z m -3230,259.8 -264.1,345.2 152.6,206.5 264.1,-345.1 1261.4,59.1 650.3,392.3 435,-258.6 1219.8,363.4 -152.7,-206.6 -1219.7,-363.4 -435,258.6 -650.4,-392.3 -1261.3,-59.1 z m 1276.4,1524 -18.5,562.6 152.6,206.6 18.4,-562.5 686.2,264.7 -237.1,-474.7 -152.5,-206.6 237,474.7 -686.1,-264.8 z m 9880.3,-5075.1 -30.5,204.3 152.5,206.6 30.6,-204.2 258.5,-173 212.2,-206.1 667.2,-119.7 -152.6,-206.7 -667.2,119.8 -212.2,206.1 -258.5,172.9 z m -1816.2,-2206.1 -18.9,-292.3 790.2,102.9 1159.2,-151.2 115.9,-288.2 567.6,43.3 152.6,206.6 -567.7,-43.4 -115.7,288.4 -1159.3,151.2 -790.1,-103 18.9,292.3 204.9,523.2 -152.6,-206.6 -205,-523.2 z m 697.8,846 -152.6,-206.6 -11.1,291.3 152.7,206.6 11,-291.3 z m 679.2,1675.3 69.8,79.7 -152.7,-206.7 -69.8,-79.7 152.7,206.7 z m -820.9,-163.8 58.7,-239.6 249.2,-81.1 248.4,83.3 152.7,206.5 -248.5,-83.2 -249.1,81.1 -58.8,239.6 83.1,116.4 -152.7,-206.7 -83,-116.3 z m -909.5,-367.1 -79.1,167.5 152.5,206.6 79.3,-167.6 250.3,-155.1 316.4,-92.8 45.3,-53 518.3,-20.8 291.9,67 -152.6,-206.7 -291.9,-66.9 -518.2,20.7 -45.4,53.1 -316.4,92.8 -250.4,155.2 z m -14275.74,6849.7 -152.64,-206.6 -437.74,-391.8 152.6,206.7 437.78,391.7 z m 580.54,-970 -152.63,-206.6 -513.12,-315 152.63,206.6 513.12,315 z m 1773.1,-1132.6 -152.6,-206.6 -1628.63,-505.6 152.64,206.6 1628.59,505.6 z m -2613.23,-1447.2 -322.6,-88.3 152.64,206.6 322.5,88.3 524.6,252.2 -152.63,-206.7 -524.51,-252.1 z m -1260.98,57.9 -596.59,-499 152.54,206.6 596.69,499.1 364.2,-52.6 68.55,-605.9 172.21,-239.7 277.38,87 -152.64,-206.7 -277.37,-87 -172.22,239.7 -68.52,606 -364.23,52.5 z m 5058.61,-3511.3 -152.6,-206.6 -1351.7,-1350.2 152.6,206.6 1351.7,1350.2 z m -1503.9,-2104.7 -152.6,-206.7 -563.1,-427 152.6,206.6 563.1,427.1 z m -5252.4,5609.8 12.7,-919.5 457.79,-484.1 811.54,-150 562.42,-615.3 295.34,-141.4 46.69,-744.8 217.71,-246.3 211.6,-558.3 728.67,-342.1 -141.06,-572.6 -198.38,-495.2 1066.41,-2298.2 547.27,-102.5 152.7,206.7 -547.37,102.4 -1066.37,2298.2 198.37,495.3 140.97,572.6 -728.61,341.9 -211.56,558.4 -217.72,246.4 -46.81,744.7 -295.22,141.4 -562.42,615.3 -811.63,150.1 -457.78,484 -12.61,919.5 -257.34,99.1 -152.63,-206.7 257.33,-99 z m -427.3,-660 -361.64,1398.8 152.64,206.6 361.52,-1398.8 213.33,-131.9 -152.54,-206.7 -213.31,132 z m -1573.31,2768.9 -75.1,424.2 152.64,206.5 75.1,-424.2 1628.71,31.8 298.96,-472.9 -152.63,-206.6 -298.88,472.9 -1628.8,-31.7 z m 8209.61,1012.1 -71.1,-705.1 739.8,-401.6 554.5,421.2 1181.3,797.6 152.7,206.6 -1181.5,-797.5 -554.4,-421.3 -739.8,401.7 71.2,705 173.9,463.9 -152.6,-206.7 -174,-463.8 z m 2454.8,-1386.4 -284.5,243.1 152.6,206.6 284.5,-243.1 118.6,-240.7 412.5,-57.4 -152.5,-206.6 -412.6,57.3 -118.6,240.8 z m 11631.8,535.5 -152.7,-206.6 -619,-624.6 -546.9,61.9 -262.7,304.7 -301.2,-203.4 152.6,206.7 301.2,203.4 262.7,-304.8 546.8,-61.9 619.2,624.6 v 0"
         style="fill:#79625d;fill-opacity:1;fill-rule:evenodd;stroke:none"
         id="path14" />
      <path
         d="m 14337.3,15362.4 -343.3,-358.9 284.5,-243.1 118.6,-240.8 412.5,-57.3 -36.2,843.7 z m -2339.6,1248.3 -173.9,-463.9 -71.2,-705 739.8,-401.7 554.5,421.3 1181.4,797.5 -241,592.1 -1161.2,-220.5 -391.5,136.9 -436.9,-156.7 z m -5215.75,-143.5 1851.6,125.2 46.81,-275.1 -437.78,-391.7 1005.53,-247 12.79,-331.3 -513.12,-315 343.49,-219 654.77,398.2 1036.36,132.8 435.4,-492.5 -183.8,-637.1 -1628.59,-505.6 -307.5,-482.8 -524.6,-252.2 -322.5,-88.3 -56.04,-664.9 -277.38,-87 -172.21,239.7 -68.55,605.9 -364.2,52.6 -596.69,-499.1 58.96,-590.5 594.52,317.4 230.05,-95.9 -188.36,-281.9 303.88,-133.2 78.56,-629.4 1482.9,59 319.68,-69.7 1179.07,-992 1242.8,-295.3 200.6,-507.4 -1351.7,-1350.2 -152.2,-754.5 -563.1,-427.1 82.1,-1426.7 -547.37,102.4 -1066.37,2298.2 198.37,495.3 140.97,572.6 -728.61,341.9 -211.56,558.4 -217.81,246.4 -46.72,744.7 -295.22,141.4 -562.42,615.3 -811.54,150.1 -457.87,484 -12.61,919.5 -257.34,99.1 43.25,-891 -213.33,131.9 -361.52,1398.8 716,928.9 -298.96,472.9 -1628.71,-31.8 -75.1,424.2 757.75,547.3 1860.44,18.8 624.73,342.3 z M 23218,9788.1 l -142.1,94.7 -46.4,-41.1 79.3,-167.6 250.4,-155.1 316.3,-92.8 45.3,-53 518.3,-20.8 291.9,67 44.4,56 -292.2,22.9 -438.9,12.5 -108.2,98.5 -518.1,178.8 z m 859,13.6 249.1,-81.1 248.5,83.2 111.9,194.7 69.8,79.6 -5,219.7 -83.8,120.4 -147.1,-7.3 -114.6,-37.7 -135.1,-154.2 -169.4,-61.3 -83.1,-116.4 58.8,-239.6 z m -80.7,-1187.2 11,-291.3 -340.2,-116.2 -204.9,-523.2 -18.9,-292.3 790.1,103 1159.3,-151.2 115.7,-288.4 567.7,43.4 537.7,838 -162.4,432.8 87.3,168.3 -169,107.6 -379,-77.4 -588.2,101.9 -347,261.6 -479.4,-1.1 -579.8,-315.5 z m 1251.4,1479.7 30.6,-204.2 258.5,-173 212.2,-206.1 667.2,-119.7 -38.1,196 -227,411 -307.6,-10.3 -286.8,77.2 -145.1,89.9 -163.9,-60.8 z m -8090.2,5522.2 80.2,27.4 1708,580.8 2020.1,36.7 1109.5,-605.8 2917.7,115.6 743.8,-288.3 20.9,-393.5 -619.1,-624.6 -546.9,61.9 -262.7,304.8 -301.2,-203.4 490.7,-755.7 -207.4,-413.4 -814.1,-216.9 -64.5,-199.3 421.8,-460.3 -839.3,-1130.9 239,-788.3 425.2,-685.4 -292.4,6.1 -756.7,682.1 -586.9,800.6 -589.4,156.9 -294.1,-661.6 -84.4,-558 -522.3,38.4 -931.9,1207.2 -111.3,503.1 -1009,424.3 -229.7,-217 794.8,-399.4 146.2,-365.1 -766.2,-710 -967.8,1576.1 -244.1,-16.4 -54.1,-758.1 657.6,-307.4 499.1,-1254.1 -777.6,-1330 -93,-1016.9 -1342.2,-963 -350.4,1532.9 -274.1,650.2 108.8,534.8 -759.4,1003.8 -1499.1,447.7 445,1833.5 2016.5,149.2 1269.8,-198.1 270.7,411.6 -337.1,165.4 673.6,650.6 -1219.8,-363.4 -435,258.6 -650.3,-392.3 -1261.4,-59.1 -264.1,345.1 1989.5,969.1 237.1,474.6 -686.2,-264.7 -18.4,562.5 823.3,414.3 648.9,-42.3 305.8,-283.2 v 0"
         style="fill:#97d221;fill-opacity:1;fill-rule:evenodd;stroke:none"
         id="path16" />
    </g>
  </g>
</svg>
