<?xml version="1.0" encoding="UTF-8" standalone="no"?>
<!-- Created with Inkscape (http://www.inkscape.org/) -->

<svg
   version="1.1"
   id="svg2"
   width="5251.3066"
   height="2734.2932"
   viewBox="0 0 5251.3066 2734.2932"
   sodipodi:docname="map_2.svg"
   xmlns:inkscape="http://www.inkscape.org/namespaces/inkscape"
   xmlns:sodipodi="http://sodipodi.sourceforge.net/DTD/sodipodi-0.dtd"
   xmlns="http://www.w3.org/2000/svg"
   xmlns:svg="http://www.w3.org/2000/svg">
  <defs
     id="defs6" />
  <sodipodi:namedview
     id="namedview4"
     pagecolor="#ffffff"
     bordercolor="#000000"
     borderopacity="0.25"
     inkscape:showpageshadow="2"
     inkscape:pageopacity="0.0"
     inkscape:pagecheckerboard="0"
     inkscape:deskcolor="#d1d1d1">
    <inkscape:page
       x="0"
       y="0"
       width="5251.3066"
       height="2734.2932"
       id="page2"
       margin="0"
       bleed="0" />
  </sodipodi:namedview>
  <g
     id="g8"
     inkscape:groupmode="layer"
     inkscape:label="ink_ext_XXXXXX"
     transform="matrix(1.3333333,0,0,-1.3333333,0,2734.2933)">
    <g
       id="g10"
       transform="scale(0.1)">
      <path
         d="m 36232.1,6781.8 644.4,-1710.7 c 23,-60.8 13.5,-129.1 -25,-181.4 l -922.4,-1252.5 c -36.2,-49.1 -93.5,-78.1 -154.5,-78.1 h -722.4 c -89.7,0 -167.4,62.1 -187.2,149.6 l -85.7,378.9 c -16,70.5 -70.2,126.1 -140.3,143.7 l -705,177.8 c -40,10.1 -82.2,7 -120.3,-8.7 L 32818,3988.3 c -36.6,-15.1 -76.9,-18.6 -115.6,-9.9 l -314.4,70.9 c -96.4,21.7 -160.6,113.2 -148.2,211.2 l 169.8,1346.1 c 9.3,73.4 59.9,135 130.2,158.2 l 759.6,251 c 19.3,6.4 37.6,15.9 54,28 l 1353.4,1002.6 c 44.2,32.7 100.2,44.9 154,33.6 l 224.7,-47.6 c 116.1,-24.5 182.3,-147.5 138.9,-257.9 v 0 c -35.7,-90.8 2.3,-193.8 88.4,-239.6 l 178,-94.9 c 97.2,-51.8 218,-11.2 264.3,88.8 l 123.3,266 c 71.5,154.4 293.7,146.3 353.7,-13"
         style="fill:#f9a72d;fill-opacity:1;fill-rule:nonzero;stroke:none"
         id="path14" />
      <path
         d="m 36232.1,6781.8 644.4,-1710.7 c 23,-60.8 13.5,-129.1 -25,-181.4 l -922.4,-1252.5 c -36.2,-49.1 -93.5,-78.1 -154.5,-78.1 h -722.4 c -89.7,0 -167.4,62.1 -187.2,149.6 l -85.7,378.9 c -16,70.5 -70.2,126.1 -140.3,143.7 l -705,177.8 c -40,10.1 -82.2,7 -120.3,-8.7 L 32818,3988.3 c -36.6,-15.1 -76.9,-18.6 -115.6,-9.9 l -314.4,70.9 c -96.4,21.7 -160.6,113.2 -148.2,211.2 l 169.8,1346.1 c 9.3,73.4 59.9,135 130.2,158.2 l 759.6,251 c 19.3,6.4 37.6,15.9 54,28 l 1353.4,1002.6 c 44.2,32.7 100.2,44.9 154,33.6 l 224.7,-47.6 c 116.1,-24.5 182.3,-147.5 138.9,-257.9 v 0 c -35.7,-90.8 2.3,-193.8 88.4,-239.6 l 178,-94.9 c 97.2,-51.8 218,-11.2 264.3,88.8 l 123.3,266 c 71.5,154.4 293.7,146.3 353.7,-13 z"
         style="fill:none;stroke:#f9a72d;stroke-width:50;stroke-linecap:butt;stroke-linejoin:round;stroke-miterlimit:10;stroke-dasharray:none;stroke-opacity:1"
         id="path16" />
      <path
         d="m 35139.5,3200.2 177.2,-24.3 c 57.8,-8 79.9,-80 36.5,-119 l -205.3,-184.5 c -30,-27 -76.7,-22.4 -100.8,10 l -48.3,64.9 c -15.9,21.3 -18,49.7 -5.6,73.1 l 76.4,144 c 13.4,25.5 41.4,39.8 69.9,35.8"
         style="fill:#f9a72d;fill-opacity:1;fill-rule:nonzero;stroke:none"
         id="path18" />
      <path
         d="m 35139.5,3200.2 177.2,-24.3 c 57.8,-8 79.9,-80 36.5,-119 l -205.3,-184.5 c -30,-27 -76.7,-22.4 -100.8,10 l -48.3,64.9 c -15.9,21.3 -18,49.7 -5.6,73.1 l 76.4,144 c 13.4,25.5 41.4,39.8 69.9,35.8 z"
         style="fill:none;stroke:#f9a72d;stroke-width:50;stroke-linecap:butt;stroke-linejoin:round;stroke-miterlimit:10;stroke-dasharray:none;stroke-opacity:1"
         id="path20" />
      <path
         d="m 38410.6,3307 9.6,36.3 c 5.2,19.6 16.7,37 32.9,49.3 l 161.3,123.6 c 20.2,15.4 33.1,38.5 35.6,63.8 l 15.5,158.1 c 8.4,85.3 118.9,113.5 167.1,42.6 l 131.7,-193.4 c 29,-42.5 17.3,-100.6 -26,-128.6 l -389.2,-252.2 c -70.3,-45.6 -160,19.4 -138.5,100.5"
         style="fill:#f9a72d;fill-opacity:1;fill-rule:nonzero;stroke:none"
         id="path22" />
      <path
         d="m 38410.6,3307 9.6,36.3 c 5.2,19.6 16.7,37 32.9,49.3 l 161.3,123.6 c 20.2,15.4 33.1,38.5 35.6,63.8 l 15.5,158.1 c 8.4,85.3 118.9,113.5 167.1,42.6 l 131.7,-193.4 c 29,-42.5 17.3,-100.6 -26,-128.6 l -389.2,-252.2 c -70.3,-45.6 -160,19.4 -138.5,100.5 z"
         style="fill:none;stroke:#f9a72d;stroke-width:50;stroke-linecap:butt;stroke-linejoin:round;stroke-miterlimit:10;stroke-dasharray:none;stroke-opacity:1"
         id="path24" />
      <path
         d="m 38197.1,3078 v 0 c 6.5,-36.4 -9.6,-73.2 -40.8,-93.1 l -883.5,-566.7 c -25.3,-16.2 -56.9,-19 -84.7,-7.5 l -51.7,21.4 c -72.9,30.2 -76.1,132.3 -5.3,167.1 l 670.8,329.4 c 6.7,3.3 13,7.4 18.7,12.2 l 227.1,191.4 c 54,45.6 137.1,15.4 149.4,-54.2"
         style="fill:#f9a72d;fill-opacity:1;fill-rule:nonzero;stroke:none"
         id="path26" />
      <path
         d="m 38197.1,3078 v 0 c 6.5,-36.4 -9.6,-73.2 -40.8,-93.1 l -883.5,-566.7 c -25.3,-16.2 -56.9,-19 -84.7,-7.5 l -51.7,21.4 c -72.9,30.2 -76.1,132.3 -5.3,167.1 l 670.8,329.4 c 6.7,3.3 13,7.4 18.7,12.2 l 227.1,191.4 c 54,45.6 137.1,15.4 149.4,-54.2 z"
         style="fill:none;stroke:#f9a72d;stroke-width:50;stroke-linecap:butt;stroke-linejoin:round;stroke-miterlimit:10;stroke-dasharray:none;stroke-opacity:1"
         id="path28" />
      <path
         d="m 35640.5,8445.8 814.8,-343 c 22.2,-9.3 40.9,-25.4 53.4,-46 l 340.1,-560 c 47.3,-77.9 -11.2,-177.2 -102.3,-173.6 h -0.7 c -30.1,1.2 -58.5,14.2 -79.1,36.2 l -207.4,222.1 c -45.6,48.9 -123.3,48.3 -168.2,-1.2 l -101.3,-111.6 c -25,-27.6 -61.9,-41.3 -98.9,-36.6 l -184.5,23.2 c -37.7,4.8 -70.6,28 -87.8,61.9 l -177.9,351.8 c -12.5,24.6 -33.4,43.9 -59,54.3 l -547.8,222.7 c -26.2,10.6 -47.4,30.5 -59.8,55.9 l -105.4,216.5 c -32.6,67 6.6,146.9 79.7,162 v 0 c 46.9,9.7 94.9,-10.9 120.2,-51.6 l 111.6,-179.3 c 33.5,-53.8 104.4,-70.1 158,-36.4 l 197,124.1 c 31.6,19.9 70.9,23.1 105.3,8.6"
         style="fill:#f9a72d;fill-opacity:1;fill-rule:nonzero;stroke:none"
         id="path30" />
      <path
         d="m 35640.5,8445.8 814.8,-343 c 22.2,-9.3 40.9,-25.4 53.4,-46 l 340.1,-560 c 47.3,-77.9 -11.2,-177.2 -102.3,-173.6 h -0.7 c -30.1,1.2 -58.5,14.2 -79.1,36.2 l -207.4,222.1 c -45.6,48.9 -123.3,48.3 -168.2,-1.2 l -101.3,-111.6 c -25,-27.6 -61.9,-41.3 -98.9,-36.6 l -184.5,23.2 c -37.7,4.8 -70.6,28 -87.8,61.9 l -177.9,351.8 c -12.5,24.6 -33.4,43.9 -59,54.3 l -547.8,222.7 c -26.2,10.6 -47.4,30.5 -59.8,55.9 l -105.4,216.5 c -32.6,67 6.6,146.9 79.7,162 v 0 c 46.9,9.7 94.9,-10.9 120.2,-51.6 l 111.6,-179.3 c 33.5,-53.8 104.4,-70.1 158,-36.4 l 197,124.1 c 31.6,19.9 70.9,23.1 105.3,8.6 z"
         style="fill:none;stroke:#f9a72d;stroke-width:50;stroke-linecap:butt;stroke-linejoin:round;stroke-miterlimit:10;stroke-dasharray:none;stroke-opacity:1"
         id="path32" />
      <path
         d="m 32923,9472.4 -680.4,-533 c -29.8,-23.4 -46.5,-59.9 -44.5,-97.8 l 23,-452.8 c 2.7,-52.7 40.3,-97 91.9,-108.1 l 465.8,-100.8 c 46.3,-10 94.1,9 120.9,48.2 l 353.7,516.5 c 19.6,28.6 25.5,64.5 16,97.8 l -162.2,570.1 c -22.7,79.8 -119,111.1 -184.2,59.9"
         style="fill:#f9a72d;fill-opacity:1;fill-rule:nonzero;stroke:none"
         id="path34" />
      <path
         d="m 32923,9472.4 -680.4,-533 c -29.8,-23.4 -46.5,-59.9 -44.5,-97.8 l 23,-452.8 c 2.7,-52.7 40.3,-97 91.9,-108.1 l 465.8,-100.8 c 46.3,-10 94.1,9 120.9,48.2 l 353.7,516.5 c 19.6,28.6 25.5,64.5 16,97.8 l -162.2,570.1 c -22.7,79.8 -119,111.1 -184.2,59.9 z"
         style="fill:none;stroke:#f9a72d;stroke-width:50;stroke-linecap:butt;stroke-linejoin:round;stroke-miterlimit:10;stroke-dasharray:none;stroke-opacity:1"
         id="path36" />
      <path
         d="m 30644.7,9378.7 h 39.6 c 23.4,0 46,-9.3 62.6,-25.9 l 1022.2,-1022.3 c 21.4,-21.4 30.4,-52.3 23.8,-81.8 l -51.4,-231.4 c -13,-58.9 -79.9,-87.7 -131.7,-56.9 l -289.5,172.3 c -11.3,6.7 -21,16 -28.4,27 L 30571,9241 c -39.2,58.9 3,137.7 73.7,137.7"
         style="fill:#f9a72d;fill-opacity:1;fill-rule:nonzero;stroke:none"
         id="path38" />
      <path
         d="m 30644.7,9378.7 h 39.6 c 23.4,0 46,-9.3 62.6,-25.9 l 1022.2,-1022.3 c 21.4,-21.4 30.4,-52.3 23.8,-81.8 l -51.4,-231.4 c -13,-58.9 -79.9,-87.7 -131.7,-56.9 l -289.5,172.3 c -11.3,6.7 -21,16 -28.4,27 L 30571,9241 c -39.2,58.9 3,137.7 73.7,137.7 z"
         style="fill:none;stroke:#f9a72d;stroke-width:50;stroke-linecap:butt;stroke-linejoin:round;stroke-miterlimit:10;stroke-dasharray:none;stroke-opacity:1"
         id="path40" />
      <path
         d="m 31839.3,7792 60.3,49 c 12.4,10.1 28.8,14 44.4,10.6 l 754.7,-163.6 c 22.2,-4.8 38.8,-23.3 41.3,-45.9 l 8.6,-78.6 c 3.9,-36.2 -29.1,-65.4 -64.6,-57.1 l -823.4,193.2 c -42.8,10.1 -55.3,64.8 -21.3,92.4"
         style="fill:#f9a72d;fill-opacity:1;fill-rule:nonzero;stroke:none"
         id="path42" />
      <path
         d="m 31839.3,7792 60.3,49 c 12.4,10.1 28.8,14 44.4,10.6 l 754.7,-163.6 c 22.2,-4.8 38.8,-23.3 41.3,-45.9 l 8.6,-78.6 c 3.9,-36.2 -29.1,-65.4 -64.6,-57.1 l -823.4,193.2 c -42.8,10.1 -55.3,64.8 -21.3,92.4 z"
         style="fill:none;stroke:#f9a72d;stroke-width:50;stroke-linecap:butt;stroke-linejoin:round;stroke-miterlimit:10;stroke-dasharray:none;stroke-opacity:1"
         id="path44" />
      <path
         d="m 33003.3,7555.7 -22.3,-29.2 c -20.4,-26.8 -6,-65.7 26.9,-72.7 l 102.9,-21.9 c 6.7,-1.4 13.6,-1.3 20.3,0.3 l 126.2,30.5 c 30.2,7.3 44.6,41.9 28.4,68.4 v 0 c -7.5,12.3 -20.3,20.3 -34.6,21.8 l -206.8,20.7 c -15.8,1.6 -31.4,-5.2 -41,-17.9"
         style="fill:#f9a72d;fill-opacity:1;fill-rule:nonzero;stroke:none"
         id="path46" />
      <path
         d="m 33003.3,7555.7 -22.3,-29.2 c -20.4,-26.8 -6,-65.7 26.9,-72.7 l 102.9,-21.9 c 6.7,-1.4 13.6,-1.3 20.3,0.3 l 126.2,30.5 c 30.2,7.3 44.6,41.9 28.4,68.4 v 0 c -7.5,12.3 -20.3,20.3 -34.6,21.8 l -206.8,20.7 c -15.8,1.6 -31.4,-5.2 -41,-17.9 z"
         style="fill:none;stroke:#f9a72d;stroke-width:50;stroke-linecap:butt;stroke-linejoin:round;stroke-miterlimit:10;stroke-dasharray:none;stroke-opacity:1"
         id="path48" />
      <path
         d="m 33424.4,7551.7 -13,-29.4 c -9.9,-22.5 4.4,-48.3 28.8,-51.7 l 151.1,-21 c 5.2,-0.7 10.6,-0.4 15.6,1.1 l 171.1,50.4 c 19.1,5.6 30.3,25.2 25.6,44.4 v 0 c -4.1,16.6 -18.9,28.3 -36,28.3 h -309.3 c -14.7,0 -28,-8.7 -33.9,-22.1"
         style="fill:#f9a72d;fill-opacity:1;fill-rule:nonzero;stroke:none"
         id="path50" />
      <path
         d="m 33424.4,7551.7 -13,-29.4 c -9.9,-22.5 4.4,-48.3 28.8,-51.7 l 151.1,-21 c 5.2,-0.7 10.6,-0.4 15.6,1.1 l 171.1,50.4 c 19.1,5.6 30.3,25.2 25.6,44.4 v 0 c -4.1,16.6 -18.9,28.3 -36,28.3 h -309.3 c -14.7,0 -28,-8.7 -33.9,-22.1 z"
         style="fill:none;stroke:#f9a72d;stroke-width:50;stroke-linecap:butt;stroke-linejoin:round;stroke-miterlimit:10;stroke-dasharray:none;stroke-opacity:1"
         id="path52" />
      <path
         d="m 33905.2,7317.7 321.1,172.2 c 25.7,13.9 24.7,51.1 -1.7,63.5 l -5.7,2.7 c -8.8,4.1 -18.8,4.5 -27.8,1 l -308.2,-118.6 c -12.2,-4.7 -20.9,-15.7 -22.5,-28.6 l -7.3,-56.4 c -3.6,-28.6 26.6,-49.5 52.1,-35.8"
         style="fill:#f9a72d;fill-opacity:1;fill-rule:nonzero;stroke:none"
         id="path54" />
      <path
         d="m 33905.2,7317.7 321.1,172.2 c 25.7,13.9 24.7,51.1 -1.7,63.5 l -5.7,2.7 c -8.8,4.1 -18.8,4.5 -27.8,1 l -308.2,-118.6 c -12.2,-4.7 -20.9,-15.7 -22.5,-28.6 l -7.3,-56.4 c -3.6,-28.6 26.6,-49.5 52.1,-35.8 z"
         style="fill:none;stroke:#f9a72d;stroke-width:50;stroke-linecap:butt;stroke-linejoin:round;stroke-miterlimit:10;stroke-dasharray:none;stroke-opacity:1"
         id="path56" />
      <path
         d="m 33398.4,7947.9 h 33.3 c 27.7,0 50.1,22.4 50.1,50.1 v 183.4 c 0,27.6 22.4,50.1 50.1,50.1 v 0 c 19.3,0 36.9,-11.2 45.2,-28.6 l 63.3,-132.9 c 13.2,-27.8 48.2,-37.2 73.6,-19.7 l 31.3,21.5 c 15.8,11 24,30 21,49 l -54.6,352.8 c -3.2,20.3 -18.4,36.6 -38.4,41.2 l -111.9,25.5 c -27,6.1 -43.9,33.1 -37.6,60.1 l 23.4,100.9 c 5.5,23.6 27.1,39.9 51.3,38.7 l 385.6,-19.4 c 25.9,-1.3 48.5,17.4 52.1,43 l 4.5,32.2 c 4.3,30.7 -20,57.8 -51,57 l -502,-14.2 c -24.9,-0.8 -45.5,-19.6 -48.3,-44.4 l -90.8,-790.5 c -3.4,-29.7 19.9,-55.8 49.8,-55.8"
         style="fill:#f9a72d;fill-opacity:1;fill-rule:nonzero;stroke:none"
         id="path58" />
      <path
         d="m 33398.4,7947.9 h 33.3 c 27.7,0 50.1,22.4 50.1,50.1 v 183.4 c 0,27.6 22.4,50.1 50.1,50.1 v 0 c 19.3,0 36.9,-11.2 45.2,-28.6 l 63.3,-132.9 c 13.2,-27.8 48.2,-37.2 73.6,-19.7 l 31.3,21.5 c 15.8,11 24,30 21,49 l -54.6,352.8 c -3.2,20.3 -18.4,36.6 -38.4,41.2 l -111.9,25.5 c -27,6.1 -43.9,33.1 -37.6,60.1 l 23.4,100.9 c 5.5,23.6 27.1,39.9 51.3,38.7 l 385.6,-19.4 c 25.9,-1.3 48.5,17.4 52.1,43 l 4.5,32.2 c 4.3,30.7 -20,57.8 -51,57 l -502,-14.2 c -24.9,-0.8 -45.5,-19.6 -48.3,-44.4 l -90.8,-790.5 c -3.4,-29.7 19.9,-55.8 49.8,-55.8 z"
         style="fill:none;stroke:#f9a72d;stroke-width:50;stroke-linecap:butt;stroke-linejoin:round;stroke-miterlimit:10;stroke-dasharray:none;stroke-opacity:1"
         id="path60" />
      <path
         d="m 28685.1,9881.9 -42.2,-81.2 c -5.6,-10.8 -6.8,-23.4 -3.3,-35.2 l 68.3,-230.2 c 9,-30.4 44.9,-43.4 71.4,-25.8 l 104.9,70 c 20.3,13.5 27,40.3 15.3,61.7 l -131.1,241.5 c -18,33.3 -65.9,32.8 -83.3,-0.8"
         style="fill:#f9a72d;fill-opacity:1;fill-rule:nonzero;stroke:none"
         id="path62" />
      <path
         d="m 28685.1,9881.9 -42.2,-81.2 c -5.6,-10.8 -6.8,-23.4 -3.3,-35.2 l 68.3,-230.2 c 9,-30.4 44.9,-43.4 71.4,-25.8 l 104.9,70 c 20.3,13.5 27,40.3 15.3,61.7 l -131.1,241.5 c -18,33.3 -65.9,32.8 -83.3,-0.8 z"
         style="fill:none;stroke:#f9a72d;stroke-width:50;stroke-linecap:butt;stroke-linejoin:round;stroke-miterlimit:10;stroke-dasharray:none;stroke-opacity:1"
         id="path64" />
      <path
         d="m 32094.8,11343.7 -144,-38.7 c -17.8,-4.7 -29,-22.4 -25.7,-40.6 l 12.8,-69.2 c 2.6,-14.3 13.7,-25.6 28,-28.4 l 83.7,-16.4 c 16.9,-3.3 33.7,6 39.9,22.1 l 47.5,124.3 c 10.3,27 -14.3,54.4 -42.2,46.9"
         style="fill:#f9a72d;fill-opacity:1;fill-rule:nonzero;stroke:none"
         id="path66" />
      <path
         d="m 32094.8,11343.7 -144,-38.7 c -17.8,-4.7 -29,-22.4 -25.7,-40.6 l 12.8,-69.2 c 2.6,-14.3 13.7,-25.6 28,-28.4 l 83.7,-16.4 c 16.9,-3.3 33.7,6 39.9,22.1 l 47.5,124.3 c 10.3,27 -14.3,54.4 -42.2,46.9 z"
         style="fill:none;stroke:#f9a72d;stroke-width:50;stroke-linecap:butt;stroke-linejoin:round;stroke-miterlimit:10;stroke-dasharray:none;stroke-opacity:1"
         id="path68" />
      <path
         d="m 33299.7,11723.4 44.8,261.6 c 1.8,10.5 -1.4,21.3 -8.7,29.1 l -33.7,36.7 c -16.6,18 -46.1,13.4 -56.5,-8.7 l -84.4,-180.1 c -4.9,-10.6 -4.2,-22.9 1.9,-32.8 l 73.4,-118.1 c 16.7,-26.9 57.8,-18.9 63.2,12.3"
         style="fill:#f9a72d;fill-opacity:1;fill-rule:nonzero;stroke:none"
         id="path70" />
      <path
         d="m 33299.7,11723.4 44.8,261.6 c 1.8,10.5 -1.4,21.3 -8.7,29.1 l -33.7,36.7 c -16.6,18 -46.1,13.4 -56.5,-8.7 l -84.4,-180.1 c -4.9,-10.6 -4.2,-22.9 1.9,-32.8 l 73.4,-118.1 c 16.7,-26.9 57.8,-18.9 63.2,12.3 z"
         style="fill:none;stroke:#f9a72d;stroke-width:50;stroke-linecap:butt;stroke-linejoin:round;stroke-miterlimit:10;stroke-dasharray:none;stroke-opacity:1"
         id="path72" />
      <path
         d="m 33419.4,11138.3 138.4,-82.4 c 17.8,-10.6 27.2,-31.1 23.8,-51.5 l -53.1,-312.9 c -3.5,-20.7 6.2,-41.5 24.5,-51.9 l 247.2,-142.1 c 18.3,-10.5 28.1,-31.4 24.4,-52.2 l -1.7,-9.6 c -6.1,-34.5 -44.9,-52.3 -75,-34.4 l -398.6,236.9 c -15.9,9.5 -25.3,26.9 -24.4,45.4 l 18.6,413.9 c 1.8,37.9 43.3,60.3 75.9,40.8"
         style="fill:#f9a72d;fill-opacity:1;fill-rule:nonzero;stroke:none"
         id="path74" />
      <path
         d="m 33419.4,11138.3 138.4,-82.4 c 17.8,-10.6 27.2,-31.1 23.8,-51.5 l -53.1,-312.9 c -3.5,-20.7 6.2,-41.5 24.5,-51.9 l 247.2,-142.1 c 18.3,-10.5 28.1,-31.4 24.4,-52.2 l -1.7,-9.6 c -6.1,-34.5 -44.9,-52.3 -75,-34.4 l -398.6,236.9 c -15.9,9.5 -25.3,26.9 -24.4,45.4 l 18.6,413.9 c 1.8,37.9 43.3,60.3 75.9,40.8 z"
         style="fill:none;stroke:#f9a72d;stroke-width:50;stroke-linecap:butt;stroke-linejoin:round;stroke-miterlimit:10;stroke-dasharray:none;stroke-opacity:1"
         id="path76" />
      <path
         d="m 33893.4,10255.2 v 0 c -3.1,-9.9 -3.1,-20.5 0.1,-30.4 l 44.3,-138.5 c 10.3,-32 48.5,-45.1 76.2,-26.1 l 25.3,17.4 c 21.6,14.8 28.2,43.7 15.1,66.4 l -69.6,121.1 c -21.8,37.9 -78.3,31.8 -91.4,-9.9"
         style="fill:#f9a72d;fill-opacity:1;fill-rule:nonzero;stroke:none"
         id="path78" />
      <path
         d="m 33893.4,10255.2 v 0 c -3.1,-9.9 -3.1,-20.5 0.1,-30.4 l 44.3,-138.5 c 10.3,-32 48.5,-45.1 76.2,-26.1 l 25.3,17.4 c 21.6,14.8 28.2,43.7 15.1,66.4 l -69.6,121.1 c -21.8,37.9 -78.3,31.8 -91.4,-9.9 z"
         style="fill:none;stroke:#f9a72d;stroke-width:50;stroke-linecap:butt;stroke-linejoin:round;stroke-miterlimit:10;stroke-dasharray:none;stroke-opacity:1"
         id="path80" />
      <path
         d="m 34030.6,9935.1 -337.2,-184.7 c -16.1,-8.8 -26.1,-25.7 -26.1,-44 v -12.2 c 0,-28.9 24.4,-51.9 53.3,-50.1 l 139.9,8.6 c 17.5,1.1 34.2,-7 44.2,-21.3 l 101.3,-145.1 c 20.8,-29.7 65.4,-28.2 84.2,2.9 l 102.9,171.3 c 8.6,14.3 9.6,31.9 2.5,47.1 l -95.4,204.7 c -12.3,26.3 -44.2,36.7 -69.6,22.8"
         style="fill:#f9a72d;fill-opacity:1;fill-rule:nonzero;stroke:none"
         id="path82" />
      <path
         d="m 34030.6,9935.1 -337.2,-184.7 c -16.1,-8.8 -26.1,-25.7 -26.1,-44 v -12.2 c 0,-28.9 24.4,-51.9 53.3,-50.1 l 139.9,8.6 c 17.5,1.1 34.2,-7 44.2,-21.3 l 101.3,-145.1 c 20.8,-29.7 65.4,-28.2 84.2,2.9 l 102.9,171.3 c 8.6,14.3 9.6,31.9 2.5,47.1 l -95.4,204.7 c -12.3,26.3 -44.2,36.7 -69.6,22.8 z"
         style="fill:none;stroke:#f9a72d;stroke-width:50;stroke-linecap:butt;stroke-linejoin:round;stroke-miterlimit:10;stroke-dasharray:none;stroke-opacity:1"
         id="path84" />
      <path
         d="m 33702.4,10198.6 70.9,-60.3 c 16.9,-14.4 22.3,-38.2 13.4,-58.5 l -20.4,-46 c -15.8,-35.8 -64.6,-40.5 -87,-8.5 l -50.6,72.4 c -5.9,8.4 -9,18.4 -9,28.7 v 33.9 c 0,42.8 50.1,66 82.7,38.3"
         style="fill:#f9a72d;fill-opacity:1;fill-rule:nonzero;stroke:none"
         id="path86" />
      <path
         d="m 33702.4,10198.6 70.9,-60.3 c 16.9,-14.4 22.3,-38.2 13.4,-58.5 l -20.4,-46 c -15.8,-35.8 -64.6,-40.5 -87,-8.5 l -50.6,72.4 c -5.9,8.4 -9,18.4 -9,28.7 v 33.9 c 0,42.8 50.1,66 82.7,38.3 z"
         style="fill:none;stroke:#f9a72d;stroke-width:50;stroke-linecap:butt;stroke-linejoin:round;stroke-miterlimit:10;stroke-dasharray:none;stroke-opacity:1"
         id="path88" />
      <path
         d="m 34639.9,8284.2 h -172 c -23.6,0 -40,-23.2 -32.2,-45.5 l 8.7,-24.9 c 4.6,-13 16.6,-22 30.3,-22.8 l 183.4,-10.2 c 27.1,-1.5 45,27.6 31.6,51.1 l -20.2,35.2 c -6.1,10.6 -17.4,17.1 -29.6,17.1"
         style="fill:#f9a72d;fill-opacity:1;fill-rule:nonzero;stroke:none"
         id="path90" />
      <path
         d="m 34639.9,8284.2 h -172 c -23.6,0 -40,-23.2 -32.2,-45.5 l 8.7,-24.9 c 4.6,-13 16.6,-22 30.3,-22.8 l 183.4,-10.2 c 27.1,-1.5 45,27.6 31.6,51.1 l -20.2,35.2 c -6.1,10.6 -17.4,17.1 -29.6,17.1 z"
         style="fill:none;stroke:#f9a72d;stroke-width:50;stroke-linecap:butt;stroke-linejoin:round;stroke-miterlimit:10;stroke-dasharray:none;stroke-opacity:1"
         id="path92" />
      <path
         d="m 28497.8,9931.3 90.3,138.1 c 60.7,92.9 89,203.4 80.3,314 l -8.3,107.2 c -14.4,183.2 47.9,364.2 172,499.7 l 459.2,501.5 c 78,85.2 188.2,133.7 303.7,133.7 h 149.3 c 101.1,0 194.7,-53.2 246.4,-140.1 l 276.8,-465 c 40.5,-68.1 113.9,-109.8 193.2,-109.8 v 0 c 99.3,0 188.3,-61.3 223.6,-154.1 l 140,-367.4 c 30.6,-80.2 42.6,-166.3 35.2,-251.9 l -12.6,-146.4 c -13.3,-154.4 22.7,-309.2 102.7,-441.9 l 244,-404.7 c 43.9,-72.9 105.4,-133.6 178.8,-176.5 l 104.7,-61.3 c 39.8,-23.3 89,9.2 83.2,54.9 l -36.6,286.5 c -8.4,66.2 -38,127.9 -84.4,175.8 l -340.5,352.2 c -70.1,72.5 -101.7,173.9 -85.2,273.4 l 43.8,264.7 c 6.7,40.3 41.7,69.7 82.5,69.5 l 49.7,-0.3 c 37.4,-0.3 72.5,-17.8 95.1,-47.6 l 272.6,-358.5 c 51.5,-67.7 150.3,-75.7 211.9,-17.1 l 185,175.6 c 96.7,91.9 136.3,228.8 103.5,358 l -38.4,151.8 c -25.5,100.4 -75.4,193 -145.3,269.4 l -228.9,250.2 c -59.3,64.8 -61.1,163.5 -4.3,230.5 l 51.4,60.6 c 58.1,68.4 154,91.3 236.7,56.3 l 49.7,-21 c 74.1,-31.2 158.6,-26.1 228.4,14 l 513.6,294.9 c 156.7,89.9 265.6,244.6 297.4,422.4 l 89.1,497.4 c 17.3,96.6 -11.2,195.7 -77.1,268.4 l -308.2,339.6 c -50.7,55.9 -54.1,140.2 -7.9,199.9 l 52.4,67.9 c 31.3,40.6 10.2,99.9 -39.7,111.6 l -296.5,69 c -77.1,18 -114.5,105.8 -73.8,173.9 l 74,123.9 c 27.8,46.6 92.6,53.2 129.2,13.2 l 50.7,-55.4 c 41.5,-45.3 107.8,-58.1 163.1,-31.4 l 18.3,8.8 c 58.9,28.4 128.5,22.9 182.3,-14.3 l 219.6,-151.6 c 74.6,-51.6 131.6,-124.9 163.2,-210 l 76,-205.1 c 23.2,-62.5 96.5,-89.8 154.9,-57.7 v 0 c 80.8,44.3 106.9,147.8 56.8,225.1 l -177.8,274.6 c -13.6,21 -30.6,39.5 -50.3,54.8 l -1.9,1.5 c -76,59.1 -101.9,162.3 -62.8,250.2 30.7,68.9 66.4,149.2 94.3,212.2 28,62.9 96.3,97.5 163.6,83 l 3.4,-0.8 c 85.4,-18.5 169.4,33.7 190.2,117.9 28,113 67.1,269.9 99.8,401.5 39.2,157.5 1.7,324.1 -101.2,449.5 l -309,376.8 c -55.4,67.6 -132.9,113.5 -218.8,129.5 l -136,25.3 c -147.1,27.5 -231,184.1 -172.3,321.8 l 3,7.1 c 77.2,181 237.8,310.8 429.5,347.9 308.3,59.8 777.9,151.3 1060.7,206.5 124.9,24.3 240.9,-71.3 240.9,-198.5 v -245.1 c 0,-160.6 68.5,-313.5 188.3,-420.4 l 426,-380.3 c 41.7,-37.2 107.9,-12.6 115.3,42.8 l 37.9,286.3 c 18.2,137.1 -32.8,274.2 -136.2,366.1 l -182.3,162.1 c -62.8,55.8 -46.1,157.9 31.1,190.9 l 555.8,237.4 c 149,63.6 278.1,166.1 373.9,296.7 l 4.3,5.8 c 88.4,120.6 24.2,290.7 -120.6,322.4 -428.2,93.8 -1197.6,262.7 -1610.7,353.3 -186.5,41 -376.4,64.4 -567.2,70.2 l -3349.1,101.1 c -113.7,3.4 -227,15.4 -338.9,35.8 l -1642.2,299.4 c -632.8,115.3 -1283.8,80.3 -1900.5,-102.5 L 23235,17416.4 c -49.7,-12.8 -99.4,20.9 -105.9,71.8 v 0 c -8,62.2 -53.4,113.2 -114.3,128.2 l -1031.3,255.1 c -191.4,47.3 -392,42.8 -581.2,-13.1 v 0 c -339.5,-100.4 -637.5,-308 -849.2,-591.8 l -79.4,-106.5 c -38.7,-51.8 -90.9,-92.1 -150.9,-116.2 l -217.4,-87.4 c -92.3,-37.1 -143.5,-136.3 -120.3,-233.1 l 36.4,-152.5 c 19.5,-81.3 102.5,-130.1 182.9,-107.6 l 139,39 c 56.9,15.9 117.3,-8.9 146.6,-60.1 l 126.2,-220.1 c 37,-64.5 114.9,-93.4 185,-68.5 l 4,1.4 c 122.9,43.6 223.1,133.4 279.6,250.2 24.7,51.3 51,105.8 73.6,152.4 36,74.5 30.9,162.3 -13.5,232.2 v 0.1 c -56.7,89.3 -43.5,206.1 31.7,280.6 l 237.1,234.6 c 44.2,43.8 110.1,57.4 168.1,34.8 l 3,-1.2 c 64.9,-25.4 82.3,-108.5 33.3,-157.4 -52.6,-52.5 -105.4,-105.3 -105.4,-105.3 -44.1,-44.1 -59.9,-109.1 -41.1,-168.6 l 32.4,-92.2 c 20.4,-58.4 74.8,-98.1 136.7,-99.9 l 374.8,-10.7 c 32.9,-0.9 59.4,-27.4 60.3,-60.3 v 0 c 1,-36.6 -25.2,-68.3 -61.3,-74.1 l -231.6,-37.6 c -46.8,-7.6 -79.6,-50.3 -74.9,-97.4 l 3.6,-36.1 c 3.8,-39.1 -22.5,-74.9 -61.1,-82.8 l -44.9,-9.2 c -63.1,-12.9 -112.9,-61.2 -127.7,-123.9 l -22.7,-109.3 c -17.2,-82.6 -90.3,-141.6 -174.6,-141 l -768.7,5.1 c -53.2,0.4 -96.4,43.1 -97.3,96.3 l -3.5,206.3 c -0.7,42.6 -47.5,68.3 -83.8,46 l -56.3,-34.5 c -68.6,-42.1 -99.5,-125.6 -74.8,-202.2 l 19.5,-60.7 c 21.3,-66 -9.4,-137.6 -71.9,-167.8 l -140.9,0.3 c -87.3,0.2 -166.5,-46.3 -209.5,-119.4 -23,-39.2 -48.6,-76.7 -79.2,-110.2 -55.8,-60.7 -141.6,-154.2 -211.5,-230.4 -74.6,-81.3 -180,-127.3 -290.3,-126.7 l -120.7,0.6 c -85.2,-55.9 -101.8,-173.9 -35.5,-251.3 l 94.4,-109.7 c 44.1,-51.3 55.9,-122.9 30.4,-185.5 l -1.4,-3.5 c -40.8,-100.6 -138,-166 -246,-165.9 -112.4,0.1 -258.6,0.2 -379.7,0.2 -130.9,0.1 -240.5,-98.9 -253.9,-229.1 l -39.1,-382.4 c -11.4,-111.2 51.8,-216.7 155.2,-259.1 l 4.9,-2 c 133.3,-54.8 280.9,-58.8 416,-11.6 86.4,30.2 184.5,64.4 264.1,92.2 95.3,33.3 165.2,115.4 182.8,214.8 l 0.9,4.9 c 25.9,146 91.2,281.2 188.8,391.6 31,35.1 62.8,71 90.8,102.7 56.9,64.4 138.3,101.6 224.2,102.6 l 328.6,3.7 c 140.3,1.6 277.5,-40.8 392.5,-121 l 343,-239.4 c 67.8,-47.4 114.7,-119.1 130.8,-200.2 l 14.3,-72.4 c 7.7,-38.7 59,-47.5 79.2,-13.6 l 74.1,125 c 30.6,51.6 14.8,118.2 -35.7,150.5 l -293.2,187.3 c -49.3,31.4 -87.5,77.4 -109.5,131.6 l -56.6,139.4 c -25.5,62.9 19.5,131.9 87.3,134 v 0 c 67.5,2.2 133.3,-21.8 183.5,-67 l 349,-313.4 c 64,-57.5 107.8,-134.2 124.7,-218.7 l 10.6,-53.2 c 12.9,-64.2 39.9,-124.8 79,-177.4 l 163.1,-218.8 c 28.3,-37.9 84.5,-39.3 114.6,-2.9 l 2.2,2.6 c 66.6,80.5 77.1,193 26.8,284 -5.9,10.8 -11.7,21.3 -17.2,31.3 -20.1,36.3 -4.3,82 33.9,98.3 l 154.4,65.8 c 32.9,14 68.5,20.5 104.2,18.9 l 139.9,-5.9 c 71.9,-3.1 123.7,68.1 98.8,135.6 l -1.1,2.8 c -21.9,59.2 -17.3,124.1 12.4,179 35.8,66.3 86,159.5 127.7,237.1 42,78 140.6,105.3 216.8,60 l 166.1,-98.9 c 48.1,-28.5 110.3,-10.3 135.3,39.7 l 65,130.1 c 21.2,42.4 66,67.8 113.3,64.3 l 104.4,-7.8 c 41.4,-3 64.1,-49.8 40.8,-84.2 l -38.2,-56.3 c -28,-41.3 -13.9,-97.7 30.3,-121 l 411.9,-216.8 c 42.4,-22.3 72.6,-62.4 82.3,-109.3 l 0.5,-2.5 c 12.6,-61 -36.8,-116.4 -98.4,-110.9 -170.1,15.3 -475.3,42.5 -655.3,58.4 -94.5,8.4 -189.6,-5.7 -277.6,-41.2 l -399.9,-161.1 c -84.1,-33.9 -126.4,-128.1 -95.9,-213.5 v 0 c 58.1,-162.2 204.9,-276 376.4,-291.7 l 451.5,-1.8 c 106.1,-0.4 186.1,-96.6 167,-201 l -44.6,-244 c -26.6,-145.7 -146,-256.5 -293.3,-272.4 l -169.4,-18.1 c -122,-13.1 -245.4,-2.4 -363.4,31.6 l -528.2,152.1 c -73.8,21.3 -153.4,-0.8 -205.7,-57.1 v 0 c -110.8,-119.2 -283.3,-158.7 -434.9,-99.6 l -681.5,265.6 c -79.6,31 -131,108.8 -128.3,194.2 l 4.6,147.4 c 2.3,75.5 -65,134.2 -139.4,121.6 l -904.2,-89.5 c -474,-46.9 -907.8,-286.7 -1199.5,-663.2 l -599.6,-773.6 c -229.8,-296.6 -346,-665.6 -327.4,-1040.3 l 6.4,-131.3 c 20.2,-407.3 184.7,-794.1 464.1,-1091.1 l 216.4,-230.1 c 199.2,-211.8 494.7,-303.9 778.9,-242.8 l 625.3,134.5 c 188.4,40.5 385.1,5.3 547.8,-98 L 20185,9198 c 131.7,-83.7 197.3,-240.7 164.1,-393.3 v 0 c -42,-193 -19.7,-394.5 63.5,-573.7 l 299.8,-645.4 c 79.6,-171.3 94.8,-365.6 42.7,-547.2 v 0 c -141.2,-492.4 -112.4,-1017.9 81.7,-1491.9 l 507.3,-1238.6 c 66.6,-162.6 231.9,-262.3 406.7,-245.5 l 147.4,14.3 c 275.2,26.5 527.3,165.4 696.8,383.9 l 544.4,701.7 c 109.2,140.8 158.2,319 136.4,495.9 v 0 c -21.8,177.3 44.5,354.1 177.6,473.3 l 222.4,199.3 c 187.8,168.2 279.3,419 244,668.6 l -65.4,462.5 c -53.9,381.4 61.9,767.3 316.9,1056 l 798.5,903.9 c 99.7,112.9 164,252.6 185,401.7 l 28.8,205.1 c 15.2,107.9 -80.2,198.7 -187.2,178.3 l -463.1,-88.4 c -122.7,-23.4 -247.7,28.2 -318.2,131.4 l -559.1,818.9 c -102.7,150.4 -187,312.7 -250.9,483.3 l -270.3,720.6 c -25.5,68.1 11.5,143.7 81,165.3 v 0 c 55.4,17.2 115.4,-5.2 146,-54.4 l 746.6,-1201.8 c 95.1,-153.1 164.2,-320.8 204.5,-496.4 v 0 c 35.8,-155.7 205.5,-239.5 350.8,-173.1 l 933.1,425.8 c 180.3,82.3 326.2,225.2 412.3,403.7 l 84.4,175 c 57.1,118.3 29.1,260.1 -68.7,347.8 l -216.2,194 c -63.1,56.5 -155.1,66.4 -228.7,24.5 l -170.1,-96.7 c -113.9,-64.7 -258.7,-28.3 -328.5,82.7 l -277.1,441 c -36.4,57.8 -21.8,133.9 33.3,174.2 v 0 c 45.9,33.5 109.1,29.4 150.2,-9.7 l 310.5,-295.3 c 66.6,-63.4 158.3,-93 249.3,-80.7 l 134.3,18.1 c 61.7,8.4 123.1,-16.6 161.5,-65.6 v 0 c 61.8,-78.9 156.8,-124.6 257.1,-123.5 l 479.6,5 c 211.7,2.3 412.8,-92.2 546.2,-256.4 l 250.7,-308.5 c 43.5,-53.6 109.8,-83.6 178.8,-81 v 0 c 92,3.5 173.1,-59.9 192,-150 l 138.1,-657.9 c 40,-190.6 119.5,-370.7 233.2,-528.8 l 161,-223.6 c 54.2,-75.3 167,-72.7 217.8,4.9"
         style="fill:#f9a72d;fill-opacity:1;fill-rule:nonzero;stroke:none"
         id="path94" />
      <path
         d="m 28497.8,9931.3 90.3,138.1 c 60.7,92.9 89,203.4 80.3,314 l -8.3,107.2 c -14.4,183.2 47.9,364.2 172,499.7 l 459.2,501.5 c 78,85.2 188.2,133.7 303.7,133.7 h 149.3 c 101.1,0 194.7,-53.2 246.4,-140.1 l 276.8,-465 c 40.5,-68.1 113.9,-109.8 193.2,-109.8 v 0 c 99.3,0 188.3,-61.3 223.6,-154.1 l 140,-367.4 c 30.6,-80.2 42.6,-166.3 35.2,-251.9 l -12.6,-146.4 c -13.3,-154.4 22.7,-309.2 102.7,-441.9 l 244,-404.7 c 43.9,-72.9 105.4,-133.6 178.8,-176.5 l 104.7,-61.3 c 39.8,-23.3 89,9.2 83.2,54.9 l -36.6,286.5 c -8.4,66.2 -38,127.9 -84.4,175.8 l -340.5,352.2 c -70.1,72.5 -101.7,173.9 -85.2,273.4 l 43.8,264.7 c 6.7,40.3 41.7,69.7 82.5,69.5 l 49.7,-0.3 c 37.4,-0.3 72.5,-17.8 95.1,-47.6 l 272.6,-358.5 c 51.5,-67.7 150.3,-75.7 211.9,-17.1 l 185,175.6 c 96.7,91.9 136.3,228.8 103.5,358 l -38.4,151.8 c -25.5,100.4 -75.4,193 -145.3,269.4 l -228.9,250.2 c -59.3,64.8 -61.1,163.5 -4.3,230.5 l 51.4,60.6 c 58.1,68.4 154,91.3 236.7,56.3 l 49.7,-21 c 74.1,-31.2 158.6,-26.1 228.4,14 l 513.6,294.9 c 156.7,89.9 265.6,244.6 297.4,422.4 l 89.1,497.4 c 17.3,96.6 -11.2,195.7 -77.1,268.4 l -308.2,339.6 c -50.7,55.9 -54.1,140.2 -7.9,199.9 l 52.4,67.9 c 31.3,40.6 10.2,99.9 -39.7,111.6 l -296.5,69 c -77.1,18 -114.5,105.8 -73.8,173.9 l 74,123.9 c 27.8,46.6 92.6,53.2 129.2,13.2 l 50.7,-55.4 c 41.5,-45.3 107.8,-58.1 163.1,-31.4 l 18.3,8.8 c 58.9,28.4 128.5,22.9 182.3,-14.3 l 219.6,-151.6 c 74.6,-51.6 131.6,-124.9 163.2,-210 l 76,-205.1 c 23.2,-62.5 96.5,-89.8 154.9,-57.7 v 0 c 80.8,44.3 106.9,147.8 56.8,225.1 l -177.8,274.6 c -13.6,21 -30.6,39.5 -50.3,54.8 l -1.9,1.5 c -76,59.1 -101.9,162.3 -62.8,250.2 30.7,68.9 66.4,149.2 94.3,212.2 28,62.9 96.3,97.5 163.6,83 l 3.4,-0.8 c 85.4,-18.5 169.4,33.7 190.2,117.9 28,113 67.1,269.9 99.8,401.5 39.2,157.5 1.7,324.1 -101.2,449.5 l -309,376.8 c -55.4,67.6 -132.9,113.5 -218.8,129.5 l -136,25.3 c -147.1,27.5 -231,184.1 -172.3,321.8 l 3,7.1 c 77.2,181 237.8,310.8 429.5,347.9 308.3,59.8 777.9,151.3 1060.7,206.5 124.9,24.3 240.9,-71.3 240.9,-198.5 v -245.1 c 0,-160.6 68.5,-313.5 188.3,-420.4 l 426,-380.3 c 41.7,-37.2 107.9,-12.6 115.3,42.8 l 37.9,286.3 c 18.2,137.1 -32.8,274.2 -136.2,366.1 l -182.3,162.1 c -62.8,55.8 -46.1,157.9 31.1,190.9 l 555.8,237.4 c 149,63.6 278.1,166.1 373.9,296.7 l 4.3,5.8 c 88.4,120.6 24.2,290.7 -120.6,322.4 -428.2,93.8 -1197.6,262.7 -1610.7,353.3 -186.5,41 -376.4,64.4 -567.2,70.2 l -3349.1,101.1 c -113.7,3.4 -227,15.4 -338.9,35.8 l -1642.2,299.4 c -632.8,115.3 -1283.8,80.3 -1900.5,-102.5 L 23235,17416.4 c -49.7,-12.8 -99.4,20.9 -105.9,71.8 v 0 c -8,62.2 -53.4,113.2 -114.3,128.2 l -1031.3,255.1 c -191.4,47.3 -392,42.8 -581.2,-13.1 v 0 c -339.5,-100.4 -637.5,-308 -849.2,-591.8 l -79.4,-106.5 c -38.7,-51.8 -90.9,-92.1 -150.9,-116.2 l -217.4,-87.4 c -92.3,-37.1 -143.5,-136.3 -120.3,-233.1 l 36.4,-152.5 c 19.5,-81.3 102.5,-130.1 182.9,-107.6 l 139,39 c 56.9,15.9 117.3,-8.9 146.6,-60.1 l 126.2,-220.1 c 37,-64.5 114.9,-93.4 185,-68.5 l 4,1.4 c 122.9,43.6 223.1,133.4 279.6,250.2 24.7,51.3 51,105.8 73.6,152.4 36,74.5 30.9,162.3 -13.5,232.2 v 0.1 c -56.7,89.3 -43.5,206.1 31.7,280.6 l 237.1,234.6 c 44.2,43.8 110.1,57.4 168.1,34.8 l 3,-1.2 c 64.9,-25.4 82.3,-108.5 33.3,-157.4 -52.6,-52.5 -105.4,-105.3 -105.4,-105.3 -44.1,-44.1 -59.9,-109.1 -41.1,-168.6 l 32.4,-92.2 c 20.4,-58.4 74.8,-98.1 136.7,-99.9 l 374.8,-10.7 c 32.9,-0.9 59.4,-27.4 60.3,-60.3 v 0 c 1,-36.6 -25.2,-68.3 -61.3,-74.1 l -231.6,-37.6 c -46.8,-7.6 -79.6,-50.3 -74.9,-97.4 l 3.6,-36.1 c 3.8,-39.1 -22.5,-74.9 -61.1,-82.8 l -44.9,-9.2 c -63.1,-12.9 -112.9,-61.2 -127.7,-123.9 l -22.7,-109.3 c -17.2,-82.6 -90.3,-141.6 -174.6,-141 l -768.7,5.1 c -53.2,0.4 -96.4,43.1 -97.3,96.3 l -3.5,206.3 c -0.7,42.6 -47.5,68.3 -83.8,46 l -56.3,-34.5 c -68.6,-42.1 -99.5,-125.6 -74.8,-202.2 l 19.5,-60.7 c 21.3,-66 -9.4,-137.6 -71.9,-167.8 l -140.9,0.3 c -87.3,0.2 -166.5,-46.3 -209.5,-119.4 -23,-39.2 -48.6,-76.7 -79.2,-110.2 -55.8,-60.7 -141.6,-154.2 -211.5,-230.4 -74.6,-81.3 -180,-127.3 -290.3,-126.7 l -120.7,0.6 c -85.2,-55.9 -101.8,-173.9 -35.5,-251.3 l 94.4,-109.7 c 44.1,-51.3 55.9,-122.9 30.4,-185.5 l -1.4,-3.5 c -40.8,-100.6 -138,-166 -246,-165.9 -112.4,0.1 -258.6,0.2 -379.7,0.2 -130.9,0.1 -240.5,-98.9 -253.9,-229.1 l -39.1,-382.4 c -11.4,-111.2 51.8,-216.7 155.2,-259.1 l 4.9,-2 c 133.3,-54.8 280.9,-58.8 416,-11.6 86.4,30.2 184.5,64.4 264.1,92.2 95.3,33.3 165.2,115.4 182.8,214.8 l 0.9,4.9 c 25.9,146 91.2,281.2 188.8,391.6 31,35.1 62.8,71 90.8,102.7 56.9,64.4 138.3,101.6 224.2,102.6 l 328.6,3.7 c 140.3,1.6 277.5,-40.8 392.5,-121 l 343,-239.4 c 67.8,-47.4 114.7,-119.1 130.8,-200.2 l 14.3,-72.4 c 7.7,-38.7 59,-47.5 79.2,-13.6 l 74.1,125 c 30.6,51.6 14.8,118.2 -35.7,150.5 l -293.2,187.3 c -49.3,31.4 -87.5,77.4 -109.5,131.6 l -56.6,139.4 c -25.5,62.9 19.5,131.9 87.3,134 v 0 c 67.5,2.2 133.3,-21.8 183.5,-67 l 349,-313.4 c 64,-57.5 107.8,-134.2 124.7,-218.7 l 10.6,-53.2 c 12.9,-64.2 39.9,-124.8 79,-177.4 l 163.1,-218.8 c 28.3,-37.9 84.5,-39.3 114.6,-2.9 l 2.2,2.6 c 66.6,80.5 77.1,193 26.8,284 -5.9,10.8 -11.7,21.3 -17.2,31.3 -20.1,36.3 -4.3,82 33.9,98.3 l 154.4,65.8 c 32.9,14 68.5,20.5 104.2,18.9 l 139.9,-5.9 c 71.9,-3.1 123.7,68.1 98.8,135.6 l -1.1,2.8 c -21.9,59.2 -17.3,124.1 12.4,179 35.8,66.3 86,159.5 127.7,237.1 42,78 140.6,105.3 216.8,60 l 166.1,-98.9 c 48.1,-28.5 110.3,-10.3 135.3,39.7 l 65,130.1 c 21.2,42.4 66,67.8 113.3,64.3 l 104.4,-7.8 c 41.4,-3 64.1,-49.8 40.8,-84.2 l -38.2,-56.3 c -28,-41.3 -13.9,-97.7 30.3,-121 l 411.9,-216.8 c 42.4,-22.3 72.6,-62.4 82.3,-109.3 l 0.5,-2.5 c 12.6,-61 -36.8,-116.4 -98.4,-110.9 -170.1,15.3 -475.3,42.5 -655.3,58.4 -94.5,8.4 -189.6,-5.7 -277.6,-41.2 l -399.9,-161.1 c -84.1,-33.9 -126.4,-128.1 -95.9,-213.5 v 0 c 58.1,-162.2 204.9,-276 376.4,-291.7 l 451.5,-1.8 c 106.1,-0.4 186.1,-96.6 167,-201 l -44.6,-244 c -26.6,-145.7 -146,-256.5 -293.3,-272.4 l -169.4,-18.1 c -122,-13.1 -245.4,-2.4 -363.4,31.6 l -528.2,152.1 c -73.8,21.3 -153.4,-0.8 -205.7,-57.1 v 0 c -110.8,-119.2 -283.3,-158.7 -434.9,-99.6 l -681.5,265.6 c -79.6,31 -131,108.8 -128.3,194.2 l 4.6,147.4 c 2.3,75.5 -65,134.2 -139.4,121.6 l -904.2,-89.5 c -474,-46.9 -907.8,-286.7 -1199.5,-663.2 l -599.6,-773.6 c -229.8,-296.6 -346,-665.6 -327.4,-1040.3 l 6.4,-131.3 c 20.2,-407.3 184.7,-794.1 464.1,-1091.1 l 216.4,-230.1 c 199.2,-211.8 494.7,-303.9 778.9,-242.8 l 625.3,134.5 c 188.4,40.5 385.1,5.3 547.8,-98 L 20185,9198 c 131.7,-83.7 197.3,-240.7 164.1,-393.3 v 0 c -42,-193 -19.7,-394.5 63.5,-573.7 l 299.8,-645.4 c 79.6,-171.3 94.8,-365.6 42.7,-547.2 v 0 c -141.2,-492.4 -112.4,-1017.9 81.7,-1491.9 l 507.3,-1238.6 c 66.6,-162.6 231.9,-262.3 406.7,-245.5 l 147.4,14.3 c 275.2,26.5 527.3,165.4 696.8,383.9 l 544.4,701.7 c 109.2,140.8 158.2,319 136.4,495.9 v 0 c -21.8,177.3 44.5,354.1 177.6,473.3 l 222.4,199.3 c 187.8,168.2 279.3,419 244,668.6 l -65.4,462.5 c -53.9,381.4 61.9,767.3 316.9,1056 l 798.5,903.9 c 99.7,112.9 164,252.6 185,401.7 l 28.8,205.1 c 15.2,107.9 -80.2,198.7 -187.2,178.3 l -463.1,-88.4 c -122.7,-23.4 -247.7,28.2 -318.2,131.4 l -559.1,818.9 c -102.7,150.4 -187,312.7 -250.9,483.3 l -270.3,720.6 c -25.5,68.1 11.5,143.7 81,165.3 v 0 c 55.4,17.2 115.4,-5.2 146,-54.4 l 746.6,-1201.8 c 95.1,-153.1 164.2,-320.8 204.5,-496.4 v 0 c 35.8,-155.7 205.5,-239.5 350.8,-173.1 l 933.1,425.8 c 180.3,82.3 326.2,225.2 412.3,403.7 l 84.4,175 c 57.1,118.3 29.1,260.1 -68.7,347.8 l -216.2,194 c -63.1,56.5 -155.1,66.4 -228.7,24.5 l -170.1,-96.7 c -113.9,-64.7 -258.7,-28.3 -328.5,82.7 l -277.1,441 c -36.4,57.8 -21.8,133.9 33.3,174.2 v 0 c 45.9,33.5 109.1,29.4 150.2,-9.7 l 310.5,-295.3 c 66.6,-63.4 158.3,-93 249.3,-80.7 l 134.3,18.1 c 61.7,8.4 123.1,-16.6 161.5,-65.6 v 0 c 61.8,-78.9 156.8,-124.6 257.1,-123.5 l 479.6,5 c 211.7,2.3 412.8,-92.2 546.2,-256.4 l 250.7,-308.5 c 43.5,-53.6 109.8,-83.6 178.8,-81 v 0 c 92,3.5 173.1,-59.9 192,-150 l 138.1,-657.9 c 40,-190.6 119.5,-370.7 233.2,-528.8 l 161,-223.6 c 54.2,-75.3 167,-72.7 217.8,4.9 z"
         style="fill:none;stroke:#f9a72d;stroke-width:50;stroke-linecap:butt;stroke-linejoin:round;stroke-miterlimit:10;stroke-dasharray:none;stroke-opacity:1"
         id="path96" />
      <path
         d="m 25135.2,6642.3 -83.6,266.7 c -13.7,43.7 -71.7,52.7 -98,15.1 l -199.3,-285 c -6.2,-8.9 -14.9,-15.7 -25,-19.7 L 24467.5,6516 c -16.6,-6.6 -29.1,-20.9 -33.3,-38.3 l -219.4,-899.1 c -3.9,-16.1 -0.4,-33.1 9.6,-46.4 l 197,-260.5 c 14.7,-19.4 40.3,-26.9 63.1,-18.6 57.9,21.2 165.8,60.9 214.7,78.9 15.9,5.8 28.2,18.7 33.4,34.8 l 402.5,1241.9 c 3.5,10.9 3.6,22.7 0.1,33.6"
         style="fill:#f9a72d;fill-opacity:1;fill-rule:nonzero;stroke:none"
         id="path98" />
      <path
         d="m 25135.2,6642.3 -83.6,266.7 c -13.7,43.7 -71.7,52.7 -98,15.1 l -199.3,-285 c -6.2,-8.9 -14.9,-15.7 -25,-19.7 L 24467.5,6516 c -16.6,-6.6 -29.1,-20.9 -33.3,-38.3 l -219.4,-899.1 c -3.9,-16.1 -0.4,-33.1 9.6,-46.4 l 197,-260.5 c 14.7,-19.4 40.3,-26.9 63.1,-18.6 57.9,21.2 165.8,60.9 214.7,78.9 15.9,5.8 28.2,18.7 33.4,34.8 l 402.5,1241.9 c 3.5,10.9 3.6,22.7 0.1,33.6 z"
         style="fill:none;stroke:#f9a72d;stroke-width:50;stroke-linecap:butt;stroke-linejoin:round;stroke-miterlimit:10;stroke-dasharray:none;stroke-opacity:1"
         id="path100" />
      <path
         d="m 24281.1,17999.1 -77.5,103.4 c -16.9,22.6 -15.6,53.9 3.1,74.9 l 202.2,227.1 c 9.2,10.3 21.6,17 35.2,19.1 l 438.4,67.3 c 43.7,6.7 64.9,57.1 39.1,93 v 0 c -13.4,18.6 -36.3,27.9 -58.9,23.7 l -725.2,-135 c -15.5,-2.9 -29.2,-11.9 -38.1,-24.9 l -230.4,-338.8 c -20.2,-29.7 -9.5,-70.4 22.7,-86.3 l 251.4,-124.4 c 11.6,-5.8 24.7,-7.6 37.4,-5.1 l 64.5,12.4 c 42.9,8.3 62.4,58.6 36.1,93.6"
         style="fill:#f9a72d;fill-opacity:1;fill-rule:nonzero;stroke:none"
         id="path102" />
      <path
         d="m 24281.1,17999.1 -77.5,103.4 c -16.9,22.6 -15.6,53.9 3.1,74.9 l 202.2,227.1 c 9.2,10.3 21.6,17 35.2,19.1 l 438.4,67.3 c 43.7,6.7 64.9,57.1 39.1,93 v 0 c -13.4,18.6 -36.3,27.9 -58.9,23.7 l -725.2,-135 c -15.5,-2.9 -29.2,-11.9 -38.1,-24.9 l -230.4,-338.8 c -20.2,-29.7 -9.5,-70.4 22.7,-86.3 l 251.4,-124.4 c 11.6,-5.8 24.7,-7.6 37.4,-5.1 l 64.5,12.4 c 42.9,8.3 62.4,58.6 36.1,93.6 z"
         style="fill:none;stroke:#f9a72d;stroke-width:50;stroke-linecap:butt;stroke-linejoin:round;stroke-miterlimit:10;stroke-dasharray:none;stroke-opacity:1"
         id="path104" />
      <path
         d="m 20875,18870 -306.5,-56.9 c -38.2,-7.1 -49,-56.8 -17.1,-79 l 256,-179.1 c 14.2,-9.9 32.9,-10.6 47.7,-1.6 l 216.3,130.1 c 27.9,16.8 28.4,57 1,74.5 l -165.8,105.9 c -9.4,5.9 -20.7,8.1 -31.6,6.1"
         style="fill:#f9a72d;fill-opacity:1;fill-rule:nonzero;stroke:none"
         id="path106" />
      <path
         d="m 20875,18870 -306.5,-56.9 c -38.2,-7.1 -49,-56.8 -17.1,-79 l 256,-179.1 c 14.2,-9.9 32.9,-10.6 47.7,-1.6 l 216.3,130.1 c 27.9,16.8 28.4,57 1,74.5 l -165.8,105.9 c -9.4,5.9 -20.7,8.1 -31.6,6.1 z"
         style="fill:none;stroke:#f9a72d;stroke-width:50;stroke-linecap:butt;stroke-linejoin:round;stroke-miterlimit:10;stroke-dasharray:none;stroke-opacity:1"
         id="path108" />
      <path
         d="m 21175.3,18827 68.8,-49.8 c 9.9,-7.2 22.4,-9.9 34.4,-7.5 l 248.1,49.8 c 34.8,7 47.3,50.4 21.5,74.8 v 0 c -8.1,7.7 -18.9,12.1 -30.2,12.1 H 21201 c -42.5,0 -60.1,-54.5 -25.7,-79.4"
         style="fill:#f9a72d;fill-opacity:1;fill-rule:nonzero;stroke:none"
         id="path110" />
      <path
         d="m 21175.3,18827 68.8,-49.8 c 9.9,-7.2 22.4,-9.9 34.4,-7.5 l 248.1,49.8 c 34.8,7 47.3,50.4 21.5,74.8 v 0 c -8.1,7.7 -18.9,12.1 -30.2,12.1 H 21201 c -42.5,0 -60.1,-54.5 -25.7,-79.4 z"
         style="fill:none;stroke:#f9a72d;stroke-width:50;stroke-linecap:butt;stroke-linejoin:round;stroke-miterlimit:10;stroke-dasharray:none;stroke-opacity:1"
         id="path112" />
      <path
         d="m 18069.5,17397.3 19.3,-16.1 c 56.9,-47.4 45.6,-137.6 -21.1,-169.7 l -253.5,-121.6 c -19.1,-9.2 -40.7,-12.2 -61.6,-8.5 l -317.9,56.1 c -34.2,6 -63.1,29.2 -76.3,61.4 l -33.2,80.8 c -24.6,59.8 12.1,127 75.7,138.6 l 25,4.6 c 34.7,6.4 70.3,-5.7 93.9,-32 l 40.5,-45 c 26.8,-29.7 68.6,-41 106.7,-28.7 l 306.2,98.8 c 33.2,10.7 69.5,3.6 96.3,-18.7"
         style="fill:#f9a72d;fill-opacity:1;fill-rule:nonzero;stroke:none"
         id="path114" />
      <path
         d="m 18069.5,17397.3 19.3,-16.1 c 56.9,-47.4 45.6,-137.6 -21.1,-169.7 l -253.5,-121.6 c -19.1,-9.2 -40.7,-12.2 -61.6,-8.5 l -317.9,56.1 c -34.2,6 -63.1,29.2 -76.3,61.4 l -33.2,80.8 c -24.6,59.8 12.1,127 75.7,138.6 l 25,4.6 c 34.7,6.4 70.3,-5.7 93.9,-32 l 40.5,-45 c 26.8,-29.7 68.6,-41 106.7,-28.7 l 306.2,98.8 c 33.2,10.7 69.5,3.6 96.3,-18.7 z"
         style="fill:none;stroke:#f9a72d;stroke-width:50;stroke-linecap:butt;stroke-linejoin:round;stroke-miterlimit:10;stroke-dasharray:none;stroke-opacity:1"
         id="path116" />
      <path
         d="m 18985.5,15428.1 384.4,69.7 c 40.7,7.4 74.2,36.2 87.4,75.4 l 34.1,100.6 c 12.1,35.8 5.6,75.2 -17.2,105.3 l -287.5,377.6 c -15,19.8 -23.2,44 -23.2,68.8 v 130.2 c 0,68 -59.3,120.7 -126.8,112.9 l -49.3,-5.8 c -50.8,-5.9 -91.4,-45.1 -99.1,-95.7 l -35.4,-230.7 c -5.8,-38.3 8.3,-77 37.5,-102.6 l 90.7,-79.6 c 63.5,-55.6 46.3,-158.6 -31.9,-190.6 v 0 c -34.2,-14 -59.5,-43.8 -67.8,-79.9 l -26.9,-118.5 c -18.1,-79.5 50.8,-151.6 131,-137.1"
         style="fill:#f9a72d;fill-opacity:1;fill-rule:nonzero;stroke:none"
         id="path118" />
      <path
         d="m 18985.5,15428.1 384.4,69.7 c 40.7,7.4 74.2,36.2 87.4,75.4 l 34.1,100.6 c 12.1,35.8 5.6,75.2 -17.2,105.3 l -287.5,377.6 c -15,19.8 -23.2,44 -23.2,68.8 v 130.2 c 0,68 -59.3,120.7 -126.8,112.9 l -49.3,-5.8 c -50.8,-5.9 -91.4,-45.1 -99.1,-95.7 l -35.4,-230.7 c -5.8,-38.3 8.3,-77 37.5,-102.6 l 90.7,-79.6 c 63.5,-55.6 46.3,-158.6 -31.9,-190.6 v 0 c -34.2,-14 -59.5,-43.8 -67.8,-79.9 l -26.9,-118.5 c -18.1,-79.5 50.8,-151.6 131,-137.1 z"
         style="fill:none;stroke:#f9a72d;stroke-width:50;stroke-linecap:butt;stroke-linejoin:round;stroke-miterlimit:10;stroke-dasharray:none;stroke-opacity:1"
         id="path120" />
      <path
         d="m 18779.1,16011.4 26.3,-47.4 c 10.1,-18.1 11,-39.8 2.6,-58.7 l -90.4,-203 c -8.6,-19.4 -26,-33.4 -46.7,-37.7 l -225.5,-46.6 c -43.3,-9 -82.9,26.4 -78.8,70.4 l 20,215.4 c 2.5,26.6 20.8,49.1 46.4,56.8 l 269.5,81.8 c 29.6,9 61.5,-3.9 76.6,-31"
         style="fill:#f9a72d;fill-opacity:1;fill-rule:nonzero;stroke:none"
         id="path122" />
      <path
         d="m 18779.1,16011.4 26.3,-47.4 c 10.1,-18.1 11,-39.8 2.6,-58.7 l -90.4,-203 c -8.6,-19.4 -26,-33.4 -46.7,-37.7 l -225.5,-46.6 c -43.3,-9 -82.9,26.4 -78.8,70.4 l 20,215.4 c 2.5,26.6 20.8,49.1 46.4,56.8 l 269.5,81.8 c 29.6,9 61.5,-3.9 76.6,-31 z"
         style="fill:none;stroke:#f9a72d;stroke-width:50;stroke-linecap:butt;stroke-linejoin:round;stroke-miterlimit:10;stroke-dasharray:none;stroke-opacity:1"
         id="path124" />
      <path
         d="m 20257.3,13944 45.6,21.9 c 13.2,6.3 21.9,19.4 22.7,34 l 8.4,158.6 c 1.2,23 -17.1,42.3 -40.1,42.3 h -64.8 c -23.1,0 -41.5,-19.5 -40.1,-42.5 l 10.9,-180.5 c 1.7,-28.4 31.7,-46.1 57.4,-33.8"
         style="fill:#f9a72d;fill-opacity:1;fill-rule:nonzero;stroke:none"
         id="path126" />
      <path
         d="m 20257.3,13944 45.6,21.9 c 13.2,6.3 21.9,19.4 22.7,34 l 8.4,158.6 c 1.2,23 -17.1,42.3 -40.1,42.3 h -64.8 c -23.1,0 -41.5,-19.5 -40.1,-42.5 l 10.9,-180.5 c 1.7,-28.4 31.7,-46.1 57.4,-33.8 z"
         style="fill:none;stroke:#f9a72d;stroke-width:50;stroke-linecap:butt;stroke-linejoin:round;stroke-miterlimit:10;stroke-dasharray:none;stroke-opacity:1"
         id="path128" />
      <path
         d="m 20903.7,13825.6 -224.9,-15.3 c -23.2,-1.6 -42.3,-18.9 -46.1,-41.8 v 0 c -4.1,-24.5 10.4,-48.3 34,-56 l 214.2,-69.8 c 30,-9.8 61.5,10.2 65.4,41.5 l 10.6,85.2 c 3.8,31.3 -21.8,58.4 -53.2,56.2"
         style="fill:#f9a72d;fill-opacity:1;fill-rule:nonzero;stroke:none"
         id="path130" />
      <path
         d="m 20903.7,13825.6 -224.9,-15.3 c -23.2,-1.6 -42.3,-18.9 -46.1,-41.8 v 0 c -4.1,-24.5 10.4,-48.3 34,-56 l 214.2,-69.8 c 30,-9.8 61.5,10.2 65.4,41.5 l 10.6,85.2 c 3.8,31.3 -21.8,58.4 -53.2,56.2 z"
         style="fill:none;stroke:#f9a72d;stroke-width:50;stroke-linecap:butt;stroke-linejoin:round;stroke-miterlimit:10;stroke-dasharray:none;stroke-opacity:1"
         id="path132" />
      <path
         d="m 23040.3,13407.4 -68.5,-74.9 c -5,-5.6 -12.1,-8.7 -19.6,-8.7 h -80.9 c -12.9,0 -23.9,9.2 -26.2,21.9 l -6.9,38.7 c -2.5,14 6.3,27.4 20.1,30.6 l 156.3,36.3 c 25.5,5.9 43.3,-24.6 25.7,-43.9"
         style="fill:#f9a72d;fill-opacity:1;fill-rule:nonzero;stroke:none"
         id="path134" />
      <path
         d="m 23040.3,13407.4 -68.5,-74.9 c -5,-5.6 -12.1,-8.7 -19.6,-8.7 h -80.9 c -12.9,0 -23.9,9.2 -26.2,21.9 l -6.9,38.7 c -2.5,14 6.3,27.4 20.1,30.6 l 156.3,36.3 c 25.5,5.9 43.3,-24.6 25.7,-43.9 z"
         style="fill:none;stroke:#f9a72d;stroke-width:50;stroke-linecap:butt;stroke-linejoin:round;stroke-miterlimit:10;stroke-dasharray:none;stroke-opacity:1"
         id="path136" />
      <path
         d="m 21942.3,13473.9 215.6,-45.4 c 10.7,-2.2 18.4,-11.7 18.4,-22.6 v -21.1 c 0,-12.8 -10.4,-23.1 -23.1,-23.1 H 21984 c -7.5,0 -14.6,3.7 -18.9,9.8 l -46.5,66.6 c -11.9,17.1 3.2,40.1 23.7,35.8"
         style="fill:#f9a72d;fill-opacity:1;fill-rule:nonzero;stroke:none"
         id="path138" />
      <path
         d="m 21942.3,13473.9 215.6,-45.4 c 10.7,-2.2 18.4,-11.7 18.4,-22.6 v -21.1 c 0,-12.8 -10.4,-23.1 -23.1,-23.1 H 21984 c -7.5,0 -14.6,3.7 -18.9,9.8 l -46.5,66.6 c -11.9,17.1 3.2,40.1 23.7,35.8 z"
         style="fill:none;stroke:#f9a72d;stroke-width:50;stroke-linecap:butt;stroke-linejoin:round;stroke-miterlimit:10;stroke-dasharray:none;stroke-opacity:1"
         id="path140" />
      <path
         d="m 15323.7,16765.3 621,631.6 c 17.9,18.1 40.3,31.2 64.9,37.8 l 1479.4,397.5 c 23.2,6.2 44.4,18.2 61.8,34.8 l 948.8,908.6 c 89,85.3 35.5,235.8 -87.4,245.7 l -1819.6,146.6 c -12,0.9 -24,0.4 -35.8,-1.6 l -2163.6,-373.8 c -76.2,-13.2 -128.1,-84.6 -117.1,-161.2 v 0 c 9.3,-64.9 61.7,-115.2 126.9,-121.9 l 489.3,-50.1 c 66.9,-6.8 120,-59.4 127.5,-126.2 l 69.3,-614.8 c 6,-52.9 -17.9,-104.7 -62,-134.4 l -237.4,-160.3 c -50.3,-34 -73.7,-96.2 -58.2,-154.9 l 100.3,-380.5 c 13.5,-51.2 54.1,-90.7 105.6,-102.8 l 251.7,-59 c 48.6,-11.4 99.6,3.4 134.6,38.9"
         style="fill:#f9a72d;fill-opacity:1;fill-rule:nonzero;stroke:none"
         id="path142" />
      <path
         d="m 15323.7,16765.3 621,631.6 c 17.9,18.1 40.3,31.2 64.9,37.8 l 1479.4,397.5 c 23.2,6.2 44.4,18.2 61.8,34.8 l 948.8,908.6 c 89,85.3 35.5,235.8 -87.4,245.7 l -1819.6,146.6 c -12,0.9 -24,0.4 -35.8,-1.6 l -2163.6,-373.8 c -76.2,-13.2 -128.1,-84.6 -117.1,-161.2 v 0 c 9.3,-64.9 61.7,-115.2 126.9,-121.9 l 489.3,-50.1 c 66.9,-6.8 120,-59.4 127.5,-126.2 l 69.3,-614.8 c 6,-52.9 -17.9,-104.7 -62,-134.4 l -237.4,-160.3 c -50.3,-34 -73.7,-96.2 -58.2,-154.9 l 100.3,-380.5 c 13.5,-51.2 54.1,-90.7 105.6,-102.8 l 251.7,-59 c 48.6,-11.4 99.6,3.4 134.6,38.9 z"
         style="fill:none;stroke:#f9a72d;stroke-width:50;stroke-linecap:butt;stroke-linejoin:round;stroke-miterlimit:10;stroke-dasharray:none;stroke-opacity:1"
         id="path144" />
      <path
         d="m 12774.2,18531.9 645.7,-22.5 c 9.3,-0.3 18.6,1.7 26.9,6 l 637.6,327.1 c 4.5,2.3 9.3,3.9 14.2,4.9 l 937.1,188.7 c 40,8 57.5,55.3 32.5,87.5 v 0 c -10.7,13.8 -27.4,21.6 -44.8,21.1 l -1888.7,-53.4 c -6.8,-0.2 -13.6,-1.6 -19.9,-4.3 l -544.9,-230.8 c -34,-14.4 -44.4,-57.6 -20.5,-85.9 l 184.8,-219 c 10,-11.8 24.5,-18.9 40,-19.4"
         style="fill:#f9a72d;fill-opacity:1;fill-rule:nonzero;stroke:none"
         id="path146" />
      <path
         d="m 12774.2,18531.9 645.7,-22.5 c 9.3,-0.3 18.6,1.7 26.9,6 l 637.6,327.1 c 4.5,2.3 9.3,3.9 14.2,4.9 l 937.1,188.7 c 40,8 57.5,55.3 32.5,87.5 v 0 c -10.7,13.8 -27.4,21.6 -44.8,21.1 l -1888.7,-53.4 c -6.8,-0.2 -13.6,-1.6 -19.9,-4.3 l -544.9,-230.8 c -34,-14.4 -44.4,-57.6 -20.5,-85.9 l 184.8,-219 c 10,-11.8 24.5,-18.9 40,-19.4 z"
         style="fill:none;stroke:#f9a72d;stroke-width:50;stroke-linecap:butt;stroke-linejoin:round;stroke-miterlimit:10;stroke-dasharray:none;stroke-opacity:1"
         id="path148" />
      <path
         d="m 12145.5,18514.3 39.3,-117.9 c 8.2,-24.6 30.5,-41.7 56.4,-43.2 l 782.1,-46.2 c 24.3,-1.4 47.3,11.2 59.1,32.4 v 0 c 22.6,40.7 -5,91.1 -51.4,94 l -481.1,29.5 c -17.9,1.1 -34.5,9.8 -45.6,23.8 l -80.6,101.2 c -13.1,16.6 -33.7,25.5 -54.8,23.7 l -168.6,-14.2 c -40.9,-3.5 -67.7,-44.2 -54.8,-83.1"
         style="fill:#f9a72d;fill-opacity:1;fill-rule:nonzero;stroke:none"
         id="path150" />
      <path
         d="m 12145.5,18514.3 39.3,-117.9 c 8.2,-24.6 30.5,-41.7 56.4,-43.2 l 782.1,-46.2 c 24.3,-1.4 47.3,11.2 59.1,32.4 v 0 c 22.6,40.7 -5,91.1 -51.4,94 l -481.1,29.5 c -17.9,1.1 -34.5,9.8 -45.6,23.8 l -80.6,101.2 c -13.1,16.6 -33.7,25.5 -54.8,23.7 l -168.6,-14.2 c -40.9,-3.5 -67.7,-44.2 -54.8,-83.1 z"
         style="fill:none;stroke:#f9a72d;stroke-width:50;stroke-linecap:butt;stroke-linejoin:round;stroke-miterlimit:10;stroke-dasharray:none;stroke-opacity:1"
         id="path152" />
      <path
         d="m 12421.4,18240.6 710.6,-46.6 c 17.3,-1.1 34.1,-6.6 48.7,-15.9 l 464.5,-295.8 c 29.7,-19 47.7,-51.7 47.7,-87 v -104.1 c 0,-37.4 20.2,-71.9 52.9,-90.1 l 103,-57.3 c 66.4,-37 71.3,-130.8 9,-174.4 l -44.5,-31.3 c -30.3,-21.2 -69.6,-24.6 -103,-8.9 l -168.7,79.3 c -36.5,17.1 -79.5,11.4 -110.3,-14.5 v 0 c -34.7,-29.3 -46.2,-77.9 -28.2,-119.6 l 38.7,-89.8 c 16,-37.2 8.7,-80.5 -18.7,-110.4 l -102.9,-112.3 c -24.4,-26.5 -60.8,-38.5 -96.2,-31.4 l -340.5,68.1 c -7.4,1.5 -14.5,3.8 -21.4,6.8 l -272.7,120.3 c -81.5,36 -82.1,151.4 -1,188.2 l 429.5,195 c 39.4,17.9 63.4,58.5 60.2,101.6 l -3.9,51.9 c -2.7,35.3 -23.3,66.8 -54.6,83.3 l -217.1,114.9 c -14.4,7.7 -30.5,11.8 -46.9,12 l -519.8,6.5 c -94.5,1.2 -137.7,118.3 -66.6,180.6 l 177.5,155.6 c 20.6,18 47.4,27.1 74.7,25.3"
         style="fill:#f9a72d;fill-opacity:1;fill-rule:nonzero;stroke:none"
         id="path154" />
      <path
         d="m 12421.4,18240.6 710.6,-46.6 c 17.3,-1.1 34.1,-6.6 48.7,-15.9 l 464.5,-295.8 c 29.7,-19 47.7,-51.7 47.7,-87 v -104.1 c 0,-37.4 20.2,-71.9 52.9,-90.1 l 103,-57.3 c 66.4,-37 71.3,-130.8 9,-174.4 l -44.5,-31.3 c -30.3,-21.2 -69.6,-24.6 -103,-8.9 l -168.7,79.3 c -36.5,17.1 -79.5,11.4 -110.3,-14.5 v 0 c -34.7,-29.3 -46.2,-77.9 -28.2,-119.6 l 38.7,-89.8 c 16,-37.2 8.7,-80.5 -18.7,-110.4 l -102.9,-112.3 c -24.4,-26.5 -60.8,-38.5 -96.2,-31.4 l -340.5,68.1 c -7.4,1.5 -14.5,3.8 -21.4,6.8 l -272.7,120.3 c -81.5,36 -82.1,151.4 -1,188.2 l 429.5,195 c 39.4,17.9 63.4,58.5 60.2,101.6 l -3.9,51.9 c -2.7,35.3 -23.3,66.8 -54.6,83.3 l -217.1,114.9 c -14.4,7.7 -30.5,11.8 -46.9,12 l -519.8,6.5 c -94.5,1.2 -137.7,118.3 -66.6,180.6 l 177.5,155.6 c 20.6,18 47.4,27.1 74.7,25.3 z"
         style="fill:none;stroke:#f9a72d;stroke-width:50;stroke-linecap:butt;stroke-linejoin:round;stroke-miterlimit:10;stroke-dasharray:none;stroke-opacity:1"
         id="path156" />
      <path
         d="m 11591.6,18415.8 395,-75.5 c 17.8,-3.4 35.6,6 42.8,22.7 l 27.2,63.5 c 8,18.6 0.2,40.3 -17.8,49.6 l -175.9,91 c -9.2,4.7 -19.8,5.6 -29.6,2.4 l -246.2,-79 c -38.2,-12.2 -34.8,-67.2 4.5,-74.7"
         style="fill:#f9a72d;fill-opacity:1;fill-rule:nonzero;stroke:none"
         id="path158" />
      <path
         d="m 11591.6,18415.8 395,-75.5 c 17.8,-3.4 35.6,6 42.8,22.7 l 27.2,63.5 c 8,18.6 0.2,40.3 -17.8,49.6 l -175.9,91 c -9.2,4.7 -19.8,5.6 -29.6,2.4 l -246.2,-79 c -38.2,-12.2 -34.8,-67.2 4.5,-74.7 z"
         style="fill:none;stroke:#f9a72d;stroke-width:50;stroke-linecap:butt;stroke-linejoin:round;stroke-miterlimit:10;stroke-dasharray:none;stroke-opacity:1"
         id="path160" />
      <path
         d="m 11824.3,18674 106,-16.3 c 40.3,-6.2 76.6,25 76.6,65.8 v 0 c 0,29.6 -19.7,55.7 -48.2,63.9 l -96.4,27.7 c -25.4,7.3 -52.7,-1.2 -69.5,-21.5 l -9.5,-11.3 c -33,-39.8 -10.1,-100.4 41,-108.3"
         style="fill:#f9a72d;fill-opacity:1;fill-rule:nonzero;stroke:none"
         id="path162" />
      <path
         d="m 11824.3,18674 106,-16.3 c 40.3,-6.2 76.6,25 76.6,65.8 v 0 c 0,29.6 -19.7,55.7 -48.2,63.9 l -96.4,27.7 c -25.4,7.3 -52.7,-1.2 -69.5,-21.5 l -9.5,-11.3 c -33,-39.8 -10.1,-100.4 41,-108.3 z"
         style="fill:none;stroke:#f9a72d;stroke-width:50;stroke-linecap:butt;stroke-linejoin:round;stroke-miterlimit:10;stroke-dasharray:none;stroke-opacity:1"
         id="path164" />
      <path
         d="m 11226.9,18012.2 232.8,49.5 c 21.4,4.5 39.4,18.9 48.6,38.8 l 25.8,55.5 c 23.7,51.3 -20.3,108 -75.8,97.7 l -279.7,-51.9 c -43.1,-8 -68.1,-53.4 -51.9,-94.1 l 21.1,-53.1 c 12.5,-31.6 45.9,-49.5 79.1,-42.4"
         style="fill:#f9a72d;fill-opacity:1;fill-rule:nonzero;stroke:none"
         id="path166" />
      <path
         d="m 11226.9,18012.2 232.8,49.5 c 21.4,4.5 39.4,18.9 48.6,38.8 l 25.8,55.5 c 23.7,51.3 -20.3,108 -75.8,97.7 l -279.7,-51.9 c -43.1,-8 -68.1,-53.4 -51.9,-94.1 l 21.1,-53.1 c 12.5,-31.6 45.9,-49.5 79.1,-42.4 z"
         style="fill:none;stroke:#f9a72d;stroke-width:50;stroke-linecap:butt;stroke-linejoin:round;stroke-miterlimit:10;stroke-dasharray:none;stroke-opacity:1"
         id="path168" />
      <path
         d="m 12778,17650.5 -95.2,-54.5 c -12.2,-7 -19.7,-20 -19.7,-34.1 v 0 c 0,-24.5 22.1,-43.1 46.2,-38.7 l 119.3,21.4 c 28.5,5.2 41.9,38.4 24.8,61.8 l -24.1,33.1 c -11.8,16.3 -33.9,21 -51.3,11"
         style="fill:#f9a72d;fill-opacity:1;fill-rule:nonzero;stroke:none"
         id="path170" />
      <path
         d="m 12778,17650.5 -95.2,-54.5 c -12.2,-7 -19.7,-20 -19.7,-34.1 v 0 c 0,-24.5 22.1,-43.1 46.2,-38.7 l 119.3,21.4 c 28.5,5.2 41.9,38.4 24.8,61.8 l -24.1,33.1 c -11.8,16.3 -33.9,21 -51.3,11 z"
         style="fill:none;stroke:#f9a72d;stroke-width:50;stroke-linecap:butt;stroke-linejoin:round;stroke-miterlimit:10;stroke-dasharray:none;stroke-opacity:1"
         id="path172" />
      <path
         d="m 11833.1,17310.8 169.6,-124 c 34.5,-25.3 36.1,-76.3 3.1,-103.6 v 0 c -15.4,-12.8 -35.9,-17.8 -55.5,-13.7 l -120.6,25.6 c -11,2.4 -22.5,1.8 -33.3,-1.5 l -136.7,-42.9 c -33,-10.3 -68.4,6.8 -80.9,39.1 l -10.6,27.6 c -10.8,28.1 -1.2,59.8 23.3,77.2 l 164.9,116.8 c 23.1,16.3 53.9,16 76.7,-0.6"
         style="fill:#f9a72d;fill-opacity:1;fill-rule:nonzero;stroke:none"
         id="path174" />
      <path
         d="m 11833.1,17310.8 169.6,-124 c 34.5,-25.3 36.1,-76.3 3.1,-103.6 v 0 c -15.4,-12.8 -35.9,-17.8 -55.5,-13.7 l -120.6,25.6 c -11,2.4 -22.5,1.8 -33.3,-1.5 l -136.7,-42.9 c -33,-10.3 -68.4,6.8 -80.9,39.1 l -10.6,27.6 c -10.8,28.1 -1.2,59.8 23.3,77.2 l 164.9,116.8 c 23.1,16.3 53.9,16 76.7,-0.6 z"
         style="fill:none;stroke:#f9a72d;stroke-width:50;stroke-linecap:butt;stroke-linejoin:round;stroke-miterlimit:10;stroke-dasharray:none;stroke-opacity:1"
         id="path176" />
      <path
         d="m 10971.2,17702.8 138.7,-39.2 c 9.2,-2.6 19.1,-1.3 27.3,3.6 l 36.3,21.9 c 18.7,11.1 22.5,36.5 8.1,52.7 l -67.9,76 c -10.7,12 -28.3,15 -42.4,7.3 l -107.3,-58.5 c -27.3,-14.9 -22.7,-55.3 7.2,-63.8"
         style="fill:#f9a72d;fill-opacity:1;fill-rule:nonzero;stroke:none"
         id="path178" />
      <path
         d="m 10971.2,17702.8 138.7,-39.2 c 9.2,-2.6 19.1,-1.3 27.3,3.6 l 36.3,21.9 c 18.7,11.1 22.5,36.5 8.1,52.7 l -67.9,76 c -10.7,12 -28.3,15 -42.4,7.3 l -107.3,-58.5 c -27.3,-14.9 -22.7,-55.3 7.2,-63.8 z"
         style="fill:none;stroke:#f9a72d;stroke-width:50;stroke-linecap:butt;stroke-linejoin:round;stroke-miterlimit:10;stroke-dasharray:none;stroke-opacity:1"
         id="path180" />
      <path
         d="m 11202.6,18675.3 -117.4,-57.2 c -5,-2.4 -10.6,-3.4 -16.1,-2.9 l -98.2,8.4 c -28.2,2.4 -38.4,38.6 -15.5,55.4 l 84.5,62.1 c 6.2,4.5 13.7,6.5 21.3,5.8 l 131,-13.4 c 30.8,-3.2 38.2,-44.7 10.4,-58.2"
         style="fill:#f9a72d;fill-opacity:1;fill-rule:nonzero;stroke:none"
         id="path182" />
      <path
         d="m 11202.6,18675.3 -117.4,-57.2 c -5,-2.4 -10.6,-3.4 -16.1,-2.9 l -98.2,8.4 c -28.2,2.4 -38.4,38.6 -15.5,55.4 l 84.5,62.1 c 6.2,4.5 13.7,6.5 21.3,5.8 l 131,-13.4 c 30.8,-3.2 38.2,-44.7 10.4,-58.2 z"
         style="fill:none;stroke:#f9a72d;stroke-width:50;stroke-linecap:butt;stroke-linejoin:round;stroke-miterlimit:10;stroke-dasharray:none;stroke-opacity:1"
         id="path184" />
      <path
         d="m 10549,18574.4 -449.3,-120 -165.99,76.6 520.89,114.9 94.4,-71.5"
         style="fill:#f9a72d;fill-opacity:1;fill-rule:nonzero;stroke:none"
         id="path186" />
      <path
         d="m 10549,18574.4 -449.3,-120 -165.99,76.6 520.89,114.9 z"
         style="fill:none;stroke:#f9a72d;stroke-width:50;stroke-linecap:butt;stroke-linejoin:round;stroke-miterlimit:10;stroke-dasharray:none;stroke-opacity:1"
         id="path188" />
      <path
         d="m 10605.2,18525.9 -363.8,-125.1 181.9,-96.2 756.4,110.7 -85.1,134.9 -239.2,-95.8 -250.2,71.5"
         style="fill:#f9a72d;fill-opacity:1;fill-rule:nonzero;stroke:none"
         id="path190" />
      <path
         d="m 10605.2,18525.9 -363.8,-125.1 181.9,-96.2 756.4,110.7 -85.1,134.9 -239.2,-95.8 z"
         style="fill:none;stroke:#f9a72d;stroke-width:50;stroke-linecap:butt;stroke-linejoin:round;stroke-miterlimit:10;stroke-dasharray:none;stroke-opacity:1"
         id="path192" />
      <path
         d="m 9147.02,18017.4 54.4,-26.8 c 11.2,-5.5 24.04,-6.6 36.05,-3.2 l 777.83,220.2 c 27.8,7.9 43.4,37.5 34,64.9 v 0 c -6.6,19.4 -24.3,32.9 -44.8,34.1 l -458.82,26.9 c -10.02,0.6 -19.99,-1.8 -28.64,-6.9 l -373.4,-220.4 c -34.6,-20.4 -32.67,-71.1 3.38,-88.8"
         style="fill:#f9a72d;fill-opacity:1;fill-rule:nonzero;stroke:none"
         id="path194" />
      <path
         d="m 9147.02,18017.4 54.4,-26.8 c 11.2,-5.5 24.04,-6.6 36.05,-3.2 l 777.83,220.2 c 27.8,7.9 43.4,37.5 34,64.9 v 0 c -6.6,19.4 -24.3,32.9 -44.8,34.1 l -458.82,26.9 c -10.02,0.6 -19.99,-1.8 -28.64,-6.9 l -373.4,-220.4 c -34.6,-20.4 -32.67,-71.1 3.38,-88.8 z"
         style="fill:none;stroke:#f9a72d;stroke-width:50;stroke-linecap:butt;stroke-linejoin:round;stroke-miterlimit:10;stroke-dasharray:none;stroke-opacity:1"
         id="path196" />
      <path
         d="m 9651.21,17988.6 494.59,198.3 c 19.6,7.9 41.4,8 61.1,0.4 l 274.1,-105.2 c 29.3,-11.2 62.3,-5.2 85.7,15.5 l 68.7,61.2 c 19.6,17.3 46.1,24.6 71.8,19.6 v 0 c 52.5,-10.4 82,-66.6 60.7,-115.7 l -39.5,-90.7 c -11.2,-25.6 -8.8,-55.1 6.2,-78.6 l 6.8,-10.5 c 25.9,-40.5 12.6,-94.3 -29.2,-118 l -99.1,-56.4 c -19.8,-11.1 -43.2,-13.9 -64.9,-7.5 l -218.1,63.8 c -12.2,3.5 -25,4.3 -37.5,2.2 l -597.91,-101.2 c -23.38,-4 -47.34,2.1 -65.93,16.8 l -89.06,70.5 c -39.09,30.9 -42.68,88.9 -7.7,124.5 l 90.72,92 c 8.09,8.3 17.79,14.7 28.49,19"
         style="fill:#f9a72d;fill-opacity:1;fill-rule:nonzero;stroke:none"
         id="path198" />
      <path
         d="m 9651.21,17988.6 494.59,198.3 c 19.6,7.9 41.4,8 61.1,0.4 l 274.1,-105.2 c 29.3,-11.2 62.3,-5.2 85.7,15.5 l 68.7,61.2 c 19.6,17.3 46.1,24.6 71.8,19.6 v 0 c 52.5,-10.4 82,-66.6 60.7,-115.7 l -39.5,-90.7 c -11.2,-25.6 -8.8,-55.1 6.2,-78.6 l 6.8,-10.5 c 25.9,-40.5 12.6,-94.3 -29.2,-118 l -99.1,-56.4 c -19.8,-11.1 -43.2,-13.9 -64.9,-7.5 l -218.1,63.8 c -12.2,3.5 -25,4.3 -37.5,2.2 l -597.91,-101.2 c -23.38,-4 -47.34,2.1 -65.93,16.8 l -89.06,70.5 c -39.09,30.9 -42.68,88.9 -7.7,124.5 l 90.72,92 c 8.09,8.3 17.79,14.7 28.49,19 z"
         style="fill:none;stroke:#f9a72d;stroke-width:50;stroke-linecap:butt;stroke-linejoin:round;stroke-miterlimit:10;stroke-dasharray:none;stroke-opacity:1"
         id="path200" />
      <path
         d="m 11779.1,18275.9 194.6,-20 c 41.1,-4.2 50.5,-59.9 13.1,-77.3 l -261.1,-121.9 c -11.1,-5.2 -23.9,-5.1 -35,0.3 l -31.9,15.5 c -23.2,11.3 -30.2,41.1 -14.3,61.5 l 98.3,126.5 c 8.7,11 22.4,16.9 36.3,15.4"
         style="fill:#f9a72d;fill-opacity:1;fill-rule:nonzero;stroke:none"
         id="path202" />
      <path
         d="m 11779.1,18275.9 194.6,-20 c 41.1,-4.2 50.5,-59.9 13.1,-77.3 l -261.1,-121.9 c -11.1,-5.2 -23.9,-5.1 -35,0.3 l -31.9,15.5 c -23.2,11.3 -30.2,41.1 -14.3,61.5 l 98.3,126.5 c 8.7,11 22.4,16.9 36.3,15.4 z"
         style="fill:none;stroke:#f9a72d;stroke-width:50;stroke-linecap:butt;stroke-linejoin:round;stroke-miterlimit:10;stroke-dasharray:none;stroke-opacity:1"
         id="path204" />
      <path
         d="m 11675.6,17817.2 -21.6,-75.6 c -10.7,-37.7 4.1,-78.1 36.7,-100 l 57.2,-38.2 c 45.9,-30.7 105.4,-32.1 152.8,-3.8 l 241.8,144.8 c 49.8,29.8 112.2,28.4 160.5,-3.7 v 0 c 56.5,-37.4 59.6,-119.1 6.1,-160.7 l -169.9,-132 c -44.1,-34.2 -99.2,-51.2 -155,-47.8 l -101.2,6.3 c -92.5,5.7 -184.8,-14.9 -266.1,-59.5 l -1066.4,-584.9 c -78.7,-43.1 -129.4,-123.9 -134.1,-213.5 v 0 c -6.2,-119.2 61.8,-229.9 171,-278.1 l 418.6,-184.9 c 69.1,-30.5 102.9,-109.2 77.4,-180.4 l -28,-78 c -22.8,-63.6 -11.4,-134.4 30.1,-187.7 l 33,-42.3 c 25.6,-32.9 76.3,-29.5 97.3,6.6 l 155.3,266.8 c 41.5,71.2 105,127 181,158.9 v 0 c 178.3,74.8 319.2,217.8 391.4,397.1 l 138.2,343.5 c 32.1,79.8 105.3,135.6 190.8,145.5 l 122.1,14.2 c 88.2,10.2 177.3,-7.8 254.6,-51.5 l 49.2,-27.8 c 60.9,-34.4 85.5,-109.6 56.6,-173.3 l -18.9,-41.7 c -24.4,-53.7 -5.8,-117.1 43.7,-149.2 v 0 c 63,-40.9 143.7,-42.5 208.3,-4.2 l 192,114 c 55.9,33.3 128.2,4.2 145.5,-58.5 l 46.3,-167 c 15.2,-54.9 5.8,-113.6 -25.8,-160.9 v 0 c -25.8,-38.9 -14.5,-91.4 25.2,-116.1 l 228.6,-142.1 c 57.7,-35.9 85.1,-105.4 67.4,-171 v 0 c -19.9,-74 -71.6,-135.3 -141.1,-167.6 l -312.9,-145.2 c -118.7,-55.1 -249.3,-79.8 -379.9,-71.9 l -170.7,10.3 c -107.3,6.4 -199.1,-76.4 -203.6,-183.8 l -6.3,-151.5 c -3.5,-82.5 48.7,-157.1 127.4,-182.2 l 118.1,-37.6 c 45.2,-14.3 50.2,-76.2 8,-97.7 l -351.1,-178.8 c -51.5,-26.2 -114.4,-12.2 -149.9,33.3 v 0 c -41.2,52.9 -114.6,67.9 -173.3,35.6 l -1024.9,-565.1 c -131.4,-72.5 -213,-210.7 -213,-360.7 v 0 c 0,-145.9 -68.5,-283.3 -185,-371 l -522.4,-393.3 c -99.6,-75 -152.35,-197 -138.81,-320.9 l 37.34,-341.8 c 4.52,-41.4 -11.35,-82.3 -42.54,-109.8 l -56.14,-49.6 c -32.53,-28.7 -83.76,-15.6 -98.57,25.2 l -104.36,287.4 c -52.62,144.9 -183.6,246.9 -337,262.3 l -243.85,24.6 c -184.73,18.7 -371.21,-8.6 -542.85,-79.5 l -191.24,-78.9 c -254.72,-105.1 -444.18,-325.3 -510.19,-592.8 l -27.47,-111.3 c -39.63,-160.6 -18.18,-330.2 60.17,-475.8 v 0 c 72.18,-134.2 219.95,-209.7 370.99,-189.5 l 142.06,19 c 56.28,7.5 104.84,43.2 128.86,94.7 l 53.93,115.6 c 30.99,66.4 96.63,109.8 169.88,112.3 l 170.98,1.8 c 50.13,0.5 86.34,-47.9 71.79,-95.8 l -150.56,-496.7 c -24.57,-81.1 33.05,-163.8 117.59,-168.8 l 276.82,-1.5 c 65.13,-0.3 112.1,-62.5 94.62,-125.3 l -86.1,-309 c -30.73,-110.3 -2.38,-228.6 74.99,-313 l 94.89,-103.5 c 48.62,-53.1 124.36,-71.7 192.03,-47.2 l 110.88,40.1 c 60.9,22 128.77,12.4 181.19,-25.6 v 0 c 69.77,-50.7 167.57,-33.9 216.47,37.1 l 91.4,132.7 c 61.8,89.6 163.3,143.6 272.2,144.7 l 508.9,5.3 c 36.8,0.4 70.8,-19.2 89,-51.2 v 0 c 28.3,-49.7 77,-84.5 133.3,-95.1 l 535.6,-100.6 c 115.4,-21.7 221.1,-78.9 302.4,-163.6 l 188.2,-195.9 c 77.5,-80.8 174.7,-140.1 281.9,-172.1 l 137.1,1.7 c 204.8,2.5 388.9,-124.7 458.9,-317.3 l 42.5,-117.1 c 104.8,-288.2 333.6,-513.9 623.3,-614.7 l 860.7,-299.6 c 235.4,-81.9 365,-334.1 294.7,-573.2 l -492.6,-1675 c -44.6,-151.6 -160.3,-272.1 -309.9,-322.9 l -365,-123.8 c -145.1,-49.2 -230.6,-199 -199.3,-348.9 l 32.8,-156.9 c 12.7,-60.6 4.1,-123.6 -24.2,-178.6 l -540.8,-1051 c -56.4,-109.5 -160.6,-186.4 -281.9,-208 l -133.4,-23.6 c -92.1,-16.4 -168.3,-81 -199.4,-169.2 L 12224,2682.7 c -37.4,-106.1 13.5,-223 116.7,-267.7 v 0 c 116.2,-50.5 158.7,-193.7 88.8,-299.3 l -98.2,-148.5 c -52.8,-79.8 -38.8,-186.3 32.8,-249.9 l 350.4,-310.7 c 29.9,-26.5 20.7,-75.2 -16.7,-89 v 0 c -70.8,-26.1 -149.4,-20.8 -216.1,14.6 l -184.2,97.7 c -453.1,240.4 -782.6,662.1 -906.3,1159.8 l -236.9,952.7 c -22.2,89.2 -35.3,180.4 -39.1,272.3 l -84.2,2012.8 c -10.8,256.2 -154,488.4 -378.1,612.9 l -91,50.6 c -244.7,135.9 -443.1,341.9 -569.68,591.6 l -361.19,712.2 c -106.01,209 -100.67,457.2 14.23,661.5 l 260.03,462.2 c 69.65,123.8 95.31,267.6 72.69,407.9 l -30.81,191.4 c -19,118 -121.31,204.4 -240.84,203.5 l -141.72,-1.1 c -84.73,-0.7 -167.43,25.9 -235.88,75.8 l -168.24,122.7 c -92.77,67.7 -165.81,158.9 -211.6,264.2 l -22.53,51.8 c -49.39,113.6 -145.61,200.3 -263.76,237.5 l -159.03,50.1 c -99.59,31.4 -189.25,88.2 -260.07,165 l -99.19,107.4 c -47.9,51.9 -121.75,70.9 -188.74,48.6 v 0 c -92.79,-30.9 -194.19,-22.6 -280.69,23 l -674.87,356.1 c -66.65,35.2 -102.4,109.9 -87.99,183.9 v 0 c 17.29,88.7 2.06,180.6 -42.88,259.1 l -400.73,699.2 c -48.51,84.7 -80.51,177.7 -94.31,274.3 l -25.27,176.9 c -4.59,32.1 -26.64,59 -57.22,69.8 l -39.09,13.8 c -44.69,15.8 -92.98,-11.8 -102.14,-58.3 v 0 c -10.35,-52.5 -6.38,-106.9 11.51,-157.4 l 291.13,-821.9 c 7.91,-22.4 -0.36,-47.2 -20.08,-60.4 v 0 c -27.5,-18.3 -64.78,-9.7 -81.43,18.9 l -214.15,367.1 c -85.64,146.8 -133.58,312.5 -139.56,482.4 l -7.46,212.3 c -4.16,118.3 -47.45,232 -123.1,323.1 l -115.35,139 c -51.6,62.2 -81.84,139.3 -86.25,220 l -16.62,303.6 c -9.02,164.9 44.22,327.2 149.19,454.7 l 666.75,809.8 c 65.19,79.1 80.59,188.1 39.88,282.3 l -135.07,312.3 c -46.74,108.2 -69.41,225.1 -66.43,342.8 l 4.1,162.1 c 3.03,119.8 -64.89,230.1 -173.23,281.4 l -479.97,226.9 c -99.37,47 -213.52,51.8 -316.5,13.4 l -778.5,-290.6 -902.88,-354 c -26.9,-10.5 -57.38,-5.8 -79.87,12.3 v 0 c -30.99,25 -23.66,74.1 13.26,88.9 l 361.8,145.6 c 75.07,30.2 91.19,129.3 29.56,181.7 l -84.08,71.5 c -43.2,36.8 -50.89,100.5 -17.66,146.5 l 62.14,86 c 53.53,74 133.02,125.2 222.61,143.2 l 390.72,78.6 c 38.46,7.7 69.75,35.6 81.83,72.9 v 0 c 9.02,27.9 -10.9,56.8 -40.16,58.2 l -121.72,6 c -50.35,2.5 -86.52,49.5 -76.09,98.8 v 0 c 10.54,49.8 51.17,87.7 101.61,94.6 l 365.55,50.7 c 68.24,9.4 121.77,63.3 130.81,131.6 v 0 c 9.13,68.9 61.97,124 130.5,135.9 l 1066.49,185.8 c 118.14,20.6 238.8,22.1 357.42,4.5 l 727.98,-107.9 c 62.37,-9.2 125.52,-12 188.46,-8.2 l 1215.39,72.5 c 75.92,4.6 152.08,-3.2 225.54,-22.9 l 431.43,-115.9 c 31.86,-8.5 54.61,-36.6 56.39,-69.5 v 0 c 2.2,-40.7 33.78,-73.7 74.33,-77.6 l 462.99,-45 c 35.78,-3.4 71.81,-4.3 107.71,-2.6 l 1151.6,55.9 c 47.5,2.3 90.8,28.2 115.2,69.1 l 33.4,55.9 c 17.6,29.5 7.1,67.6 -23,84 v 0 c -34.5,18.7 -39,66.6 -8.5,91.4 l 28.5,23.2 c 38.2,31 88.9,42.1 136.6,29.6 l 157.1,-41 c 33.3,-8.6 52.9,-43 43.4,-76"
         style="fill:#f9a72d;fill-opacity:1;fill-rule:nonzero;stroke:none"
         id="path206" />
      <path
         d="m 11675.6,17817.2 -21.6,-75.6 c -10.7,-37.7 4.1,-78.1 36.7,-100 l 57.2,-38.2 c 45.9,-30.7 105.4,-32.1 152.8,-3.8 l 241.8,144.8 c 49.8,29.8 112.2,28.4 160.5,-3.7 v 0 c 56.5,-37.4 59.6,-119.1 6.1,-160.7 l -169.9,-132 c -44.1,-34.2 -99.2,-51.2 -155,-47.8 l -101.2,6.3 c -92.5,5.7 -184.8,-14.9 -266.1,-59.5 l -1066.4,-584.9 c -78.7,-43.1 -129.4,-123.9 -134.1,-213.5 v 0 c -6.2,-119.2 61.8,-229.9 171,-278.1 l 418.6,-184.9 c 69.1,-30.5 102.9,-109.2 77.4,-180.4 l -28,-78 c -22.8,-63.6 -11.4,-134.4 30.1,-187.7 l 33,-42.3 c 25.6,-32.9 76.3,-29.5 97.3,6.6 l 155.3,266.8 c 41.5,71.2 105,127 181,158.9 v 0 c 178.3,74.8 319.2,217.8 391.4,397.1 l 138.2,343.5 c 32.1,79.8 105.3,135.6 190.8,145.5 l 122.1,14.2 c 88.2,10.2 177.3,-7.8 254.6,-51.5 l 49.2,-27.8 c 60.9,-34.4 85.5,-109.6 56.6,-173.3 l -18.9,-41.7 c -24.4,-53.7 -5.8,-117.1 43.7,-149.2 v 0 c 63,-40.9 143.7,-42.5 208.3,-4.2 l 192,114 c 55.9,33.3 128.2,4.2 145.5,-58.5 l 46.3,-167 c 15.2,-54.9 5.8,-113.6 -25.8,-160.9 v 0 c -25.8,-38.9 -14.5,-91.4 25.2,-116.1 l 228.6,-142.1 c 57.7,-35.9 85.1,-105.4 67.4,-171 v 0 c -19.9,-74 -71.6,-135.3 -141.1,-167.6 l -312.9,-145.2 c -118.7,-55.1 -249.3,-79.8 -379.9,-71.9 l -170.7,10.3 c -107.3,6.4 -199.1,-76.4 -203.6,-183.8 l -6.3,-151.5 c -3.5,-82.5 48.7,-157.1 127.4,-182.2 l 118.1,-37.6 c 45.2,-14.3 50.2,-76.2 8,-97.7 l -351.1,-178.8 c -51.5,-26.2 -114.4,-12.2 -149.9,33.3 v 0 c -41.2,52.9 -114.6,67.9 -173.3,35.6 l -1024.9,-565.1 c -131.4,-72.5 -213,-210.7 -213,-360.7 v 0 c 0,-145.9 -68.5,-283.3 -185,-371 l -522.4,-393.3 c -99.6,-75 -152.35,-197 -138.81,-320.9 l 37.34,-341.8 c 4.52,-41.4 -11.35,-82.3 -42.54,-109.8 l -56.14,-49.6 c -32.53,-28.7 -83.76,-15.6 -98.57,25.2 l -104.36,287.4 c -52.62,144.9 -183.6,246.9 -337,262.3 l -243.85,24.6 c -184.73,18.7 -371.21,-8.6 -542.85,-79.5 l -191.24,-78.9 c -254.72,-105.1 -444.18,-325.3 -510.19,-592.8 l -27.47,-111.3 c -39.63,-160.6 -18.18,-330.2 60.17,-475.8 v 0 c 72.18,-134.2 219.95,-209.7 370.99,-189.5 l 142.06,19 c 56.28,7.5 104.84,43.2 128.86,94.7 l 53.93,115.6 c 30.99,66.4 96.63,109.8 169.88,112.3 l 170.98,1.8 c 50.13,0.5 86.34,-47.9 71.79,-95.8 l -150.56,-496.7 c -24.57,-81.1 33.05,-163.8 117.59,-168.8 l 276.82,-1.5 c 65.13,-0.3 112.1,-62.5 94.62,-125.3 l -86.1,-309 c -30.73,-110.3 -2.38,-228.6 74.99,-313 l 94.89,-103.5 c 48.62,-53.1 124.36,-71.7 192.03,-47.2 l 110.88,40.1 c 60.9,22 128.77,12.4 181.19,-25.6 v 0 c 69.77,-50.7 167.57,-33.9 216.47,37.1 l 91.4,132.7 c 61.8,89.6 163.3,143.6 272.2,144.7 l 508.9,5.3 c 36.8,0.4 70.8,-19.2 89,-51.2 v 0 c 28.3,-49.7 77,-84.5 133.3,-95.1 l 535.6,-100.6 c 115.4,-21.7 221.1,-78.9 302.4,-163.6 l 188.2,-195.9 c 77.5,-80.8 174.7,-140.1 281.9,-172.1 l 137.1,1.7 c 204.8,2.5 388.9,-124.7 458.9,-317.3 l 42.5,-117.1 c 104.8,-288.2 333.6,-513.9 623.3,-614.7 l 860.7,-299.6 c 235.4,-81.9 365,-334.1 294.7,-573.2 l -492.6,-1675 c -44.6,-151.6 -160.3,-272.1 -309.9,-322.9 l -365,-123.8 c -145.1,-49.2 -230.6,-199 -199.3,-348.9 l 32.8,-156.9 c 12.7,-60.6 4.1,-123.6 -24.2,-178.6 l -540.8,-1051 c -56.4,-109.5 -160.6,-186.4 -281.9,-208 l -133.4,-23.6 c -92.1,-16.4 -168.3,-81 -199.4,-169.2 L 12224,2682.7 c -37.4,-106.1 13.5,-223 116.7,-267.7 v 0 c 116.2,-50.5 158.7,-193.7 88.8,-299.3 l -98.2,-148.5 c -52.8,-79.8 -38.8,-186.3 32.8,-249.9 l 350.4,-310.7 c 29.9,-26.5 20.7,-75.2 -16.7,-89 v 0 c -70.8,-26.1 -149.4,-20.8 -216.1,14.6 l -184.2,97.7 c -453.1,240.4 -782.6,662.1 -906.3,1159.8 l -236.9,952.7 c -22.2,89.2 -35.3,180.4 -39.1,272.3 l -84.2,2012.8 c -10.8,256.2 -154,488.4 -378.1,612.9 l -91,50.6 c -244.7,135.9 -443.1,341.9 -569.68,591.6 l -361.19,712.2 c -106.01,209 -100.67,457.2 14.23,661.5 l 260.03,462.2 c 69.65,123.8 95.31,267.6 72.69,407.9 l -30.81,191.4 c -19,118 -121.31,204.4 -240.84,203.5 l -141.72,-1.1 c -84.73,-0.7 -167.43,25.9 -235.88,75.8 l -168.24,122.7 c -92.77,67.7 -165.81,158.9 -211.6,264.2 l -22.53,51.8 c -49.39,113.6 -145.61,200.3 -263.76,237.5 l -159.03,50.1 c -99.59,31.4 -189.25,88.2 -260.07,165 l -99.19,107.4 c -47.9,51.9 -121.75,70.9 -188.74,48.6 v 0 c -92.79,-30.9 -194.19,-22.6 -280.69,23 l -674.87,356.1 c -66.65,35.2 -102.4,109.9 -87.99,183.9 v 0 c 17.29,88.7 2.06,180.6 -42.88,259.1 l -400.73,699.2 c -48.51,84.7 -80.51,177.7 -94.31,274.3 l -25.27,176.9 c -4.59,32.1 -26.64,59 -57.22,69.8 l -39.09,13.8 c -44.69,15.8 -92.98,-11.8 -102.14,-58.3 v 0 c -10.35,-52.5 -6.38,-106.9 11.51,-157.4 l 291.13,-821.9 c 7.91,-22.4 -0.36,-47.2 -20.08,-60.4 v 0 c -27.5,-18.3 -64.78,-9.7 -81.43,18.9 l -214.15,367.1 c -85.64,146.8 -133.58,312.5 -139.56,482.4 l -7.46,212.3 c -4.16,118.3 -47.45,232 -123.1,323.1 l -115.35,139 c -51.6,62.2 -81.84,139.3 -86.25,220 l -16.62,303.6 c -9.02,164.9 44.22,327.2 149.19,454.7 l 666.75,809.8 c 65.19,79.1 80.59,188.1 39.88,282.3 l -135.07,312.3 c -46.74,108.2 -69.41,225.1 -66.43,342.8 l 4.1,162.1 c 3.03,119.8 -64.89,230.1 -173.23,281.4 l -479.97,226.9 c -99.37,47 -213.52,51.8 -316.5,13.4 l -778.5,-290.6 -902.88,-354 c -26.9,-10.5 -57.38,-5.8 -79.87,12.3 v 0 c -30.99,25 -23.66,74.1 13.26,88.9 l 361.8,145.6 c 75.07,30.2 91.19,129.3 29.56,181.7 l -84.08,71.5 c -43.2,36.8 -50.89,100.5 -17.66,146.5 l 62.14,86 c 53.53,74 133.02,125.2 222.61,143.2 l 390.72,78.6 c 38.46,7.7 69.75,35.6 81.83,72.9 v 0 c 9.02,27.9 -10.9,56.8 -40.16,58.2 l -121.72,6 c -50.35,2.5 -86.52,49.5 -76.09,98.8 v 0 c 10.54,49.8 51.17,87.7 101.61,94.6 l 365.55,50.7 c 68.24,9.4 121.77,63.3 130.81,131.6 v 0 c 9.13,68.9 61.97,124 130.5,135.9 l 1066.49,185.8 c 118.14,20.6 238.8,22.1 357.42,4.5 l 727.98,-107.9 c 62.37,-9.2 125.52,-12 188.46,-8.2 l 1215.39,72.5 c 75.92,4.6 152.08,-3.2 225.54,-22.9 l 431.43,-115.9 c 31.86,-8.5 54.61,-36.6 56.39,-69.5 v 0 c 2.2,-40.7 33.78,-73.7 74.33,-77.6 l 462.99,-45 c 35.78,-3.4 71.81,-4.3 107.71,-2.6 l 1151.6,55.9 c 47.5,2.3 90.8,28.2 115.2,69.1 l 33.4,55.9 c 17.6,29.5 7.1,67.6 -23,84 v 0 c -34.5,18.7 -39,66.6 -8.5,91.4 l 28.5,23.2 c 38.2,31 88.9,42.1 136.6,29.6 l 157.1,-41 c 33.3,-8.6 52.9,-43 43.4,-76 z"
         style="fill:none;stroke:#f9a72d;stroke-width:50;stroke-linecap:butt;stroke-linejoin:round;stroke-miterlimit:10;stroke-dasharray:none;stroke-opacity:1"
         id="path208" />
      <path
         d="m 6323.24,15165.3 90.08,38.2 c 21.41,9.1 32.31,33 25.11,55.1 l -50.61,155.5 c -5.03,15.4 -18.04,27 -34,30.1 l -137.31,26.9 c -35.59,6.9 -64.29,-29 -49.59,-62.2 l 97.85,-220.5 c 9.92,-22.4 35.94,-32.7 58.47,-23.1"
         style="fill:#f9a72d;fill-opacity:1;fill-rule:nonzero;stroke:none"
         id="path210" />
      <path
         d="m 6323.24,15165.3 90.08,38.2 c 21.41,9.1 32.31,33 25.11,55.1 l -50.61,155.5 c -5.03,15.4 -18.04,27 -34,30.1 l -137.31,26.9 c -35.59,6.9 -64.29,-29 -49.59,-62.2 l 97.85,-220.5 c 9.92,-22.4 35.94,-32.7 58.47,-23.1 z"
         style="fill:none;stroke:#f9a72d;stroke-width:50;stroke-linecap:butt;stroke-linejoin:round;stroke-miterlimit:10;stroke-dasharray:none;stroke-opacity:1"
         id="path212" />
      <path
         d="m 3449.28,16139.1 25.09,-26 c 20.88,-21.7 9.55,-57.9 -19.95,-63.8 l -222.47,-44.5 c -18.72,-3.7 -37.32,7 -43.49,25 l -0.78,2.3 c -6.78,19.9 3.79,41.5 23.63,48.3 l 198.16,68.2 c 14.01,4.9 29.54,1.1 39.81,-9.5"
         style="fill:#f9a72d;fill-opacity:1;fill-rule:nonzero;stroke:none"
         id="path214" />
      <path
         d="m 3449.28,16139.1 25.09,-26 c 20.88,-21.7 9.55,-57.9 -19.95,-63.8 l -222.47,-44.5 c -18.72,-3.7 -37.32,7 -43.49,25 l -0.78,2.3 c -6.78,19.9 3.79,41.5 23.63,48.3 l 198.16,68.2 c 14.01,4.9 29.54,1.1 39.81,-9.5 z"
         style="fill:none;stroke:#f9a72d;stroke-width:50;stroke-linecap:butt;stroke-linejoin:round;stroke-miterlimit:10;stroke-dasharray:none;stroke-opacity:1"
         id="path216" />
      <path
         d="m 3038.8,16034.7 -110.88,-39.5 c -24.16,-8.6 -33.06,-38.2 -17.67,-58.7 v 0 c 9.08,-12.1 24.47,-17.7 39.19,-14.2 l 115.16,27.1 c 21.95,5.2 34.62,28.2 27.24,49.5 l -4.29,12.4 c -6.92,20 -28.82,30.5 -48.75,23.4"
         style="fill:#f9a72d;fill-opacity:1;fill-rule:nonzero;stroke:none"
         id="path218" />
      <path
         d="m 3038.8,16034.7 -110.88,-39.5 c -24.16,-8.6 -33.06,-38.2 -17.67,-58.7 v 0 c 9.08,-12.1 24.47,-17.7 39.19,-14.2 l 115.16,27.1 c 21.95,5.2 34.62,28.2 27.24,49.5 l -4.29,12.4 c -6.92,20 -28.82,30.5 -48.75,23.4 z"
         style="fill:none;stroke:#f9a72d;stroke-width:50;stroke-linecap:butt;stroke-linejoin:round;stroke-miterlimit:10;stroke-dasharray:none;stroke-opacity:1"
         id="path220" />
      <path
         d="m 2633.9,15907.9 -349.06,-112.3 c -14.93,-4.8 -25.38,-18.3 -26.34,-33.9 l -0.14,-2.3 c -1.63,-26.5 23.71,-46.5 49.11,-38.7 l 353.69,108 c 24.58,7.5 34.81,36.7 20.31,57.9 l -4.49,6.5 c -9.51,13.9 -27.04,19.9 -43.08,14.8"
         style="fill:#f9a72d;fill-opacity:1;fill-rule:nonzero;stroke:none"
         id="path222" />
      <path
         d="m 2633.9,15907.9 -349.06,-112.3 c -14.93,-4.8 -25.38,-18.3 -26.34,-33.9 l -0.14,-2.3 c -1.63,-26.5 23.71,-46.5 49.11,-38.7 l 353.69,108 c 24.58,7.5 34.81,36.7 20.31,57.9 l -4.49,6.5 c -9.51,13.9 -27.04,19.9 -43.08,14.8 z"
         style="fill:none;stroke:#f9a72d;stroke-width:50;stroke-linecap:butt;stroke-linejoin:round;stroke-miterlimit:10;stroke-dasharray:none;stroke-opacity:1"
         id="path224" />
      <path
         d="m 10425.1,11408 -56.9,-57 c -12.9,-12.9 -32.7,-15.9 -48.9,-7.4 l -621.31,325 c -7.76,4.1 -16.61,5.6 -25.28,4.3 l -260.93,-37.4 c -19.67,-2.9 -38.6,8.6 -45.26,27.3 v 0 c -8.39,23.6 5.76,49.2 30.2,54.7 l 364.79,81.7 c 9.54,2.1 19.51,0.9 28.2,-3.6 l 624.99,-321 c 25.2,-12.9 30.5,-46.6 10.4,-66.6"
         style="fill:#f9a72d;fill-opacity:1;fill-rule:nonzero;stroke:none"
         id="path238" />
      <path
         d="m 10425.1,11408 -56.9,-57 c -12.9,-12.9 -32.7,-15.9 -48.9,-7.4 l -621.31,325 c -7.76,4.1 -16.61,5.6 -25.28,4.3 l -260.93,-37.4 c -19.67,-2.9 -38.6,8.6 -45.26,27.3 v 0 c -8.39,23.6 5.76,49.2 30.2,54.7 l 364.79,81.7 c 9.54,2.1 19.51,0.9 28.2,-3.6 l 624.99,-321 c 25.2,-12.9 30.5,-46.6 10.4,-66.6 z"
         style="fill:none;stroke:#f9a72d;stroke-width:50;stroke-linecap:butt;stroke-linejoin:round;stroke-miterlimit:10;stroke-dasharray:none;stroke-opacity:1"
         id="path240" />
      <path
         d="m 10657.2,11350.6 248.3,-5.6 c 9.6,-0.2 19,-2.8 27.3,-7.4 l 178.1,-99 c 23.1,-12.8 34.8,-39.3 28.8,-65 v 0 c -6.1,-25.7 -28.5,-44.2 -54.8,-45.3 l -491.9,-21 c -45.3,-1.9 -75.7,45.8 -54.8,86 l 65.4,125.6 c 10.4,19.9 31.1,32.2 53.6,31.7"
         style="fill:#f9a72d;fill-opacity:1;fill-rule:nonzero;stroke:none"
         id="path242" />
      <path
         d="m 10657.2,11350.6 248.3,-5.6 c 9.6,-0.2 19,-2.8 27.3,-7.4 l 178.1,-99 c 23.1,-12.8 34.8,-39.3 28.8,-65 v 0 c -6.1,-25.7 -28.5,-44.2 -54.8,-45.3 l -491.9,-21 c -45.3,-1.9 -75.7,45.8 -54.8,86 l 65.4,125.6 c 10.4,19.9 31.1,32.2 53.6,31.7 z"
         style="fill:none;stroke:#f9a72d;stroke-width:50;stroke-linecap:butt;stroke-linejoin:round;stroke-miterlimit:10;stroke-dasharray:none;stroke-opacity:1"
         id="path244" />
      <path
         d="m 10177,11153.4 -157.6,6 c -19.52,0.7 -35.04,-16.1 -32.68,-35.5 l 1.3,-10.6 c 1.62,-13.4 11.48,-24.2 24.58,-27.1 l 159.4,-35.3 c 20.8,-4.6 40.1,12.2 38.4,33.4 l -3,39.9 c -1.3,16 -14.3,28.6 -30.4,29.2"
         style="fill:#f9a72d;fill-opacity:1;fill-rule:nonzero;stroke:none"
         id="path246" />
      <path
         d="m 10177,11153.4 -157.6,6 c -19.52,0.7 -35.04,-16.1 -32.68,-35.5 l 1.3,-10.6 c 1.62,-13.4 11.48,-24.2 24.58,-27.1 l 159.4,-35.3 c 20.8,-4.6 40.1,12.2 38.4,33.4 l -3,39.9 c -1.3,16 -14.3,28.6 -30.4,29.2 z"
         style="fill:none;stroke:#f9a72d;stroke-width:50;stroke-linecap:butt;stroke-linejoin:round;stroke-miterlimit:10;stroke-dasharray:none;stroke-opacity:1"
         id="path248" />
      <path
         d="m 11316.3,11169.3 h 141.7 c 19,0 32.9,-17.8 28.2,-36.2 l -7.9,-31 c -3,-11.8 -13,-20.4 -25.1,-21.7 l -137.4,-14.6 c -18.1,-1.9 -33.5,13 -32.1,31.2 l 3.6,45.6 c 1.2,15.1 13.8,26.7 29,26.7"
         style="fill:#f9a72d;fill-opacity:1;fill-rule:nonzero;stroke:none"
         id="path250" />
      <path
         d="m 11316.3,11169.3 h 141.7 c 19,0 32.9,-17.8 28.2,-36.2 l -7.9,-31 c -3,-11.8 -13,-20.4 -25.1,-21.7 l -137.4,-14.6 c -18.1,-1.9 -33.5,13 -32.1,31.2 l 3.6,45.6 c 1.2,15.1 13.8,26.7 29,26.7 z"
         style="fill:none;stroke:#f9a72d;stroke-width:50;stroke-linecap:butt;stroke-linejoin:round;stroke-miterlimit:10;stroke-dasharray:none;stroke-opacity:1"
         id="path252" />
      <path
         d="m 13444.5,15443.8 -299.7,-258.4 c -25.9,-22.4 -33.1,-59.7 -17.3,-90.1 v 0 c 12.7,-24.6 38,-40 65.7,-40 h 338.4 c 18.3,0 36,-6.8 49.6,-19.2 l 66.2,-59.8 c 30.6,-27.7 78,-25 105.3,6 l 13.7,15.6 c 14.8,16.9 21.2,39.6 17.3,61.8 l -32.4,184.6 c -6.2,35.4 -37,61.2 -73,61.2 h -37.5 c -41.5,0 -74.9,34.1 -74,75.6 l 0.1,5.1 c 1.3,64.1 -73.9,99.5 -122.4,57.6"
         style="fill:#f9a72d;fill-opacity:1;fill-rule:nonzero;stroke:none"
         id="path254" />
      <path
         d="m 13444.5,15443.8 -299.7,-258.4 c -25.9,-22.4 -33.1,-59.7 -17.3,-90.1 v 0 c 12.7,-24.6 38,-40 65.7,-40 h 338.4 c 18.3,0 36,-6.8 49.6,-19.2 l 66.2,-59.8 c 30.6,-27.7 78,-25 105.3,6 l 13.7,15.6 c 14.8,16.9 21.2,39.6 17.3,61.8 l -32.4,184.6 c -6.2,35.4 -37,61.2 -73,61.2 h -37.5 c -41.5,0 -74.9,34.1 -74,75.6 l 0.1,5.1 c 1.3,64.1 -73.9,99.5 -122.4,57.6 z"
         style="fill:none;stroke:#f9a72d;stroke-width:50;stroke-linecap:butt;stroke-linejoin:round;stroke-miterlimit:10;stroke-dasharray:none;stroke-opacity:1"
         id="path256" />
      <path
         d="m 13247,1754.8 -62.2,-75.4 c -6,-7.4 -17,-8.2 -24,-1.8 l -30.4,27.3 c -4.7,4.3 -6.6,10.9 -4.8,17 l 14,48.2 c 2,7.1 8.6,12 16,12 h 78.5 c 14.1,0 21.8,-16.4 12.9,-27.3"
         style="fill:#f9a72d;fill-opacity:1;fill-rule:nonzero;stroke:none"
         id="path258" />
      <path
         d="m 13247,1754.8 -62.2,-75.4 c -6,-7.4 -17,-8.2 -24,-1.8 l -30.4,27.3 c -4.7,4.3 -6.6,10.9 -4.8,17 l 14,48.2 c 2,7.1 8.6,12 16,12 h 78.5 c 14.1,0 21.8,-16.4 12.9,-27.3 z"
         style="fill:none;stroke:#f9a72d;stroke-width:50;stroke-linecap:butt;stroke-linejoin:round;stroke-miterlimit:10;stroke-dasharray:none;stroke-opacity:1"
         id="path260" />
      <path
         d="m 13352.6,1774.3 -50.5,-79.6 c -5.6,-8.9 -1.7,-20.8 8.2,-24.5 l 47.3,-17.8 c 6.8,-2.6 14.5,-0.4 19,5.3 l 76.1,97.5 c 8.5,10.9 0.7,26.9 -13.2,26.9 h -72.8 c -5.7,0 -11,-2.9 -14.1,-7.8"
         style="fill:#f9a72d;fill-opacity:1;fill-rule:nonzero;stroke:none"
         id="path262" />
      <path
         d="m 13352.6,1774.3 -50.5,-79.6 c -5.6,-8.9 -1.7,-20.8 8.2,-24.5 l 47.3,-17.8 c 6.8,-2.6 14.5,-0.4 19,5.3 l 76.1,97.5 c 8.5,10.9 0.7,26.9 -13.2,26.9 h -72.8 c -5.7,0 -11,-2.9 -14.1,-7.8 z"
         style="fill:none;stroke:#f9a72d;stroke-width:50;stroke-linecap:butt;stroke-linejoin:round;stroke-miterlimit:10;stroke-dasharray:none;stroke-opacity:1"
         id="path264" />
      <path
         d="m 34008.7,13209.4 134.3,-77.4 c 17.3,-10 27.6,-28.8 26.6,-48.8 l -7.4,-159 c -1.4,-29.6 -26.6,-52.3 -56.1,-50.8 l -38.5,2 c -18.9,1 -35.9,11.9 -44.6,28.7 l -110.1,211.2 c -10.5,20.1 -7.1,44.7 8.4,61.2 l 21.7,23.2 c 17,18.1 44.2,22.1 65.7,9.7"
         style="fill:#f9a72d;fill-opacity:1;fill-rule:nonzero;stroke:none"
         id="path266" />
      <path
         d="m 34008.7,13209.4 134.3,-77.4 c 17.3,-10 27.6,-28.8 26.6,-48.8 l -7.4,-159 c -1.4,-29.6 -26.6,-52.3 -56.1,-50.8 l -38.5,2 c -18.9,1 -35.9,11.9 -44.6,28.7 l -110.1,211.2 c -10.5,20.1 -7.1,44.7 8.4,61.2 l 21.7,23.2 c 17,18.1 44.2,22.1 65.7,9.7 z"
         style="fill:none;stroke:#f9a72d;stroke-width:50;stroke-linecap:butt;stroke-linejoin:round;stroke-miterlimit:10;stroke-dasharray:none;stroke-opacity:1"
         id="path268" />
      <path
         d="m 34073.1,13280.9 154.9,-131.8 c 26.1,-22.2 64.4,-22.1 90.5,0.1 l 93.9,80.2 c 21.6,18.5 52.3,22 77.5,8.9 l 27.2,-14.1 c 34.9,-18.2 78,-3.8 95,31.7 l 30.3,62.8 c 11.6,24.2 36,39.6 62.8,39.6 h 118.8 c 38.5,0 69.7,31.2 69.7,69.7 v 523.9 c 0,18.7 -7.6,36.7 -21,49.9 l -156.9,153.1 c -23,22.5 -58.3,26.3 -85.6,9.4 v 0 c -36,-22.5 -43.8,-71.7 -16.4,-104.2 l 64.9,-77 c 13.3,-15.7 18.9,-36.6 15.4,-56.8 l -35.1,-203.4 c -4.8,-27.6 -25.5,-49.6 -52.8,-56 l -107.2,-25.2 c -26.7,-6.2 -47.2,-27.5 -52.5,-54.4 l -12.1,-60.9 c -6.1,-31.3 -32.8,-54.5 -64.6,-56.2 l -201.8,-10.9 c -17.7,-0.9 -34.3,-8.6 -46.5,-21.3 l -53.5,-55.7 c -27.8,-28.9 -25.5,-75.4 5.1,-101.4"
         style="fill:#f9a72d;fill-opacity:1;fill-rule:nonzero;stroke:none"
         id="path270" />
      <path
         d="m 34073.1,13280.9 154.9,-131.8 c 26.1,-22.2 64.4,-22.1 90.5,0.1 l 93.9,80.2 c 21.6,18.5 52.3,22 77.5,8.9 l 27.2,-14.1 c 34.9,-18.2 78,-3.8 95,31.7 l 30.3,62.8 c 11.6,24.2 36,39.6 62.8,39.6 h 118.8 c 38.5,0 69.7,31.2 69.7,69.7 v 523.9 c 0,18.7 -7.6,36.7 -21,49.9 l -156.9,153.1 c -23,22.5 -58.3,26.3 -85.6,9.4 v 0 c -36,-22.5 -43.8,-71.7 -16.4,-104.2 l 64.9,-77 c 13.3,-15.7 18.9,-36.6 15.4,-56.8 l -35.1,-203.4 c -4.8,-27.6 -25.5,-49.6 -52.8,-56 l -107.2,-25.2 c -26.7,-6.2 -47.2,-27.5 -52.5,-54.4 l -12.1,-60.9 c -6.1,-31.3 -32.8,-54.5 -64.6,-56.2 l -201.8,-10.9 c -17.7,-0.9 -34.3,-8.6 -46.5,-21.3 l -53.5,-55.7 c -27.8,-28.9 -25.5,-75.4 5.1,-101.4 z"
         style="fill:none;stroke:#f9a72d;stroke-width:50;stroke-linecap:butt;stroke-linejoin:round;stroke-miterlimit:10;stroke-dasharray:none;stroke-opacity:1"
         id="path272" />
      <path
         d="m 34560.8,14252.2 36.4,29.7 c 12.8,10.4 17,28.1 10.4,43.2 l -3.8,8.8 c -11.6,26.5 10.5,55.4 39.1,51.1 l 169.7,-25.4 c 15.5,-2.3 30.7,5.3 38,19.1 l 63.2,119.5 c 9.9,18.7 1.9,41.9 -17.3,50.7 l -407.3,185 c -29.5,13.4 -60.5,-15 -50,-45.5 l 53.6,-154.3 c 3.3,-9.6 2.5,-20.1 -2.1,-29 l -66.9,-128.5 c -7.5,-14.4 -4.7,-32 7,-43.3 l 81.1,-79 c 13.4,-13 34.4,-13.9 48.9,-2.1"
         style="fill:#f9a72d;fill-opacity:1;fill-rule:nonzero;stroke:none"
         id="path274" />
      <path
         d="m 34560.8,14252.2 36.4,29.7 c 12.8,10.4 17,28.1 10.4,43.2 l -3.8,8.8 c -11.6,26.5 10.5,55.4 39.1,51.1 l 169.7,-25.4 c 15.5,-2.3 30.7,5.3 38,19.1 l 63.2,119.5 c 9.9,18.7 1.9,41.9 -17.3,50.7 l -407.3,185 c -29.5,13.4 -60.5,-15 -50,-45.5 l 53.6,-154.3 c 3.3,-9.6 2.5,-20.1 -2.1,-29 l -66.9,-128.5 c -7.5,-14.4 -4.7,-32 7,-43.3 l 81.1,-79 c 13.4,-13 34.4,-13.9 48.9,-2.1 z"
         style="fill:none;stroke:#f9a72d;stroke-width:50;stroke-linecap:butt;stroke-linejoin:round;stroke-miterlimit:10;stroke-dasharray:none;stroke-opacity:1"
         id="path276" />
      <path
         d="m 33666.6,15818.1 v 0 c -10.9,-20.8 -8.2,-46 6.8,-64 l 455.7,-545.5 c 1.9,-2.3 3.7,-4.8 5.3,-7.5 l 188,-315.4 c 12.4,-20.8 36.5,-31.7 60.4,-27.2 l 28.2,5.3 c 43.1,8.1 61.9,59.2 34.3,93.3 l -206.5,254.7 c -10.5,13 -14.9,30 -12,46.5 l 17.1,97.5 c 3.5,19.5 -3.4,39.5 -18.1,52.8 l -469.1,425.4 c -28,25.4 -72.5,17.6 -90.1,-15.9"
         style="fill:#f9a72d;fill-opacity:1;fill-rule:nonzero;stroke:none"
         id="path278" />
      <path
         d="m 33666.6,15818.1 v 0 c -10.9,-20.8 -8.2,-46 6.8,-64 l 455.7,-545.5 c 1.9,-2.3 3.7,-4.8 5.3,-7.5 l 188,-315.4 c 12.4,-20.8 36.5,-31.7 60.4,-27.2 l 28.2,5.3 c 43.1,8.1 61.9,59.2 34.3,93.3 l -206.5,254.7 c -10.5,13 -14.9,30 -12,46.5 l 17.1,97.5 c 3.5,19.5 -3.4,39.5 -18.1,52.8 l -469.1,425.4 c -28,25.4 -72.5,17.6 -90.1,-15.9 z"
         style="fill:none;stroke:#f9a72d;stroke-width:50;stroke-linecap:butt;stroke-linejoin:round;stroke-miterlimit:10;stroke-dasharray:none;stroke-opacity:1"
         id="path280" />
    </g>
  </g>
</svg>
