<?xml version="1.0" encoding="UTF-8" standalone="no"?>
<!-- Created with Inkscape (http://www.inkscape.org/) -->

<svg
   version="1.1"
   id="svg2"
   width="5599.918"
   height="3081.2944"
   viewBox="0 0 5599.9179 3081.2944"
   xmlns="http://www.w3.org/2000/svg"
   xmlns:svg="http://www.w3.org/2000/svg">
  <defs
     id="defs6" />
  <g
     id="g11"
     transform="matrix(0.13333333,0,0,-0.13333333,151.83185,2895.0565)"
     style="fill:#00ff00;fill-opacity:1;stroke:none;stroke-width:375;stroke-linecap:round;stroke-linejoin:round;stroke-dasharray:none;paint-order:normal">
    <path
       d="m 36232.1,6781.8 644.4,-1710.7 c 23,-60.8 13.5,-129.1 -25,-181.4 l -922.4,-1252.5 c -36.2,-49.1 -93.5,-78.1 -154.5,-78.1 h -722.4 c -89.7,0 -167.4,62.1 -187.2,149.6 l -85.7,378.9 c -16,70.5 -70.2,126.1 -140.3,143.7 l -705,177.8 c -40,10.1 -82.2,7 -120.3,-8.7 L 32818,3988.3 c -36.6,-15.1 -76.9,-18.6 -115.6,-9.9 l -314.4,70.9 c -96.4,21.7 -160.6,113.2 -148.2,211.2 l 169.8,1346.1 c 9.3,73.4 59.9,135 130.2,158.2 l 759.6,251 c 19.3,6.4 37.6,15.9 54,28 l 1353.4,1002.6 c 44.2,32.7 100.2,44.9 154,33.6 l 224.7,-47.6 c 116.1,-24.5 182.3,-147.5 138.9,-257.9 v 0 c -35.7,-90.8 2.3,-193.8 88.4,-239.6 l 178,-94.9 c 97.2,-51.8 218,-11.2 264.3,88.8 l 123.3,266 c 71.5,154.4 293.7,146.3 353.7,-13"
       style="fill:#00ff00;fill-opacity:1;fill-rule:nonzero;stroke:none;stroke-width:375;stroke-linecap:round;stroke-linejoin:round;stroke-dasharray:none;paint-order:normal"
       id="path4" />
    <path
       d="m 35640.5,8445.8 814.8,-343 c 22.2,-9.3 40.9,-25.4 53.4,-46 l 340.1,-560 c 47.3,-77.9 -11.2,-177.2 -102.3,-173.6 h -0.7 c -30.1,1.2 -58.5,14.2 -79.1,36.2 l -207.4,222.1 c -45.6,48.9 -123.3,48.3 -168.2,-1.2 l -101.3,-111.6 c -25,-27.6 -61.9,-41.3 -98.9,-36.6 l -184.5,23.2 c -37.7,4.8 -70.6,28 -87.8,61.9 l -177.9,351.8 c -12.5,24.6 -33.4,43.9 -59,54.3 l -547.8,222.7 c -26.2,10.6 -47.4,30.5 -59.8,55.9 l -105.4,216.5 c -32.6,67 6.6,146.9 79.7,162 v 0 c 46.9,9.7 94.9,-10.9 120.2,-51.6 l 111.6,-179.3 c 33.5,-53.8 104.4,-70.1 158,-36.4 l 197,124.1 c 31.6,19.9 70.9,23.1 105.3,8.6"
       style="fill:#00ff00;fill-opacity:1;fill-rule:nonzero;stroke:none;stroke-width:375;stroke-linecap:round;stroke-linejoin:round;stroke-dasharray:none;paint-order:normal"
       id="path5" />
    <path
       id="path6"
       style="fill:#00ff00;fill-opacity:1;fill-rule:nonzero;stroke:none;stroke-width:375;stroke-linecap:round;stroke-linejoin:round;stroke-dasharray:none;paint-order:normal"
       d="m 21712.381,3999.1992 c -1.71,0.4538 -3.419,0.9076 -5.129,1.3613 1.281,-0.1673 2.561,-0.3346 3.842,-0.5019 -1.343,0.2931 -2.678,0.6507 -4.065,0.5475 -50.368,0.59 -100.619,9.6054 -148.064,26.5168 -51.75,18.441 -100.14,46.2595 -142.103,81.7185 -37.231,31.4159 -69.371,68.8401 -94.831,110.37 -12.75,20.7432 -23.755,42.5429 -33.081,65.0303 -4.457,10.8089 -8.847,21.6455 -13.294,32.4586 -165.702,404.5911 -331.411,809.1791 -497.108,1213.7722 -25.123,61.8852 -47.583,124.8504 -67.315,188.6592 -30.949,100.0634 -55.196,202.2907 -72.45,305.6391 -14.519,86.9223 -24.115,174.6658 -28.749,262.6702 -0.221,4.1553 -0.427,8.2775 -0.615,12.3902 -2.731,58.0514 -3.32,116.2037 -1.732,174.2979 2.09,76.5837 7.948,153.0645 17.554,229.0723 8.455,66.9595 19.806,133.5535 34.017,199.5314 10.314,47.871 22.143,95.4146 35.437,142.5447 3.023,10.8714 6.202,21.7019 8.91,32.6585 15.437,61.3094 22.796,124.6462 21.814,187.8621 -0.597,38.7993 -4.317,77.5483 -11.087,115.7566 -0.04,0.1713 -0.214,1.1782 -0.304,1.6737 -10.675,59.3126 -28.787,117.282 -53.78,172.1211 -5.31,11.6705 -10.793,23.2616 -16.168,34.9022 -96.12,206.9438 -192.25,413.8829 -288.363,620.8297 -33.005,72.1934 -57.02,148.4835 -71.384,226.5514 -14.589,79.155 -19.163,160.1425 -13.678,240.4408 3.01,44.3211 9.126,88.4268 18.224,131.9075 2.061,9.7692 4.183,19.5372 5.537,29.4361 6.018,41.7833 3.473,84.7913 -7.553,125.5463 -11.93,44.2812 -33.707,85.8915 -63.398,120.852 -20.45,24.1012 -44.582,45.0659 -71.301,61.9516 -88.053,55.9273 -176.152,111.8951 -264.237,167.8212 -18.344,11.636 -36.665,23.3079 -55.023,34.9213 -40.119,24.9795 -82.883,45.7005 -127.332,61.7541 -0.03,0 -1.076,0.383 -1.488,0.5279 -9.876,3.5449 -19.84,6.841 -29.869,9.9252 -0.268,0.077 -1.148,0.3487 -1.652,0.5006 -18.329,5.5705 -36.9,10.3463 -55.637,14.3334 -0.257,0.05 -1.175,0.2456 -1.686,0.3517 -0.552,0.1159 -1.303,0.2728 -1.659,0.3486 -16.062,3.3273 -32.246,6.0654 -48.507,8.2216 -0.256,0.029 -1.19,0.1534 -1.707,0.2192 -2.657,0.3467 -5.687,0.7189 -8.115,1.0031 -10.88,1.2778 -21.791,2.2862 -32.721,3.0355 -0.26,0.02 -1.197,0.079 -1.718,0.1138 -12.552,0.822 -25.127,1.2936 -37.706,1.4135 -0.303,0 -1.2,0.01 -1.731,0.011 -10.075,0.07 -20.15,-0.087 -30.218,-0.464 -0.179,-0.012 -1.196,-0.05 -1.701,-0.072 -0.903,-0.037 -1.806,-0.074 -2.709,-0.1115 -0.179,-0.01 -1.196,-0.057 -1.7,-0.08 -0.904,-0.043 -1.807,-0.086 -2.71,-0.1292 -0.1,-0.01 -1.147,-0.063 -1.594,-0.089 -2.341,-0.1183 -5.203,-0.302 -7.217,-0.4221 -16.153,-1.0456 -32.268,-2.6673 -48.304,-4.8643 -0.175,-0.029 -1.186,-0.167 -1.685,-0.2384 -0.896,-0.1256 -1.791,-0.2512 -2.686,-0.3768 -0.174,-0.023 -1.185,-0.1739 -1.684,-0.2464 -15.444,-2.2551 -30.871,-5.0731 -46.084,-8.3747 -209.458,-45.0415 -418.914,-90.0942 -628.373,-135.1286 -77.181,-16.1238 -156.51,-21.9515 -235.217,-17.2102 -59.552,3.5848 -118.741,13.1645 -176.376,28.5785 -56.664,15.1374 -111.835,35.9029 -164.427,61.8837 -62.002,30.6038 -120.404,68.4873 -173.638,112.6115 -28.01,23.196 -54.562,48.1437 -79.54,74.5744 -12.948,13.7411 -25.865,27.5119 -38.806,41.26 -61.98,65.909 -123.959,131.8188 -185.914,197.7513 -41.711,44.8662 -81.077,91.9098 -117.923,140.8496 -52.369,69.5664 -99.625,142.9824 -141.224,219.4784 -33.968,62.445 -64.167,126.937 -90.425,192.995 -23.675,59.592 -44.121,120.465 -61.213,182.268 -11.699,42.32 -21.836,85.096 -30.383,128.149 -12.647,63.754 -21.776,128.205 -27.358,192.96 -2.318,26.64 -3.93,53.337 -5.157,80.049 -2.133,44.182 -4.359,88.36 -6.377,132.548 -1.582,39.856 -1.68,79.77 -0.319,119.634 2.925,85.8 12.628,171.368 29.027,255.637 17.403,89.488 42.314,177.514 74.401,262.845 24.894,66.218 54.111,130.809 87.378,193.24 29.767,55.844 62.794,109.948 98.827,161.969 17.841,25.741 36.436,50.957 55.701,75.65 138.561,178.796 277.149,357.571 415.721,536.359 60.423,77.943 120.823,155.905 181.261,233.836 23.073,29.736 47.125,58.711 72.044,86.917 76.857,86.969 162.166,166.471 254.376,236.957 73.192,55.967 150.714,106.265 231.625,150.34 99.155,54.014 203.432,98.618 310.973,133.032 49.95,15.997 100.606,29.789 151.769,41.338 55.23,12.469 111.051,22.312 167.212,29.512 20.372,2.615 40.793,4.834 61.236,6.809 297.455,29.452 594.911,58.892 892.367,88.337 20.708,3.237 41.979,2.845 62.542,-1.224 23.287,-4.558 45.604,-13.901 65.265,-27.175 22.61,-15.229 41.756,-35.606 55.377,-59.232 15.835,-27.369 24.281,-58.99 23.999,-90.62 -0.04,-8.132 -0.453,-16.256 -0.663,-24.385 -1.321,-42.163 -2.664,-84.342 -3.912,-126.494 -0.382,-8.631 0.04,-17.294 1.281,-25.844 3.359,-23.438 12.659,-46.017 26.923,-64.929 14.928,-19.912 35.189,-35.808 58.155,-45.421 6.089,-2.559 12.303,-4.802 18.435,-7.252 0.337,-0.127 1.119,-0.436 1.627,-0.632 222.603,-86.747 445.202,-173.503 667.808,-260.244 5.401,-2.058 10.857,-3.967 16.356,-5.745 0.1,-0.03 1.095,-0.349 1.522,-0.483 12.209,-3.874 24.642,-7.038 37.213,-9.496 0.1,-0.01 1.128,-0.216 1.568,-0.298 0.607,-0.118 0.767,-0.148 1.493,-0.281 1.165,-0.218 2.331,-0.423 3.497,-0.632 0.106,-0.02 1.133,-0.194 1.576,-0.271 3.862,-0.659 7.736,-1.24 11.618,-1.768 0.06,-0.01 1.135,-0.148 1.572,-0.206 9.763,-1.268 19.582,-2.1 29.418,-2.509 0.104,0 1.148,-0.04 1.597,-0.06 0.646,-0.03 0.864,-0.03 1.624,-0.06 0.685,-0.02 1.126,-0.04 1.632,-0.05 1.285,-0.04 3.055,-0.07 4.042,-0.09 41.294,-0.589 82.677,6.504 121.43,20.772 34.821,12.791 67.492,31.405 96.247,54.842 12.65,10.28 24.514,21.514 35.569,33.49 9.223,9.729 19.141,18.802 29.741,27.014 27.671,21.541 59.677,37.496 93.556,46.56 36.555,9.831 75.238,11.708 112.557,5.331 11.867,-2.014 23.569,-4.908 35.093,-8.367 109.311,-31.512 218.638,-62.963 327.956,-94.448 66.656,-19.186 133.309,-38.381 199.969,-57.551 73.442,-20.616 149.552,-31.699 225.823,-32.89 0.253,0 1.199,-0.01 1.72,-0.02 0.84,0 2.034,-0.03 2.653,-0.03 31.864,-0.34 63.744,1.048 95.461,4.11 0.275,0.03 1.194,0.119 1.717,0.171 12.98,1.327 25.948,2.769 38.924,4.136 46.658,4.978 93.284,9.978 139.945,14.984 43.784,5.056 86.288,20.874 122.696,45.721 33.195,22.593 61.391,52.519 81.827,87.094 16.468,27.763 27.938,58.47 33.741,90.222 4.652,25.37 9.274,50.745 13.915,76.118 10.262,56.195 20.548,112.386 30.795,168.584 1.48,8.21 2.066,16.582 1.643,24.917 -0.831,17.378 -5.875,34.544 -14.664,49.565 -11.458,19.777 -29.094,35.969 -49.936,45.408 -14.285,6.511 -29.984,9.836 -45.678,9.819 -9.86,0.08 -19.72,0.06 -29.58,0.124 -140.675,0.566 -281.349,1.125 -422.024,1.711 -11.163,0.524 -22.239,2.128 -33.296,3.676 -68.483,10.18 -134.781,34.769 -193.342,71.704 -44.297,27.895 -84.215,62.735 -117.802,102.891 -32.881,39.314 -59.723,83.673 -79.225,131.071 -5.006,12.173 -9.688,24.504 -13.327,37.161 -10.551,37.309 -11.406,77.324 -2.345,115.029 9.272,38.896 28.877,75.3 56.392,104.329 22.949,24.274 51.297,43.408 82.391,55.616 47.433,19.165 94.903,38.241 142.352,57.368 86.963,35.031 173.928,70.058 260.901,105.063 48.35,19.069 98.972,32.344 150.441,39.552 49.342,6.913 99.465,8.182 149.098,3.842 102.999,-9.125 205.997,-18.265 308.99,-27.452 116.057,-10.326 232.107,-20.717 348.16,-31.092 9.353,-0.662 18.907,3.145 25.223,10.081 6.026,6.43 9.39,15.383 8.664,24.207 -0.421,5.281 -1.807,10.425 -3.215,15.513 -5.736,19.349 -17.47,36.874 -33.233,49.486 -6.055,4.894 -12.722,8.987 -19.679,12.464 -135.682,71.426 -271.37,142.842 -407.042,214.285 -4.997,2.598 -9.892,5.398 -14.557,8.557 -23.589,15.817 -42.357,38.769 -52.977,65.125 -11.37,27.921 -13.738,59.462 -6.402,88.722 4.414,17.821 12.354,34.723 23.02,49.652 8.729,12.864 17.454,25.731 26.172,38.603 -0.318,1.163 -0.535,2.375 -0.916,3.507 -0.657,0.845 -1.314,1.69 -1.97,2.534 -21.609,1.614 -43.219,3.23 -64.828,4.836 -6.316,0.466 -12.766,0.937 -19.133,1.405 -4.423,0.37 -8.878,0.668 -13.305,0.18 -14.311,-1.398 -28.042,-8.363 -37.45,-19.267 -4.096,-4.66 -7.277,-10.048 -9.869,-15.667 -21.632,-43.267 -43.225,-86.554 -64.92,-129.789 -15.383,-29.121 -40.273,-53.127 -69.99,-67.344 -29.082,-14.042 -62.566,-18.856 -94.403,-13.347 -20.359,3.482 -39.956,11.123 -57.45,22.082 -54.806,32.617 -109.591,65.27 -164.422,97.844 -18.849,10.611 -41.386,14.512 -62.697,10.771 -20.482,-3.49 -39.825,-13.713 -53.963,-28.98 -6.513,-6.964 -11.876,-14.951 -16.171,-23.451 -39.407,-73.219 -78.807,-146.441 -118.28,-219.624 -5.161,-9.753 -10.809,-19.29 -14.913,-29.561 -10.358,-25.407 -13.884,-53.565 -10.038,-80.736 1.8,-12.975 5.295,-25.688 10.086,-37.872 11.188,-30.946 12.533,-65.388 3.613,-97.077 -9.633,-34.631 -31.172,-65.845 -60.24,-87.013 -22.568,-16.527 -49.537,-27.037 -77.378,-29.896 -10.402,-1.113 -20.894,-1.086 -31.327,-0.461 -34.207,1.444 -68.414,2.894 -102.621,4.319 -10.59,0.429 -21.316,0.87 -31.958,1.303 -14.204,0.589 -28.469,-0.71 -42.385,-3.583 -13.083,-2.705 -25.846,-6.897 -38.038,-12.354 -50.382,-21.478 -100.769,-42.928 -151.123,-64.45 -4.297,-2.213 -6.538,-7.848 -4.665,-12.363 0.99,-2.263 2.337,-4.352 3.478,-6.541 6.612,-12.075 13.376,-24.071 19.704,-36.299 23.127,-45.576 34.77,-96.915 33.556,-148.009 -0.912,-40.885 -9.896,-81.581 -26.379,-119.012 -12.792,-29.115 -30.004,-56.301 -50.982,-80.208 -13.604,-15.511 -31.019,-27.591 -50.167,-35.224 -22.003,-8.807 -46.393,-11.414 -69.788,-7.721 -18.017,2.8 -35.441,9.361 -50.795,19.2 -14.499,9.262 -27.135,21.386 -37.106,35.4 -54.814,73.539 -109.657,147.058 -164.421,220.634 -37.838,52.051 -65.544,111.428 -81.156,173.855 -3.931,15.538 -6.789,31.317 -9.972,47.019 -2.569,12.796 -5.022,25.618 -7.809,38.37 -0.521,2.292 -1.073,4.576 -1.635,6.858 0,-0.06 -0.281,1.097 -0.387,1.507 -12.299,48.164 -35.35,93.554 -67.025,131.869 -12.048,14.614 -25.37,28.155 -39.602,40.644 -99.979,89.769 -199.944,179.54 -299.932,269.298 -15.778,14.152 -31.529,28.333 -47.323,42.466 -3.435,2.986 -6.977,5.848 -10.61,8.589 -0.04,0.03 -0.917,0.685 -1.268,0.949 -28.342,21.019 -62.274,34.464 -97.355,38.363 -10.979,1.242 -22.072,1.663 -33.101,0.909 -10.122,-1.194 -19.6,-6.87 -25.464,-15.202 -5.721,-7.901 -8.38,-18.084 -6.713,-27.745 0.74,-4.6 2.555,-8.92 4.351,-13.187 18.792,-46.267 37.539,-92.552 56.414,-138.786 16.479,-38.357 43.987,-71.954 78.559,-95.397 7.445,-5.084 15.156,-9.762 22.722,-14.662 92.976,-59.397 185.951,-118.795 278.91,-178.219 28.67,-19.003 51.363,-46.889 64.067,-78.859 12.66,-31.607 15.688,-67.026 8.352,-100.29 -4.182,-19.207 -11.792,-37.628 -22.126,-54.338 -24.57,-41.423 -49.094,-82.874 -73.729,-124.259 -13.23,-20.987 -34.305,-36.969 -58.221,-43.684 -25.28,-7.263 -53.295,-4.427 -76.592,7.791 -19.99,10.397 -36.438,27.554 -45.699,48.121 -4.226,9.243 -6.891,19.126 -8.611,29.122 -4.774,24.103 -9.464,48.223 -14.383,72.296 -9.832,44.336 -31.574,85.958 -62.333,119.366 -6.453,7.026 -13.3,13.689 -20.479,19.971 0.02,-0.01 -0.859,0.744 -1.182,1.025 -8.247,7.151 -16.976,13.733 -26.005,19.863 -114.054,79.599 -228.104,159.205 -342.174,238.782 -42.115,28.874 -87.86,52.436 -135.803,70.005 -67.039,24.595 -138.414,37.311 -209.823,37.37 -12.62,-0.03 -25.24,-0.25 -37.861,-0.363 -99.864,-1.131 -199.728,-2.253 -299.592,-3.395 0,0 -1.139,-0.02 -1.57,-0.03 -39.551,-0.859 -78.84,-11.558 -113.37,-30.862 -25.033,-13.941 -47.49,-32.42 -66.203,-54.105 -31.374,-35.501 -62.801,-70.956 -94.094,-106.529 -43.81,-50.717 -80.693,-107.412 -109.262,-168.038 -17.063,-36.163 -31.191,-73.708 -42.229,-112.14 0,-0.03 -0.31,-1.1 -0.427,-1.521 -2.933,-10.258 -5.722,-21.009 -8.137,-31.12 -3.295,-13.816 -6.194,-27.726 -8.721,-41.703 -0.04,-0.179 -0.21,-1.179 -0.299,-1.677 -2.661,-15.135 -5.985,-30.175 -10.555,-44.857 -12.39,-40.362 -32.391,-78.372 -58.663,-111.425 -26.89,-33.847 -60.317,-62.477 -97.898,-83.842 -16.063,-9.149 -32.891,-16.941 -50.226,-23.355 -8.325,-3.093 -16.762,-5.872 -25.131,-8.842 -83.414,-29.111 -166.824,-58.233 -250.247,-87.32 -75.922,-25.763 -156.696,-37.177 -236.783,-33.359 -46.55,2.203 -92.861,9.439 -137.859,21.565 -26.412,7.104 -52.361,15.91 -77.681,26.25 -11.445,4.625 -22.753,9.628 -33.63,15.48 -38.641,20.541 -72.896,49.308 -99.715,83.895 -22.353,28.736 -39.655,61.392 -50.808,96.051 -13.346,41.38 -17.917,85.569 -13.254,128.8 3.918,38.678 7.905,77.348 11.847,116.024 9.182,89.794 18.349,179.59 27.585,269.378 5.618,48.698 22.788,96.037 49.822,136.939 25.604,38.823 59.863,71.924 99.635,96.044 37.646,22.894 80.149,37.791 123.881,43.241 15.877,2.018 31.902,2.696 47.899,2.49 124.429,0 248.857,-0.115 373.286,-0.185 36.038,0.237 71.982,10.172 102.953,28.617 30.059,17.828 55.486,43.434 72.937,73.726 7.114,12.301 13.026,25.31 17.507,38.797 7.228,22.824 7.402,47.827 0.44,70.738 -5.085,16.935 -13.982,32.689 -25.76,45.869 -31.87,37.085 -63.818,74.102 -95.625,111.239 -25.774,31.185 -43.103,69.317 -49.408,109.294 -6.366,39.713 -2.082,81.088 12.37,118.627 13.07,34.107 34.444,65.022 61.881,89.15 8.741,7.695 18.004,14.832 27.897,20.987 5.564,3.12 11.55,5.477 17.7,7.153 5.894,1.505 12.014,1.82 18.072,1.653 40.881,-0.172 81.762,-0.437 122.643,-0.53 10.781,0.143 21.555,0.823 32.271,2.014 -0.05,0 1.126,0.13 1.548,0.179 5.455,0.633 10.894,1.408 16.311,2.309 0,0 1.122,0.193 1.547,0.265 39.561,6.78 77.853,20.853 112.396,41.293 23.279,13.757 44.859,30.38 64.092,49.386 5.934,5.801 11.573,11.893 17.135,18.048 68.951,75.141 137.919,150.266 206.888,225.392 10.524,11.628 20.404,23.831 29.745,36.427 0.106,0.153 0.709,0.965 1.008,1.373 0.385,0.523 0.769,1.046 1.154,1.568 0.131,0.175 0.705,0.97 1.007,1.384 10.436,14.361 20.183,29.214 29.444,44.356 0.173,0.277 0.624,1.026 0.904,1.484 6.339,10.41 12.31,21.063 19.348,31.03 25.399,36.683 59.035,67.627 97.73,89.844 34.384,19.809 72.7,32.774 112.064,37.82 15.571,2.028 31.294,2.725 46.988,2.486 38.657,-0.08 77.314,-0.162 115.972,-0.244 1.04,0.279 2.226,0.229 3.054,1.011 15.699,11.272 27.038,28.476 31.073,47.388 3,13.751 2.258,28.31 -2.246,41.653 -6.457,20.219 -13.032,40.399 -19.414,60.642 -2.262,6.955 -4.176,14.021 -5.735,21.166 -8.298,37.818 -7.069,77.705 3.712,114.901 10.392,36.11 29.546,69.688 55.502,96.874 14.437,15.173 30.95,28.339 48.846,39.208 16.845,10.244 33.61,20.62 50.464,30.85 4.58,2.752 9.078,5.665 13.913,7.964 22.62,11.132 48.987,14.544 73.664,9.293 26.511,-5.508 50.955,-20.599 67.577,-41.998 15.03,-19.202 23.686,-43.321 24.154,-67.712 0.242,-8.594 0.273,-17.193 0.47,-25.789 1.047,-61.119 2.055,-122.239 3.165,-183.357 0.648,-11.916 7.422,-23.277 17.528,-29.601 6.377,-4.072 13.982,-6.146 21.542,-5.932 112.315,-0.766 224.63,-1.488 336.946,-2.237 144.045,-0.95 288.09,-1.91 432.135,-2.852 25.753,0.153 51.368,9.145 71.528,25.178 18.19,14.345 32.054,34.17 39.004,56.29 2.042,6.338 3.406,12.863 4.683,19.389 7.233,34.759 14.42,69.527 21.722,104.271 7.809,32.451 22.966,63.096 43.971,89.031 18.263,22.531 40.937,41.458 66.34,55.449 17.743,9.797 36.831,17.134 56.552,21.802 8.348,2.015 16.806,3.526 25.205,5.306 5.91,1.211 11.884,2.432 17.711,3.637 3.521,0.769 7.077,1.39 10.574,2.258 6.213,1.846 10.972,7.614 11.718,14.038 0.36,3.114 -0.275,6.227 -0.526,9.327 -0.796,8.352 -1.659,16.61 -2.472,24.968 -0.09,0.964 -0.171,1.773 -0.267,2.784 -0.794,7.62 -1.232,15.289 -0.908,22.95 1.037,28.98 10.719,57.607 27.602,81.196 16.561,23.285 39.871,41.764 66.459,52.287 11.854,4.73 24.318,7.846 36.946,9.626 73.701,11.965 147.374,23.933 221.07,35.927 2.333,0.429 4.707,0.663 7.011,1.226 4.657,1.435 8.293,5.699 8.941,10.536 0.174,1.037 0.257,2.131 -0.273,3.082 -0.09,0.716 -0.882,1.056 -1.449,1.11 -7.78,0.3 -15.57,0.457 -23.354,0.702 -117.077,3.354 -234.154,6.691 -351.231,10.056 -7.532,0.212 -15.054,0.783 -22.519,1.819 -35.675,4.808 -70.051,18.995 -98.677,40.831 -28.281,21.495 -51.001,50.287 -65.119,82.897 -3.715,8.456 -6.683,17.208 -9.715,25.924 -9.768,27.825 -19.587,55.632 -29.264,83.489 -10.402,33.4 -12.942,69.212 -7.38,103.749 4.354,26.992 13.64,53.171 27.238,76.889 9.543,16.669 21.243,32.093 34.688,45.809 6.291,6.458 12.766,12.732 19.107,19.141 29.779,29.76 59.564,59.515 89.317,89.301 6.595,7.103 9.993,17.061 9.053,26.715 -0.845,10.063 -5.923,19.812 -14.062,25.878 -5.071,3.833 -11.13,5.994 -17.087,8.024 -16.443,5.372 -34.318,6.357 -51.22,2.619 -17.671,-3.839 -34.255,-12.668 -47.173,-25.341 -4.477,-4.347 -8.857,-8.792 -13.321,-13.152 -75.492,-74.703 -151.009,-149.381 -226.46,-224.126 -22.58,-23.078 -38.145,-52.938 -44.043,-84.689 -5.535,-29.336 -3.031,-60.19 7.459,-88.16 4.332,-11.679 10.079,-22.806 16.805,-33.281 9.04,-14.647 16.945,-30.007 23.362,-45.984 15.558,-38.497 23.043,-80.252 21.653,-121.758 -1.316,-41.125 -11.208,-81.967 -28.975,-119.086 -5.48,-11.469 -11.077,-22.882 -16.589,-34.336 -20.148,-41.621 -40.19,-83.294 -60.348,-124.91 -28.271,-56.882 -66.45,-108.82 -112.308,-152.774 -47.421,-45.478 -103.012,-82.405 -163.314,-108.492 -16.329,-7.069 -32.976,-13.43 -49.956,-18.759 -36.72,-10.965 -76.419,-11.739 -113.539,-2.214 -33.783,8.604 -65.415,25.564 -91.196,49.039 -16.723,15.171 -30.917,33.071 -42.144,52.649 -8.195,14.433 -16.499,28.805 -24.74,43.212 -33.97,59.255 -67.95,118.486 -101.944,177.731 -9.485,15.746 -25.583,27.322 -43.518,31.337 -11.74,2.696 -24.174,2.218 -35.686,-1.317 -47.171,-13.199 -94.313,-26.499 -141.503,-39.63 -35.905,-9.286 -74.323,-8.677 -109.89,1.852 -39.962,11.739 -76.25,35.771 -102.472,68.153 -19.684,24.191 -33.799,52.886 -40.903,83.256 -3.817,15.817 -7.557,31.652 -11.349,47.475 -8.74,36.652 -17.523,73.293 -26.176,109.966 -7.359,33.711 -7.803,68.888 -1.532,102.808 6.882,37.116 22.001,72.657 43.852,103.43 19.706,27.846 45.011,51.689 73.914,69.799 13.968,8.783 28.791,16.189 44.161,22.182 71.743,28.896 143.527,57.688 215.259,86.609 14.352,5.718 28.181,12.726 41.402,20.711 31.542,19.094 59.449,44.178 81.712,73.573 2.272,2.98 4.626,6.119 6.791,9.041 12.39,16.678 24.836,33.314 37.243,49.979 15.526,20.815 31.039,41.641 46.647,62.395 40.475,53.202 84.118,103.993 130.591,152.043 53.151,54.969 110.016,106.347 170.098,153.641 66.11,52.062 136.089,99.21 209.174,140.918 98.9,56.434 203.477,102.918 311.656,138.464 23.004,7.55 46.157,14.656 69.482,21.152 62.306,17.182 126.042,29.168 190.328,35.841 78.264,8.14 157.348,8.339 235.653,0.608 52.859,-5.209 105.366,-14.01 157.026,-26.361 23.379,-5.694 46.723,-11.535 70.087,-17.293 324.179,-80.181 648.358,-160.365 972.53,-240.573 37.024,-9.546 71.34,-29.366 98.074,-56.706 25.756,-26.215 44.531,-59.235 53.794,-94.804 2.496,-9.472 4.208,-19.132 5.556,-28.827 1.635,-8.127 7.656,-15.151 15.348,-18.185 5.169,-2.117 11.097,-2.402 16.417,-0.825 101.207,26.03 202.462,52.112 303.69,78.162 1014.712,261.191 2029.424,522.382 3044.136,783.572 30.291,8.934 60.668,17.579 91.147,25.849 49.243,13.357 98.726,25.831 148.425,37.377 58.762,13.657 117.823,26.028 177.124,37.117 76.242,14.245 152.882,26.363 229.801,36.323 56.409,7.31 112.968,13.455 169.629,18.45 60.148,5.286 120.408,9.276 180.729,11.944 31.853,1.401 63.722,2.457 95.6,3.132 0.404,0 1.2,0.02 1.755,0.03 68.137,1.412 136.309,1.169 204.434,-0.759 60.464,-1.717 120.891,-4.739 181.223,-9.088 98.686,-7.11 197.222,-17.738 295.19,-31.864 53.067,-7.645 105.979,-16.347 158.715,-26.011 68.257,-12.425 136.51,-24.889 204.766,-37.326 478.218,-87.184 956.437,-174.368 1434.655,-261.553 0.352,-0.06 1.182,-0.21 1.717,-0.304 6.974,-1.252 13.953,-2.468 20.937,-3.659 0.379,-0.06 1.185,-0.198 1.727,-0.288 6.984,-1.184 13.976,-2.324 20.971,-3.444 0.362,-0.05 1.186,-0.186 1.725,-0.27 4.474,-0.709 8.95,-1.399 13.427,-2.085 0.381,-0.06 1.187,-0.18 1.731,-0.262 1.95,-0.294 3.901,-0.587 5.851,-0.881 0.355,-0.05 1.188,-0.174 1.726,-0.252 1.952,-0.286 3.904,-0.573 5.856,-0.859 0.382,-0.06 1.189,-0.171 1.733,-0.25 7.012,-1.015 14.03,-1.984 21.05,-2.936 0.366,-0.05 1.191,-0.158 1.732,-0.231 16.555,-2.214 33.137,-4.232 49.737,-6.077 0.317,-0.04 1.194,-0.13 1.725,-0.189 12.171,-1.338 24.354,-2.567 36.545,-3.71 0.292,-0.02 1.195,-0.108 1.722,-0.155 2.586,-0.235 5.493,-0.496 7.877,-0.715 l 7.863,-0.681 c 0.386,-0.03 1.197,-0.1 1.745,-0.143 9.277,-0.784 18.558,-1.502 27.843,-2.173 0.403,-0.03 1.198,-0.08 1.751,-0.124 1.554,-0.108 3.226,-0.23 4.661,-0.325 7.625,-0.525 15.253,-1.004 22.883,-1.451 0.404,-0.02 1.199,-0.07 1.753,-0.1 13.096,-0.753 26.2,-1.381 39.308,-1.902 0.404,-0.02 1.2,-0.05 1.754,-0.07 5.284,-0.204 10.568,-0.388 15.853,-0.558 0.446,-0.02 1.267,-0.04 1.856,-0.06 270.14,-8.171 540.28,-16.312 810.42,-24.472 847.973,-25.603 1695.945,-51.198 2543.918,-76.805 80.453,-2.552 160.81,-8.178 240.832,-16.878 102.443,-11.127 204.336,-27.319 305.179,-48.508 26.076,-5.495 52.069,-11.317 78.102,-16.997 440.528,-96.647 881.057,-193.294 1321.591,-289.918 80.793,-17.715 161.589,-35.422 242.377,-53.164 39.069,-9.003 76.139,-26.855 107.229,-52.212 31.989,-25.995 57.662,-59.657 74.423,-97.305 16.566,-37.061 24.613,-77.928 23.085,-118.507 -1.305,-35.973 -10.079,-71.66 -25.658,-104.114 -8.221,-17.218 -18.338,-33.505 -29.879,-48.689 -20.073,-27.32 -41.487,-53.662 -64.304,-78.738 -58.457,-64.366 -125.649,-120.799 -199.212,-167.159 -44.769,-28.241 -91.874,-52.769 -140.651,-73.323 -184.124,-78.649 -368.252,-157.291 -552.366,-235.964 -12.238,-5.513 -22.32,-15.763 -27.36,-28.232 -5.786,-13.906 -5.821,-30.247 0.531,-43.972 3.376,-7.379 8.538,-13.866 14.715,-19.102 61.011,-54.265 122.031,-108.521 183.025,-162.806 13.297,-11.871 25.851,-24.567 37.703,-37.878 33.373,-37.56 60.79,-80.417 80.789,-126.515 20.707,-47.616 33.572,-98.634 37.87,-150.382 0.373,-4.516 0.698,-9.037 0.928,-13.562 0.107,-1.979 0.215,-4.159 0.301,-6.216 1.229,-29.381 -0.333,-58.864 -4.453,-87.976 -12.483,-94.259 -24.955,-188.52 -37.465,-282.775 -4.042,-28.002 -17.531,-54.604 -37.985,-74.188 -19.767,-19.068 -45.691,-31.643 -72.914,-35.312 -24.61,-3.381 -50.207,0.462 -72.628,11.204 -12.195,5.802 -23.409,13.58 -33.336,22.722 -44.743,39.997 -89.535,79.941 -134.298,119.916 -97.73,87.245 -195.458,174.492 -293.17,261.756 -59.118,53.608 -107.795,118.693 -142.442,190.588 -24.206,50.128 -41.653,103.512 -51.723,158.26 -6.919,37.548 -10.322,75.733 -10.3,113.911 0.02,81.796 0.01,163.593 0,245.39 -0.146,27.7 -8.633,55.332 -24.269,78.217 -15.996,23.561 -39.134,42.231 -65.627,52.711 -20.022,7.975 -41.891,11.289 -63.373,9.487 -7.882,-0.622 -15.679,-1.998 -23.409,-3.626 -231.501,-45.142 -463.002,-90.29 -694.522,-135.333 -120.72,-23.484 -241.449,-46.925 -362.17,-70.402 -56.23,-11.225 -110.602,-31.708 -160.24,-60.414 -48.237,-27.86 -91.993,-63.444 -129.133,-104.959 -23.81,-26.584 -44.909,-55.591 -62.906,-86.408 -0.04,-0.07 -0.575,-0.993 -0.799,-1.378 -13.34,-22.996 -24.95,-46.994 -34.787,-71.691 -0.348,-0.892 -0.684,-1.79 -1.019,-2.687 0.01,0.02 -0.388,-1.069 -0.532,-1.471 -8.558,-23.771 -11.791,-49.437 -9.361,-74.585 3.183,-33.565 16.486,-66.033 37.489,-92.379 18.582,-23.382 43.324,-41.845 71.105,-52.838 12.578,-5.017 25.759,-8.399 39.101,-10.635 45.545,-8.483 91.1,-16.907 136.626,-25.493 58.959,-11.95 115.316,-36.494 164.269,-71.454 32.289,-23.031 61.321,-50.585 86.166,-81.491 102.963,-125.557 205.928,-251.111 308.868,-376.687 48.483,-60.049 84.626,-130.016 105.503,-204.319 17.761,-63.048 24.622,-129.152 20.129,-194.501 -2.388,-34.984 -8.05,-69.732 -16.7,-103.71 -11.456,-45.953 -22.861,-91.919 -34.298,-137.877 -21.656,-87.053 -43.27,-174.116 -64.926,-261.168 -8.947,-35.139 -26.774,-67.984 -51.436,-94.573 -23.13,-25.019 -52.16,-44.528 -84.043,-56.541 -30.627,-11.597 -63.862,-16.176 -96.49,-13.424 -11.115,0.921 -22.146,2.737 -33.007,5.258 -20.997,4.392 -43.597,0.378 -61.832,-10.91 -14.302,-8.756 -25.959,-21.808 -32.893,-37.091 -2.863,-6.217 -5.526,-12.524 -8.349,-18.759 -28.999,-65.422 -58.112,-130.792 -87.17,-196.187 -11.923,-27.636 -15.168,-58.943 -9.092,-88.427 5.274,-26.005 17.576,-50.574 35.395,-70.251 6.996,-7.791 14.901,-14.719 23.236,-21.039 24.857,-19.678 46.349,-43.579 63.334,-70.346 59.311,-91.564 118.594,-183.146 177.863,-274.737 20.234,-32.087 31.932,-69.526 33.377,-107.443 1.784,-44.113 -10.138,-88.703 -33.883,-125.938 -16.668,-26.286 -39.041,-48.938 -65.165,-65.865 -16.196,-10.604 -33.919,-19.058 -52.703,-23.906 -27.682,-7.304 -57.236,-7.411 -84.951,-0.21 -29.933,7.698 -57.744,23.654 -79.267,45.865 -16.998,17.462 -30.119,38.656 -38.238,61.63 -25.409,68.474 -50.742,136.978 -76.184,205.44 -12.794,33.738 -30.467,65.608 -52.185,94.416 -19.312,25.638 -41.886,48.811 -66.996,68.803 -8.56,6.839 -17.435,13.273 -26.5,19.422 -72.027,49.709 -144.036,99.442 -216.086,149.116 -22.618,15.002 -50.363,22.104 -77.407,19.755 -15.871,-1.322 -31.428,-5.881 -45.613,-13.095 -12.711,-6.1 -25.334,-12.544 -38.792,-16.877 -34.234,-11.438 -71.609,-13.306 -106.804,-5.283 -35.713,8.06 -69.139,26.136 -95.271,51.8 -7.349,7.155 -14.032,14.95 -21.007,22.461 -12.949,14.133 -25.847,28.316 -38.892,42.36 -5.027,4.706 -12.517,6.458 -19.152,4.719 -5.231,-1.293 -9.946,-4.676 -12.658,-9.358 -2.433,-3.885 -4.675,-7.886 -7.073,-11.793 -22.785,-38.164 -45.582,-76.322 -68.325,-114.511 -6.752,-12.208 -8.734,-26.995 -5.282,-40.527 3.513,-14.236 12.534,-27.162 25.068,-34.875 6.17,-3.879 13.127,-6.372 20.249,-7.818 98.776,-23.004 197.561,-45.969 296.328,-69.013 28.162,-7.125 53.801,-23.979 71.308,-47.186 18.404,-24.149 28.066,-54.84 26.623,-85.183 -1.164,-25.903 -10.275,-51.417 -25.947,-72.091 -5.071,-6.778 -10.352,-13.394 -15.479,-20.129 -13.474,-17.477 -27.001,-34.915 -40.381,-52.464 -13.177,-18.365 -19.417,-41.551 -17.288,-64.05 1.705,-18.95 9.149,-37.376 21.287,-52.05 2.079,-2.543 4.556,-5.262 6.601,-7.504 9.724,-10.644 19.38,-21.351 29.08,-32.017 92.82,-102.281 185.643,-204.557 278.439,-306.861 37.235,-41.933 64.908,-92.303 80.304,-146.229 14.236,-49.742 18.131,-102.435 11.189,-153.714 -1.892,-14.107 -4.722,-28.062 -7.156,-42.08 -28.453,-158.827 -56.903,-317.655 -85.386,-476.477 -14.764,-79.324 -44.017,-155.924 -85.891,-224.895 -41.058,-67.697 -94.175,-128.071 -156.185,-177.308 -28.125,-22.348 -58.051,-42.417 -89.347,-60.049 -170.213,-97.72 -340.42,-195.45 -510.636,-293.163 -39.179,-22.015 -83.089,-35.539 -127.861,-39.419 -47.432,-4.132 -95.777,2.556 -140.283,19.479 -8.978,3.421 -17.787,7.265 -26.634,11.007 -0.333,0.145 -1.106,0.467 -1.608,0.68 -7.538,3.173 -15.054,6.365 -22.593,9.549 -0.348,0.141 -1.108,0.463 -1.613,0.674 -7.152,2.968 -14.246,6.131 -21.674,8.364 -25.786,7.994 -53.819,8.608 -79.916,1.673 -24.528,-6.444 -47.349,-19.368 -65.344,-37.256 -5.449,-5.356 -10.334,-11.239 -15.239,-17.086 -15.846,-18.695 -31.754,-37.34 -47.489,-56.129 -15.437,-19.538 -24.194,-44.255 -24.433,-69.16 -0.291,-21.872 5.759,-43.833 17.49,-62.32 4.613,-7.354 10.148,-14.09 16.138,-20.36 76.494,-83.613 152.985,-167.227 229.449,-250.867 48.556,-54.034 88.426,-115.842 117.701,-182.324 16.154,-36.651 29.054,-74.725 38.659,-113.606 12.901,-51.112 25.892,-102.202 38.712,-153.334 12.665,-53.589 14.871,-109.633 6.388,-164.044 -8.345,-53.875 -27.086,-106.117 -54.9,-153.006 -20.236,-34.149 -45.273,-65.432 -74.066,-92.752 -51.923,-49.252 -103.813,-98.5388 -155.743,-147.7845 -10.655,-10.091 -21.276,-20.2184 -31.952,-30.2866 -27.935,-25.5238 -63.171,-43.002 -100.448,-49.5831 -36.378,-6.5257 -74.531,-2.9203 -109.002,10.4317 -32.771,12.6384 -62.18,33.9468 -84.226,61.3064 -6.1,7.5585 -11.813,15.4171 -17.736,23.1129 -86.656,113.9592 -173.309,227.9202 -259.991,341.8592 -10.809,13.605 -27.788,22.08 -45.162,22.513 -5.92,0.209 -11.844,0.05 -17.766,0.16 -11.826,0.04 -23.654,0.222 -35.48,0.105 -8.856,-0.671 -17.055,-6.935 -19.879,-15.382 -1.235,-3.561 -1.48,-7.349 -2.183,-11.029 -14.45,-87.347 -28.936,-174.688 -43.317,-262.046 -6.018,-40.6448 -2.179,-82.7222 11.203,-121.5759 12.257,-35.7757 32.484,-68.7985 58.822,-95.9391 42.87,-44.3855 85.812,-88.7711 128.713,-133.1573 71.454,-73.9111 142.906,-147.8234 214.345,-221.7484 31.443,-33.1713 56.596,-72.2674 73.818,-114.6012 10.236,-25.0922 17.6,-51.3371 22.099,-78.0559 1.346,-7.7974 2.336,-15.6493 3.285,-23.503 11.931,-93.3961 23.862,-186.7924 35.755,-280.1933 2.824,-26.491 -3.846,-53.9488 -18.826,-76.0133 -15.591,-23.2453 -39.847,-40.5168 -66.931,-47.5941 -24.23,-6.4056 -50.579,-4.6449 -73.652,5.1906 -7.41,3.1073 -14.399,7.1065 -21.266,11.253 -35.021,20.5164 -70.075,40.9758 -105.036,61.5918 -54.418,32.9313 -103.191,75.1408 -143.684,124.1873 -16.938,20.5169 -32.405,42.2413 -46.324,64.914 -5.655,9.2339 -11.172,18.5507 -16.787,27.8086 -77.607,128.7263 -155.219,257.4467 -232.797,386.1904 -46.812,79.0891 -79.726,166.3768 -96.781,256.6849 -11.903,62.9377 -16.173,127.3167 -12.652,191.274 1.029,18.9638 2.952,37.8629 4.501,56.7879 3.444,40.17 6.933,80.337 10.321,120.512 0.581,7.817 0.973,15.648 1.195,23.483 0,0.236 0.03,1.199 0.04,1.715 0.03,1.255 0.05,2.51 0.08,3.765 0,0.237 0.02,1.2 0.02,1.716 0.06,3.999 0.06,7.998 0.02,11.997 0,0.278 -0.01,1.2 -0.02,1.726 0,0.749 -0.01,0.981 -0.02,1.632 -0.226,13.509 -0.994,27.007 -2.29,40.455 -0.03,0.275 -0.118,1.194 -0.171,1.717 -1.214,12.167 -2.87,24.289 -4.954,36.337 -0.03,0.195 -0.208,1.18 -0.296,1.681 -5.249,29.774 -13.187,59.069 -23.659,87.429 -3.515,9.461 -7.181,18.864 -10.749,28.305 -42.43,111.393 -84.867,222.782 -127.344,334.156 -2.095,5.375 -4.043,10.808 -6.252,16.137 -12.986,30.884 -34.86,57.971 -62.36,77.116 -25.89,18.135 -56.648,29.276 -88.169,31.768 -6.517,0.549 -13.06,0.645 -19.597,0.674 -49.494,0.799 -98.7,14.845 -141.164,40.284 -37.432,22.335 -69.616,53.404 -93.192,90.071 -6.109,9.559 -11.717,19.425 -17.573,29.139 -88.676,148.948 -177.34,297.903 -266.024,446.847 -20.265,33.225 -49.249,61.085 -83.299,79.941 -30.247,16.818 -64.383,26.617 -98.959,28.266 -10.095,0.519 -20.205,0.222 -30.308,0.292 -45.382,0 -90.765,0.03 -136.147,-0.06 -46.762,-0.775 -93.342,-11.013 -136.121,-29.913 -45.109,-19.869 -85.921,-49.396 -118.947,-85.983 -150.6,-164.465 -301.204,-328.937 -451.783,-493.413 -6.665,-7.283 -13.356,-14.546 -19.738,-22.081 -9.767,-11.432 -19.095,-23.239 -27.977,-35.371 -0.156,-0.208 -0.706,-0.971 -1.014,-1.392 -1.45,-1.989 -2.882,-3.992 -4.31,-5.997 -0.147,-0.217 -0.692,-0.981 -0.991,-1.408 -5.496,-7.799 -10.805,-15.73 -15.925,-23.78 -0.149,-0.229 -0.642,-1.014 -0.923,-1.457 -12.123,-19.182 -23.163,-39.049 -33.05,-59.474 -0.114,-0.229 -0.52,-1.081 -0.747,-1.55 -21.671,-45.129 -37.684,-92.971 -47.579,-142.045 -2.99,-14.846 -5.411,-29.806 -7.276,-44.835 -0.02,-0.183 -0.143,-1.189 -0.202,-1.691 -1.788,-14.642 -3.046,-29.861 -3.72,-44.276 -0.116,-2.498 -0.233,-5.507 -0.313,-7.689 -0.128,-3.841 -0.223,-7.683 -0.284,-11.526 0,-0.179 -0.01,-1.197 -0.02,-1.702 -0.225,-17.323 0.346,-35.115 1.61,-52.104 2.961,-38.766 6.062,-77.521 8.931,-116.294 1.723,-24.917 1.671,-49.952 0,-74.872 -3.64,-54.153 -15.134,-107.78 -34.113,-158.634 -14.41,-38.714 -33.203,-75.967 -55.757,-110.655 -30.994,-47.3611 -61.924,-94.7646 -92.979,-142.0854 -19.966,-29.3747 -48.245,-53.0751 -80.788,-67.3482 -34.634,-15.2921 -73.822,-20.064 -111.111,-13.5012 -28.122,4.9147 -55.159,16.1109 -78.369,32.7569 -18.282,13.0873 -34.139,29.4751 -46.924,47.9522 -54.526,75.7297 -109.054,151.4577 -163.542,227.2147 -50.333,70.875 -94.282,146.277 -131.211,224.97 -20.621,43.957 -39.042,88.946 -55.17,134.743 -19.577,55.587 -35.771,112.364 -48.473,169.912 -3.309,15.044 -6.38,30.14 -9.576,45.208 -44.027,209.659 -88.034,419.321 -132.059,628.98 -5.863,26.52 -20.415,51.038 -40.914,68.861 -19.518,17.09 -44.278,28.174 -70.084,31.039 -7.841,0.906 -15.754,0.992 -23.632,0.643 -50.055,-1.229 -100.373,11.338 -143.954,35.996 -30.711,17.32 -58.123,40.485 -80.242,67.948 -84.617,104.09 -169.191,208.216 -253.838,312.281 -22.954,27.744 -48.292,53.511 -75.618,76.959 -0.209,0.173 -0.913,0.779 -1.312,1.119 -28.873,24.639 -59.962,46.685 -92.786,65.748 -0.173,0.09 -1.039,0.598 -1.48,0.85 -17.654,10.218 -35.812,19.562 -54.37,28.029 0,-0.01 -1.038,0.467 -1.431,0.642 -8.2,3.72 -16.487,7.246 -24.836,10.618 0.03,0 -1.056,0.42 -1.453,0.579 -39.902,15.948 -81.432,27.814 -123.733,35.368 -0.06,0 -1.128,0.197 -1.563,0.271 -25.117,4.423 -50.502,7.315 -75.968,8.69 -0.04,0 -1.143,0.06 -1.581,0.08 -15.067,0.795 -30.161,0.961 -45.246,0.731 -89.132,-0.914 -178.263,-1.864 -267.395,-2.783 -70.176,-0.728 -140.353,-1.454 -210.529,-2.16 -50.261,0.01 -100.492,10.099 -146.872,29.463 -55.38,23.081 -105.19,59.417 -143.996,105.183 -4.536,5.285 -8.793,10.803 -13.253,16.151 -16.608,19.315 -39.815,32.836 -64.818,37.725 -13.623,2.708 -27.72,2.829 -41.425,0.64 -45.895,-6.157 -91.777,-12.411 -137.684,-18.475 -36.96,-4.299 -74.574,-2.814 -111.095,4.287 -32.929,6.396 -64.944,17.432 -94.846,32.628 -28.948,14.701 -55.924,33.288 -79.917,55.166 -7.478,6.822 -14.707,13.909 -22.068,20.856 -98.457,93.625 -196.902,187.262 -295.377,280.868 -11.779,10.785 -28.255,16.188 -44.136,14.536 -11.066,-1.08 -21.771,-5.473 -30.424,-12.453 -13.957,-10.963 -23.393,-27.468 -25.801,-45.049 -2.092,-14.745 0.586,-30.173 7.819,-43.218 3.072,-5.532 6.67,-10.747 9.963,-16.146 90.035,-143.273 180.061,-286.551 270.109,-429.816 18.208,-28.677 44.514,-52.167 75.133,-66.9 30.349,-14.715 64.751,-21.021 98.339,-17.807 24.891,2.324 49.284,9.806 71.193,21.847 7.525,4.141 14.938,8.482 22.423,12.696 51.513,29.271 103.008,58.574 154.549,87.797 38.843,21.203 83.25,32.121 127.501,31.232 42.379,-0.78 84.539,-12.208 121.441,-33.079 18.088,-10.206 34.874,-22.665 50.088,-36.791 71.671,-64.314 143.346,-128.625 214.988,-192.971 38.85,-35.756 69.564,-80.311 89.075,-129.379 15.581,-39.071 24.149,-80.92 25.19,-122.97 1.301,-52.015 -9.037,-104.293 -30.108,-151.871 -4.462,-10.103 -9.427,-19.971 -14.191,-29.931 -25.838,-53.581 -51.767,-107.359 -77.692,-160.991 -7.688,-15.796 -15.901,-31.335 -24.522,-46.64 -44.58,-79.076 -101.06,-151.439 -167.011,-213.82 -53.662,-50.804 -113.534,-95.048 -177.88,-131.386 -23.359,-13.212 -47.326,-25.339 -71.749,-36.456 -146.982,-67.058 -293.956,-134.133 -440.935,-201.198 -164.191,-74.918 -328.377,-149.847 -492.57,-224.759 -40.651,-18.172 -85.214,-27.634 -129.756,-27.19 -50.732,0.436 -101.286,13.535 -145.887,37.705 -38.849,20.966 -73.248,50.192 -100.013,85.313 -23.935,31.347 -41.79,67.306 -52.341,105.307 -3.426,12.359 -6.018,24.927 -9.142,37.362 -2.549,10.389 -5.213,20.749 -7.969,31.085 -0.08,0.324 -0.312,1.16 -0.451,1.68 -5.757,21.451 -11.977,42.778 -18.629,63.969 -0.102,0.309 -0.363,1.144 -0.526,1.655 -0.45,1.422 -0.901,2.844 -1.351,4.266 -0.102,0.333 -0.366,1.144 -0.531,1.66 -0.456,1.42 -0.912,2.84 -1.367,4.26 -0.115,0.342 -0.372,1.142 -0.541,1.659 -6.847,21.126 -14.151,42.103 -21.885,62.92 -0.13,0.333 -0.421,1.124 -0.613,1.633 -23.427,62.793 -50.877,124.085 -82.112,183.382 -0.123,0.241 -0.562,1.061 -0.806,1.524 -18.128,34.32 -37.554,67.952 -58.125,100.865 -247.919,399.073 -495.842,798.144 -743.768,1197.212 -9.52,14.89 -25.161,25.703 -42.45,29.366 -14.751,3.207 -30.569,1.282 -44.082,-5.465 -10.914,-5.381 -20.299,-13.831 -26.709,-24.182 -7.818,-12.451 -11.496,-27.517 -9.932,-42.163 0.696,-7.004 2.646,-13.829 5.298,-20.332 89.963,-239.84 179.921,-479.682 269.909,-719.512 8.452,-22.523 17.301,-44.895 26.489,-67.127 0.109,-0.251 0.463,-1.108 0.666,-1.591 1.151,-2.764 2.451,-5.872 3.508,-8.419 5.513,-13.114 11.146,-26.176 16.895,-39.188 0.111,-0.258 0.488,-1.096 0.701,-1.577 25.606,-57.726 53.694,-114.349 84.144,-169.672 18.409,-33.423 37.675,-66.372 57.782,-98.801 0.2,-0.33 0.634,-1.02 0.924,-1.487 4.444,-7.155 8.932,-14.281 13.457,-21.384 0.215,-0.343 0.646,-1.012 0.944,-1.48 4.532,-7.099 9.109,-14.17 13.718,-21.22 0.212,-0.33 0.659,-1.003 0.961,-1.465 10.608,-16.219 21.501,-32.25 32.452,-48.24 183.669,-269.031 367.362,-538.046 551.045,-807.068 22.977,-33.033 53.932,-60.478 89.515,-79.274 34.08,-18.078 72.314,-28.282 110.879,-29.487 20.436,-0.664 40.934,1.227 60.949,5.376 153.235,29.245 306.47,58.496 459.71,87.714 33.071,6.092 67.553,4.44 99.863,-4.9 30.069,-8.688 58.175,-23.988 81.915,-44.372 26.043,-22.316 46.739,-50.825 59.866,-82.512 11.145,-26.721 16.722,-55.714 16.508,-84.656 -0.07,-10.808 -0.933,-21.611 -2.566,-32.295 -0.01,-0.09 -0.159,-1.137 -0.222,-1.578 -9.778,-69.6069 -19.516,-139.2187 -29.365,-208.8147 -8.698,-57.7697 -23.572,-114.6006 -44.207,-169.2538 -15.6,-41.3062 -34.498,-81.3681 -56.492,-119.6546 -28.521,-49.7202 -62.244,-96.4449 -100.376,-139.2382 -266.235,-301.3887 -532.476,-602.7721 -798.707,-904.1641 -9.236,-10.5381 -18.294,-21.2317 -27.18,-32.0669 -0.17,-0.2168 -0.757,-0.9305 -1.088,-1.3383 -3.466,-4.2377 -6.897,-8.5039 -10.31,-12.7847 -0.184,-0.2265 -0.745,-0.9408 -1.074,-1.3547 -5.91,-7.4475 -11.729,-14.9672 -17.473,-22.5438 -0.169,-0.2313 -0.722,-0.9589 -1.038,-1.381 -3.301,-4.3678 -6.566,-8.7628 -9.811,-13.1717 -0.165,-0.2162 -0.709,-0.9687 -1.019,-1.3911 -34.511,-47.118 -65.72,-96.6519 -93.347,-148.1089 -0.102,-0.1854 -0.564,-1.0577 -0.805,-1.5085 -35.415,-66.1832 -64.875,-135.5489 -87.915,-206.9882 -24.636,-76.3102 -41.924,-154.9863 -51.585,-234.5899 -0.05,-0.3687 -0.129,-1.0689 -0.199,-1.6588 -1.065,-8.8468 -2.024,-17.7062 -2.906,-26.573 -0.03,-0.3168 -0.114,-1.195 -0.165,-1.7272 -0.471,-4.8212 -0.907,-9.6457 -1.323,-14.472 -0.03,-0.3348 -0.1,-1.1965 -0.146,-1.7332 -0.855,-10.1412 -1.576,-20.2935 -2.184,-30.4523 -0.02,-0.3697 -0.07,-1.1988 -0.102,-1.7443 -0.746,-12.8376 -1.296,-25.6865 -1.65,-38.5409 -0.01,-0.3703 -0.03,-1.2003 -0.05,-1.7467 -0.143,-5.3903 -0.243,-10.7816 -0.321,-16.1732 0,-0.3451 -0.01,-1.2006 -0.02,-1.7413 -0.12,-9.8729 -0.116,-19.7471 0,-29.62 0,-0.3704 0.02,-1.2007 0.02,-1.7471 0.05,-3.8972 0.12,-7.7939 0.204,-11.6904 0.01,-0.3451 0.03,-1.2004 0.04,-1.7409 0.09,-3.8994 0.204,-7.7982 0.331,-11.6966 0.03,-0.8888 0.07,-2.0657 0.104,-3.0651 1.069,-29.5078 3.167,-59.1329 6.314,-88.5514 1.817,-17.219 4.063,-34.3898 6.536,-51.526 21.626,-153.1271 43.313,-306.245 64.915,-459.3748 6.349,-47.4775 8.535,-95.4927 6.488,-143.3441 -2.374,-55.2251 -10.379,-110.2062 -23.871,-163.8109 -16.724,-66.5905 -41.917,-131.0468 -74.767,-191.3361 -27.987,-51.4166 -61.55,-99.7926 -99.904,-144.0179 -22.517,-25.9975 -46.716,-50.53 -72.315,-73.4971 -42.407,-37.975 -84.788,-75.9795 -127.182,-113.969 -32.989,-29.584 -65.995,-59.1485 -98.972,-88.7446 -41.688,-38.1426 -76.636,-83.6317 -102.725,-133.7539 -26.025,-49.9109 -43.284,-104.3763 -50.734,-160.1707 -0.385,-2.8686 -0.738,-5.7413 -1.077,-8.6158 0,-0.025 -0.126,-1.1352 -0.173,-1.5684 -1.745,-15.4913 -2.735,-31.0671 -2.985,-46.6542 0,-0.029 -0.01,-1.1426 -0.02,-1.5788 -0.1,-7.5296 -0.01,-15.0613 0.241,-22.5873 0,-0.028 0.04,-1.1417 0.06,-1.5776 0.513,-14.4931 1.791,-28.9488 3.523,-43.3442 3.506,-28.94 5.259,-58.2643 5.262,-87.4817 0,-38.2167 -2.965,-76.4347 -8.883,-114.1905 -11.346,-72.436 -33.666,-143.1329 -65.896,-208.9853 -22.53,-46.0796 -49.988,-89.7281 -81.566,-130.1409 -179.832,-231.768 -359.65,-463.5476 -539.483,-695.3144 -7.732,-9.9851 -15.565,-19.8918 -23.634,-29.6072 -62.467,-75.4957 -135.414,-142.3134 -216.132,-197.8719 -75.488,-51.9966 -157.721,-94.1953 -244.003,-125.1441 -79.228,-28.4588 -161.852,-47.4389 -245.555,-56.4242 -13.491,-1.4414 -27.005,-2.6645 -40.507,-4.007 -41.901,-4.0505 -83.795,-8.1665 -125.705,-12.1241 -8.785,-0.7122 -17.592,-1.1562 -26.404,-1.3572 -0.768,-0.3894 -1.463,-0.9943 -2.275,-1.2513 -2.037,-0.2142 -4.077,-0.5067 -6.113,-0.6724 -0.771,0.1386 -1.543,0.2773 -2.315,0.4159 z" />
    <path
       d="m 25135.2,6642.3 -83.6,266.7 c -13.7,43.7 -71.7,52.7 -98,15.1 l -199.3,-285 c -6.2,-8.9 -14.9,-15.7 -25,-19.7 L 24467.5,6516 c -16.6,-6.6 -29.1,-20.9 -33.3,-38.3 l -219.4,-899.1 c -3.9,-16.1 -0.4,-33.1 9.6,-46.4 l 197,-260.5 c 14.7,-19.4 40.3,-26.9 63.1,-18.6 57.9,21.2 165.8,60.9 214.7,78.9 15.9,5.8 28.2,18.7 33.4,34.8 l 402.5,1241.9 c 3.5,10.9 3.6,22.7 0.1,33.6"
       style="fill:#00ff00;fill-opacity:1;fill-rule:nonzero;stroke:none;stroke-width:375;stroke-linecap:round;stroke-linejoin:round;stroke-dasharray:none;paint-order:normal"
       id="path7" />
    <path
       d="m 15323.7,16765.3 621,631.6 c 17.9,18.1 40.3,31.2 64.9,37.8 l 1479.4,397.5 c 23.2,6.2 44.4,18.2 61.8,34.8 l 948.8,908.6 c 89,85.3 35.5,235.8 -87.4,245.7 l -1819.6,146.6 c -12,0.9 -24,0.4 -35.8,-1.6 l -2163.6,-373.8 c -76.2,-13.2 -128.1,-84.6 -117.1,-161.2 v 0 c 9.3,-64.9 61.7,-115.2 126.9,-121.9 l 489.3,-50.1 c 66.9,-6.8 120,-59.4 127.5,-126.2 l 69.3,-614.8 c 6,-52.9 -17.9,-104.7 -62,-134.4 l -237.4,-160.3 c -50.3,-34 -73.7,-96.2 -58.2,-154.9 l 100.3,-380.5 c 13.5,-51.2 54.1,-90.7 105.6,-102.8 l 251.7,-59 c 48.6,-11.4 99.6,3.4 134.6,38.9"
       style="fill:#00ff00;fill-opacity:1;fill-rule:nonzero;stroke:none;stroke-width:375;stroke-linecap:round;stroke-linejoin:round;stroke-dasharray:none;paint-order:normal"
       id="path8" />
    <path
       d="m 12421.4,18240.6 710.6,-46.6 c 17.3,-1.1 34.1,-6.6 48.7,-15.9 l 464.5,-295.8 c 29.7,-19 47.7,-51.7 47.7,-87 v -104.1 c 0,-37.4 20.2,-71.9 52.9,-90.1 l 103,-57.3 c 66.4,-37 71.3,-130.8 9,-174.4 l -44.5,-31.3 c -30.3,-21.2 -69.6,-24.6 -103,-8.9 l -168.7,79.3 c -36.5,17.1 -79.5,11.4 -110.3,-14.5 v 0 c -34.7,-29.3 -46.2,-77.9 -28.2,-119.6 l 38.7,-89.8 c 16,-37.2 8.7,-80.5 -18.7,-110.4 l -102.9,-112.3 c -24.4,-26.5 -60.8,-38.5 -96.2,-31.4 l -340.5,68.1 c -7.4,1.5 -14.5,3.8 -21.4,6.8 l -272.7,120.3 c -81.5,36 -82.1,151.4 -1,188.2 l 429.5,195 c 39.4,17.9 63.4,58.5 60.2,101.6 l -3.9,51.9 c -2.7,35.3 -23.3,66.8 -54.6,83.3 l -217.1,114.9 c -14.4,7.7 -30.5,11.8 -46.9,12 l -519.8,6.5 c -94.5,1.2 -137.7,118.3 -66.6,180.6 l 177.5,155.6 c 20.6,18 47.4,27.1 74.7,25.3"
       style="fill:#00ff00;fill-opacity:1;fill-rule:nonzero;stroke:none;stroke-width:375;stroke-linecap:round;stroke-linejoin:round;stroke-dasharray:none;paint-order:normal"
       id="path9" />
    <path
       d="m 11675.6,17817.2 -21.6,-75.6 c -10.7,-37.7 4.1,-78.1 36.7,-100 l 57.2,-38.2 c 45.9,-30.7 105.4,-32.1 152.8,-3.8 l 241.8,144.8 c 49.8,29.8 112.2,28.4 160.5,-3.7 v 0 c 56.5,-37.4 59.6,-119.1 6.1,-160.7 l -169.9,-132 c -44.1,-34.2 -99.2,-51.2 -155,-47.8 l -101.2,6.3 c -92.5,5.7 -184.8,-14.9 -266.1,-59.5 l -1066.4,-584.9 c -78.7,-43.1 -129.4,-123.9 -134.1,-213.5 v 0 c -6.2,-119.2 61.8,-229.9 171,-278.1 l 418.6,-184.9 c 69.1,-30.5 102.9,-109.2 77.4,-180.4 l -28,-78 c -22.8,-63.6 -11.4,-134.4 30.1,-187.7 l 33,-42.3 c 25.6,-32.9 76.3,-29.5 97.3,6.6 l 155.3,266.8 c 41.5,71.2 105,127 181,158.9 v 0 c 178.3,74.8 319.2,217.8 391.4,397.1 l 138.2,343.5 c 32.1,79.8 105.3,135.6 190.8,145.5 l 122.1,14.2 c 88.2,10.2 177.3,-7.8 254.6,-51.5 l 49.2,-27.8 c 60.9,-34.4 85.5,-109.6 56.6,-173.3 l -18.9,-41.7 c -24.4,-53.7 -5.8,-117.1 43.7,-149.2 v 0 c 63,-40.9 143.7,-42.5 208.3,-4.2 l 192,114 c 55.9,33.3 128.2,4.2 145.5,-58.5 l 46.3,-167 c 15.2,-54.9 5.8,-113.6 -25.8,-160.9 v 0 c -25.8,-38.9 -14.5,-91.4 25.2,-116.1 l 228.6,-142.1 c 57.7,-35.9 85.1,-105.4 67.4,-171 v 0 c -19.9,-74 -71.6,-135.3 -141.1,-167.6 l -312.9,-145.2 c -118.7,-55.1 -249.3,-79.8 -379.9,-71.9 l -170.7,10.3 c -107.3,6.4 -199.1,-76.4 -203.6,-183.8 l -6.3,-151.5 c -3.5,-82.5 48.7,-157.1 127.4,-182.2 l 118.1,-37.6 c 45.2,-14.3 50.2,-76.2 8,-97.7 l -351.1,-178.8 c -51.5,-26.2 -114.4,-12.2 -149.9,33.3 v 0 c -41.2,52.9 -114.6,67.9 -173.3,35.6 l -1024.9,-565.1 c -131.4,-72.5 -213,-210.7 -213,-360.7 v 0 c 0,-145.9 -68.5,-283.3 -185,-371 l -522.4,-393.3 c -99.6,-75 -152.35,-197 -138.81,-320.9 l 37.34,-341.8 c 4.52,-41.4 -11.35,-82.3 -42.54,-109.8 l -56.14,-49.6 c -32.53,-28.7 -83.76,-15.6 -98.57,25.2 l -104.36,287.4 c -52.62,144.9 -183.6,246.9 -337,262.3 l -243.85,24.6 c -184.73,18.7 -371.21,-8.6 -542.85,-79.5 l -191.24,-78.9 c -254.72,-105.1 -444.18,-325.3 -510.19,-592.8 l -27.47,-111.3 c -39.63,-160.6 -18.18,-330.2 60.17,-475.8 v 0 c 72.18,-134.2 219.95,-209.7 370.99,-189.5 l 142.06,19 c 56.28,7.5 104.84,43.2 128.86,94.7 l 53.93,115.6 c 30.99,66.4 96.63,109.8 169.88,112.3 l 170.98,1.8 c 50.13,0.5 86.34,-47.9 71.79,-95.8 l -150.56,-496.7 c -24.57,-81.1 33.05,-163.8 117.59,-168.8 l 276.82,-1.5 c 65.13,-0.3 112.1,-62.5 94.62,-125.3 l -86.1,-309 c -30.73,-110.3 -2.38,-228.6 74.99,-313 l 94.89,-103.5 c 48.62,-53.1 124.36,-71.7 192.03,-47.2 l 110.88,40.1 c 60.9,22 128.77,12.4 181.19,-25.6 v 0 c 69.77,-50.7 167.57,-33.9 216.47,37.1 l 91.4,132.7 c 61.8,89.6 163.3,143.6 272.2,144.7 l 508.9,5.3 c 36.8,0.4 70.8,-19.2 89,-51.2 v 0 c 28.3,-49.7 77,-84.5 133.3,-95.1 l 535.6,-100.6 c 115.4,-21.7 221.1,-78.9 302.4,-163.6 l 188.2,-195.9 c 77.5,-80.8 174.7,-140.1 281.9,-172.1 l 137.1,1.7 c 204.8,2.5 388.9,-124.7 458.9,-317.3 l 42.5,-117.1 c 104.8,-288.2 333.6,-513.9 623.3,-614.7 l 860.7,-299.6 c 235.4,-81.9 365,-334.1 294.7,-573.2 l -492.6,-1675 c -44.6,-151.6 -160.3,-272.1 -309.9,-322.9 l -365,-123.8 c -145.1,-49.2 -230.6,-199 -199.3,-348.9 l 32.8,-156.9 c 12.7,-60.6 4.1,-123.6 -24.2,-178.6 l -540.8,-1051 c -56.4,-109.5 -160.6,-186.4 -281.9,-208 l -133.4,-23.6 c -92.1,-16.4 -168.3,-81 -199.4,-169.2 L 12224,2682.7 c -37.4,-106.1 13.5,-223 116.7,-267.7 v 0 c 116.2,-50.5 158.7,-193.7 88.8,-299.3 l -98.2,-148.5 c -52.8,-79.8 -38.8,-186.3 32.8,-249.9 l 350.4,-310.7 c 29.9,-26.5 20.7,-75.2 -16.7,-89 v 0 c -70.8,-26.1 -149.4,-20.8 -216.1,14.6 l -184.2,97.7 c -453.1,240.4 -782.6,662.1 -906.3,1159.8 l -236.9,952.7 c -22.2,89.2 -35.3,180.4 -39.1,272.3 l -84.2,2012.8 c -10.8,256.2 -154,488.4 -378.1,612.9 l -91,50.6 c -244.7,135.9 -443.1,341.9 -569.68,591.6 l -361.19,712.2 c -106.01,209 -100.67,457.2 14.23,661.5 l 260.03,462.2 c 69.65,123.8 95.31,267.6 72.69,407.9 l -30.81,191.4 c -19,118 -121.31,204.4 -240.84,203.5 l -141.72,-1.1 c -84.73,-0.7 -167.43,25.9 -235.88,75.8 l -168.24,122.7 c -92.77,67.7 -165.81,158.9 -211.6,264.2 l -22.53,51.8 c -49.39,113.6 -145.61,200.3 -263.76,237.5 l -159.03,50.1 c -99.59,31.4 -189.25,88.2 -260.07,165 l -99.19,107.4 c -47.9,51.9 -121.75,70.9 -188.74,48.6 v 0 c -92.79,-30.9 -194.19,-22.6 -280.69,23 l -674.87,356.1 c -66.65,35.2 -102.4,109.9 -87.99,183.9 v 0 c 17.29,88.7 2.06,180.6 -42.88,259.1 l -400.73,699.2 c -48.51,84.7 -80.51,177.7 -94.31,274.3 l -25.27,176.9 c -4.59,32.1 -26.64,59 -57.22,69.8 l -39.09,13.8 c -44.69,15.8 -92.98,-11.8 -102.14,-58.3 v 0 c -10.35,-52.5 -6.38,-106.9 11.51,-157.4 l 291.13,-821.9 c 7.91,-22.4 -0.36,-47.2 -20.08,-60.4 v 0 c -27.5,-18.3 -64.78,-9.7 -81.43,18.9 l -214.15,367.1 c -85.64,146.8 -133.58,312.5 -139.56,482.4 l -7.46,212.3 c -4.16,118.3 -47.45,232 -123.1,323.1 l -115.35,139 c -51.6,62.2 -81.84,139.3 -86.25,220 l -16.62,303.6 c -9.02,164.9 44.22,327.2 149.19,454.7 l 666.75,809.8 c 65.19,79.1 80.59,188.1 39.88,282.3 l -135.07,312.3 c -46.74,108.2 -69.41,225.1 -66.43,342.8 l 4.1,162.1 c 3.03,119.8 -64.89,230.1 -173.23,281.4 l -479.97,226.9 c -99.37,47 -213.52,51.8 -316.5,13.4 l -778.5,-290.6 -902.88,-354 c -26.9,-10.5 -57.38,-5.8 -79.87,12.3 v 0 c -30.99,25 -23.66,74.1 13.26,88.9 l 361.8,145.6 c 75.07,30.2 91.19,129.3 29.56,181.7 l -84.08,71.5 c -43.2,36.8 -50.89,100.5 -17.66,146.5 l 62.14,86 c 53.53,74 133.02,125.2 222.61,143.2 l 390.72,78.6 c 38.46,7.7 69.75,35.6 81.83,72.9 v 0 c 9.02,27.9 -10.9,56.8 -40.16,58.2 l -121.72,6 c -50.35,2.5 -86.52,49.5 -76.09,98.8 v 0 c 10.54,49.8 51.17,87.7 101.61,94.6 l 365.55,50.7 c 68.24,9.4 121.77,63.3 130.81,131.6 v 0 c 9.13,68.9 61.97,124 130.5,135.9 l 1066.49,185.8 c 118.14,20.6 238.8,22.1 357.42,4.5 l 727.98,-107.9 c 62.37,-9.2 125.52,-12 188.46,-8.2 l 1215.39,72.5 c 75.92,4.6 152.08,-3.2 225.54,-22.9 l 431.43,-115.9 c 31.86,-8.5 54.61,-36.6 56.39,-69.5 v 0 c 2.2,-40.7 33.78,-73.7 74.33,-77.6 l 462.99,-45 c 35.78,-3.4 71.81,-4.3 107.71,-2.6 l 1151.6,55.9 c 47.5,2.3 90.8,28.2 115.2,69.1 l 33.4,55.9 c 17.6,29.5 7.1,67.6 -23,84 v 0 c -34.5,18.7 -39,66.6 -8.5,91.4 l 28.5,23.2 c 38.2,31 88.9,42.1 136.6,29.6 l 157.1,-41 c 33.3,-8.6 52.9,-43 43.4,-76"
       style="fill:#00ff00;fill-opacity:1;fill-rule:nonzero;stroke:none;stroke-width:375;stroke-linecap:round;stroke-linejoin:round;stroke-dasharray:none;paint-order:normal"
       id="path10" />
  </g>
  <rect
     style="fill:#0000ff;fill-opacity:0;stroke:none;stroke-width:50;stroke-linecap:round;stroke-linejoin:round"
     id="rect11"
     width="5599.918"
     height="3081.2944"
     x="1.864035e-06"
     y="1.7527174e-06" />
</svg>
