<?xml version="1.0" encoding="UTF-8" standalone="no"?>
<!-- Created with Inkscape (http://www.inkscape.org/) -->

<svg
   version="1.1"
   id="svg2"
   width="4524.2427"
   height="2462.2842"
   viewBox="0 0 4524.2426 2462.2842"
   xmlns="http://www.w3.org/2000/svg"
   xmlns:svg="http://www.w3.org/2000/svg">
  <defs
     id="defs6" />
  <g
     id="g14"
     transform="matrix(0.13333333,0,0,-0.13333333,-434.27271,2595.7759)"
     style="fill:#0000fe;fill-opacity:1;stroke:none;stroke-width:375;stroke-linecap:round;stroke-linejoin:round;stroke-dasharray:none;paint-order:normal">
    <path
       d="m 35052.199,3259.0996 c -229.943,0 -429.063,159.1709 -479.801,383.3887 l -0,0.014 -71.049,314.123 -606.086,152.8516 -962.69,-398.4375 -0.154,-0.062 c -93.443,-38.5516 -196.639,-47.5669 -295.814,-25.2715 l -0.1,0.021 -314.385,70.8984 c -246.735,55.541 -411.69,290.574 -379.945,541.5195 0,0 0,0.01 0,0.014 l 169.795,1346.0684 0.01,0.082 c 23.818,187.9894 153.407,345.8454 333.804,405.3789 l 742.998,245.5137 1339.518,992.3164 0.08,0.057 c 113.358,83.8646 256.262,114.9685 394.09,86.0195 l 0.252,-0.053 224.724,-47.6055 0,-0 c 263.789,-55.6705 427.22,-312.229 382.276,-566.7129 l 1.216,-0.6484 75.239,162.3105 c 182.902,394.9277 753.233,373.9921 906.66,-33.3301 l 0,-0.01 644.25,-1710.2988 v -0 c 59.094,-156.2153 34.652,-331.3867 -63.996,-465.3945 l -0.02,-0.023 -922.465,-1252.5899 -0.05,-0.064 c -92.81,-125.8836 -239.276,-200.0723 -395.966,-200.0723 z"
       style="fill:#0000fe;fill-opacity:1;fill-rule:nonzero;stroke:none;stroke-width:375;stroke-linecap:round;stroke-linejoin:round;stroke-dasharray:none;paint-order:normal"
       id="path1" />
    <path
       d="m 36739.822,7023.1992 -5.972,0.2383 c -108.988,4.345 -211.663,51.3789 -286.135,130.9121 l -0.141,0.1504 -72.027,77.1328 c -88.19,-76.0737 -204.981,-112.0645 -322.451,-97.1426 l -184.356,23.1836 -0.23,0.029 c -136.409,17.3677 -255.266,101.2043 -317.446,223.7559 l -0.09,0.1797 -146.604,289.9101 -482.984,196.3496 c -95.427,38.6077 -172.264,111.0058 -216.877,202.3907 l -0.07,0.1484 -105.487,216.6758 -0.01,0.029 c -118.646,243.8422 23.102,532.165 288.757,587.0508 170.455,35.2295 343.832,-39.2411 435.69,-187.0118 l 12.9,-20.7246 39.031,24.5879 0.02,0.01 c 114.679,72.2185 256.88,83.8007 381.691,31.1914 l 814.192,-342.7441 c 80.668,-33.7933 148.552,-92.2561 193.943,-167.0489 l 340.065,-559.9375 0,-0.014 c 171.231,-282.0048 -40.99,-642.0927 -370.578,-629.0684 l 11.846,-0.2344 z"
       style="fill:#0000fe;fill-opacity:1;fill-rule:nonzero;stroke:none;stroke-width:375;stroke-linecap:round;stroke-linejoin:round;stroke-dasharray:none;paint-order:normal"
       id="path2" />
    <path
       id="path3"
       style="fill:#0000fe;fill-opacity:1;fill-rule:nonzero;stroke:none;stroke-width:375;stroke-linecap:round;stroke-linejoin:round;stroke-dasharray:none;paint-order:normal"
       d="m 21700.066,3696.5918 -38.464,6.9141 c -0.805,0.1445 -1.552,0.2796 -2.247,0.4043 l -10.802,1.9394 c -46.748,3.9915 -92.667,12.2286 -137.824,24.7442 l -551.834,99.0722 182.998,130.7129 c -27.877,31.9175 -53.405,65.8343 -75.522,101.8926 -21.46,34.9329 -39.534,70.8727 -54.535,107.0449 l -0.117,0.2813 -0.117,0.2812 c -4.32,10.4762 -9.865,24.124 -13.399,32.7168 l -0.08,0.2031 -0.08,0.2032 c -165.699,404.5848 -331.411,809.178 -497.109,1213.7734 l -0.174,0.4258 -0.174,0.4277 c -28.354,69.8448 -53.694,140.8843 -75.951,212.8574 -34.914,112.8813 -62.273,228.2266 -81.748,344.875 -16.38,98.0648 -27.203,197.0336 -32.43,296.2735 -0.25,4.7003 -0.483,9.3934 -0.699,14.0996 0,0 0,0 0,0.01 -3.077,65.4109 -3.745,130.9955 -1.953,196.5723 0,0 0,0 0,0 0,0 0,0.01 0,0.012 2.358,86.3953 8.967,172.6969 19.806,258.4707 9.539,75.5338 22.345,150.6611 38.379,225.1035 l 0,0.01 0,0.01 c 11.648,54.0594 24.992,107.6922 39.973,160.8027 l -0.299,-1.0723 c 3.79,13.629 6.073,21.7013 6.707,24.2676 l 0.156,0.6348 0.161,0.6347 c 9.004,35.7608 13.343,73.1241 12.771,109.9532 l -0,0.023 v 0.022 c -0.349,22.6981 -2.536,45.5383 -6.521,68.0312 l 3.257,-15.8769 c -7.631,32.6798 -3.576,17.6104 -3.334,16.2773 l -0.04,0.2364 -0.04,0.2363 c -6.232,34.6314 -16.921,68.8388 -31.509,100.8476 l -0.04,0.086 -0.04,0.086 c -4.081,8.9692 -9.32,20.0591 -15.471,33.3809 -96.016,206.7187 -192.065,413.4811 -288.084,620.2265 l -0.377,0.8145 -0.375,0.8184 c -43.306,94.7247 -74.761,194.6866 -93.582,296.9609 -19.145,103.8968 -25.121,209.9954 -17.943,315.1484 3.959,58.2621 11.989,116.1071 23.886,172.9649 l 0.05,0.2441 0.05,0.2422 c 2.308,10.9403 2.602,13.7087 1.844,8.166 l 0.144,1.0567 0.152,1.0546 c 0.176,1.2222 -0.04,3.8018 -0.207,4.4317 l -0.04,0.1523 -0.04,0.1524 c -0.355,1.3177 -1.878,4.0938 -2.39,4.6972 l -0.04,0.051 -0.04,0.051 c -0.649,0.7644 -1.937,1.8868 -2.82,2.4453 l -0.288,0.1817 -0.289,0.1836 c -88.067,55.9366 -176.15,111.8929 -264.191,167.791 l 0.107,-0.066 c -18.087,11.4731 -35.707,22.6912 -52.986,33.6269 -22.066,13.7308 -45.878,25.2856 -70.521,34.1914 l -0.09,0.029 -0.909,0.3262 c -5.117,1.8367 -10.654,3.6782 -16.591,5.5058 0.02,-0.01 -0.17,0.049 -0.149,0.043 l -0.332,0.1016 -0.334,0.1 c -10.032,3.0489 -20.329,5.7038 -30.824,7.9375 -0,0 -0.01,0 -0.02,0 0.03,-0.01 -0.262,0.053 -0.234,0.047 l -0.328,0.066 -0.328,0.07 c -0.1,0.02 -0.572,0.1208 -0.879,0.1855 -8.85,1.833 -17.871,3.3612 -27.024,4.5762 0.02,-0 -0.227,0.029 -0.203,0.025 l -0.469,0.06 -0.47,0.061 c -1.014,0.1322 -3.226,0.4064 -4.176,0.5176 l -0.06,0.01 -0.06,0.01 c -5.958,0.6997 -12.042,1.2661 -18.246,1.6914 l -1.246,0.084 -1.247,0.096 c 5.076,-0.3904 2.35,-0.1739 1.297,-0.1035 l 0.391,-0.025 c -6.986,0.4575 -13.974,0.7204 -20.947,0.7871 -0,0 -0,-1e-4 -0.01,0 h -0.195 l -0.76,0.01 c -5.509,0.038 -11.105,-0.049 -16.777,-0.2597 0,0 -0,0 -0,0 l -0.387,-0.018 -0.389,-0.016 c -0.836,-0.034 -1.57,-0.065 -2.259,-0.094 -0.02,6e-4 -0.692,-0.034 -0.754,-0.037 l 0.578,0.025 c -0.535,-0.025 -0.973,-0.046 -1.451,-0.068 l -0.827,-0.049 -1.14,-0.057 c 0.328,0.017 -1.589,-0.098 -3.061,-0.1856 -8.999,-0.5845 -17.953,-1.4859 -26.82,-2.6992 l -0.397,-0.057 -0.423,-0.061 c -0.819,-0.1147 -1.699,-0.2369 -2.641,-0.3691 l -1.02,-0.1445 c -0.754,-0.099 1.137,0.1554 0.78,0.1035 l 0.211,0.031 c -8.347,-1.2187 -17.09,-2.8082 -25.803,-4.6992 l -0.279,-0.06 -0.278,-0.059 c -209.434,-45.0365 -418.919,-90.0956 -628.383,-135.1309 l -0.855,-0.1836 -0.857,-0.1797 c -103.088,-21.536 -209.286,-29.3501 -314.59,-23.0078 -79.563,4.7894 -158.723,17.6011 -235.819,38.2168 -75.742,20.2368 -149.504,47.9993 -219.789,82.7168 -82.945,40.9462 -161.019,91.5899 -232.201,150.584 -37.628,31.1647 -73.071,64.493 -106.185,99.5332 l -0.151,0.1582 -0.15,0.1582 c -12.841,13.6276 -26.606,28.2987 -38.914,41.375 l -0.05,0.053 -0.05,0.053 c -61.975,65.9036 -123.993,131.8569 -185.99,197.8339 l -0.549,0.584 -0.545,0.586 c -48.817,52.5098 -94.84,107.5137 -137.875,164.6738 l -0,0.01 -0,0.01 c -61.194,81.2894 -116.436,167.1101 -165.087,256.574 -39.719,73.018 -75.011,148.388 -105.667,225.51 l -0,0.02 -0.01,0.03 c -27.673,69.654 -51.574,140.812 -71.557,213.068 l -0,0.02 -0,0.02 c -13.671,49.452 -25.511,99.415 -35.487,149.666 l -0,0.02 -0,0.02 c -14.789,74.554 -25.452,149.877 -31.974,225.518 -2.756,31.715 -4.608,62.676 -5.959,92.1 -2.071,42.88 -4.363,88.439 -6.381,132.628 l -0.04,0.893 -0.03,0.895 c -1.877,47.292 -1.991,94.585 -0.381,141.753 3.462,101.559 14.948,202.866 34.375,302.7 20.596,105.902 50.09,210.132 88.076,311.15 29.481,78.417 64.069,154.872 103.424,228.729 l 0.01,0.02 0,0.02 c 35.251,66.132 74.343,130.166 116.948,191.675 l 0.03,0.04 0.02,0.04 c 21.181,30.559 43.137,60.321 65.739,89.291 l -0.6,-0.768 c 138.562,178.798 277.188,357.621 415.733,536.373 l 0,0.01 0,0.01 c 60.328,77.82 120.86,155.948 181.299,233.881 l 0.02,0.03 0.02,0.03 c 27.104,34.932 55.235,68.814 84.232,101.637 l 0.02,0.02 0.01,0.02 c 60.858,68.866 127.765,132.024 197.189,192.342 -47.79,34.243 -92.518,72.822 -128.687,119.433 -43.653,56.167 -77.489,119.957 -99.411,188.038 -26.127,81.053 -35.153,167.982 -25.986,252.966 l -0.203,-1.937 c 3.922,38.722 7.977,78.059 11.865,116.209 l 0,0.05 0,0.05 c 9.174,89.719 18.356,179.664 27.603,269.559 l 0.19,1.844 0.213,1.84 c 10.965,95.045 44.447,187.522 97.506,267.841 49.734,75.37 116.475,139.954 194.269,187.165 73.233,44.503 156.412,73.73 242.196,84.464 32.153,4.06 62.44,5.18 89.152,4.836 l -3.863,0.03 c 46.501,0 92.965,-0.05 139.494,-0.07 -18.564,41.753 -32.226,85.845 -39.393,131.065 -14.519,91.009 -4.644,186.885 28.58,273.297 30.026,78.241 79.999,150.739 143.746,206.812 18.432,16.221 40.921,33.897 67.573,50.479 l 5.794,3.605 5.954,3.338 c 29.183,16.364 58.432,27.539 85.55,34.93 l 2.325,0.633 2.332,0.595 c 41.594,10.621 79.888,11.437 100.562,10.867 l -7.006,0.112 c 39.994,-0.169 79.312,-0.413 118.08,-0.512 0.702,0.03 1.436,0.06 2.362,0.156 -0.04,-0 0.209,0.02 0.158,0.02 l 0.01,0 h 0.01 c 0.271,0.03 0.821,0.108 1.516,0.221 0.09,0.01 0.17,0.03 0.246,0.04 3.206,0.55 7.441,2.099 10.297,3.79 l 0.07,0.04 0.07,0.04 c 2.06,1.217 4.213,2.882 5.852,4.502 l 0.576,0.571 0.578,0.566 c -1.195,-1.168 0.32,0.295 4.266,4.662 l 0.769,0.85 0.774,0.844 c 68.524,74.676 137.063,149.333 205.574,223.961 3.105,3.435 6.856,7.97 11.094,13.681 -0,-0 0.04,0.06 0.03,0.05 l 0.189,0.26 0.192,0.258 c 0.452,0.614 0.894,1.214 1.316,1.787 l 0.625,0.847 c 0.256,0.34 -0.86,-1.161 -0.549,-0.734 l -0.32,-0.44 c 4.828,6.644 10.265,14.814 16.203,24.524 l 0.672,1.1 c 1.919,3.156 15.667,26.554 29.397,46.279 50.522,72.753 117.309,134.258 194.298,178.498 41.197,23.712 85.9,40.714 131.772,54.15 2.101,21.489 5.333,42.729 10.016,63.783 -25.255,20.97 -51.923,40.39 -72.713,66.032 -48.153,59.277 -82.635,129.262 -100.1,203.924 l 0.486,-2.047 c -3.795,15.727 -8.05,33.713 -11.459,47.935 l -0.04,0.164 -0.04,0.166 c -8.618,36.141 -17.593,73.59 -26.34,110.66 l -0.578,2.45 -0.537,2.461 c -15.97,73.157 -16.803,149.022 -3.435,221.33 l 0.01,0.08 0.01,0.08 c 14.851,80.093 47.384,156.367 94.105,222.223 42.613,60.156 97.262,111.567 159.155,150.384 30.486,19.151 62.318,35.004 94.658,47.614 l -3.1,-1.229 c 71.181,28.67 142.099,57.118 212.686,85.574 1.124,1.484 2.357,3.118 3.516,4.682 l 0.113,0.152 0.113,0.153 c 12.384,16.669 25.669,34.436 37.426,50.228 l 0.08,0.11 0.08,0.109 c 15.326,20.547 31.321,42.019 47.355,63.34 l 0.5,0.666 0.504,0.662 c 47.671,62.66 99.048,122.441 153.694,178.943 62.517,64.655 129.435,125.119 200.17,180.801 77.763,61.238 160.078,116.7 246.066,165.772 l 0,0 0,0 c 116.318,66.373 239.354,121.069 366.687,162.909 l 0.05,0.02 0.05,0.02 c 26.667,8.752 54.22,17.222 82.547,25.111 l 0.365,0.102 0.367,0.101 c 78.336,21.603 158.405,36.653 239.088,45.03 98.33,10.224 197.755,10.473 296.096,0.765 66.342,-6.539 132.351,-17.598 197.336,-33.135 l 0.617,-0.148 0.615,-0.148 c 23.832,-5.805 48.918,-12.076 70.883,-17.489 l 0.121,-0.03 0.121,-0.03 c 324.178,-80.181 648.37,-160.367 972.555,-240.578 l 1.424,-0.354 1.422,-0.365 c 89.303,-23.025 172.669,-71.152 237.392,-137.248 2.723,-2.775 4.366,-6.491 7.026,-9.332 32.94,8.48 65.844,16.948 98.794,25.427 1013.735,260.94 2027.469,521.88 3041.204,782.819 29.796,8.742 59.858,17.346 90.285,25.601 l 0.01,0 0.01,0 c 52.696,14.294 105.723,27.662 159.049,40.051 63.024,14.648 126.343,27.911 189.895,39.795 l 0.02,0 0.02,0 c 81.719,15.268 163.876,28.258 246.346,38.937 0,0 0.01,0 0.02,0 0,0 0,0 0.01,0 60.491,7.839 121.112,14.427 181.811,19.778 l 0.04,0 0.04,0 c 64.442,5.664 129.039,9.942 193.736,12.803 l 0.04,0 0.04,0 c 34.01,1.496 68.158,2.63 102.429,3.355 l 3.176,0.07 h 3.176 c -4.575,0 -4.816,-0.04 -3.649,-0.02 l -0.81,-0.01 c 72.995,1.512 146.068,1.253 219.135,-0.815 l 0.01,-0 h 0.01 c 64.777,-1.839 129.559,-5.079 194.277,-9.744 105.752,-7.619 211.37,-19.009 316.397,-34.152 57.01,-8.213 113.695,-17.539 170.013,-27.86 68.119,-12.399 136.539,-24.893 204.469,-37.271 l 0.02,-0 0.01,-0 c 477.928,-87.131 955.856,-174.262 1433.784,-261.394 0.08,-0.02 0.753,-0.131 0.697,-0.121 l 0.547,-0.1 0.547,-0.1 c 5.945,-1.067 12.018,-2.127 18.211,-3.183 0.03,-0 0.633,-0.104 0.586,-0.1 l 0.5,-0.08 0.502,-0.09 c 5.776,-0.979 11.862,-1.974 18.255,-2.998 -0.04,0 0.563,-0.09 0.491,-0.07 l 0.38,-0.06 0.379,-0.06 c 3.594,-0.57 7.564,-1.182 11.911,-1.848 l 0.615,-0.09 0.615,-0.1 c -2.237,0.353 -0.675,0.105 -0.213,0.04 1.514,-0.229 3.295,-0.497 5.043,-0.76 0.157,-0.02 0.94,-0.135 0.856,-0.123 l 0.222,-0.03 0.223,-0.03 c 1.887,-0.276 3.869,-0.566 5.855,-0.857 l 1.532,-0.223 1.527,-0.24 c -3.762,0.591 -3.064,0.467 -1.703,0.27 5.718,-0.827 11.797,-1.67 18.252,-2.545 l 0.146,-0.02 0.145,-0.02 c -1.224,0.167 0.27,-0.03 1.244,-0.164 l -0.35,0.05 c 14.198,-1.898 28.569,-3.649 43.108,-5.265 l 1.974,-0.221 c 0.147,-0.02 -0.408,0.05 -0.259,0.03 l -0.346,0.04 c 10.395,-1.142 20.974,-2.211 31.734,-3.22 0.01,-0 0.02,-0 0.03,-0 -0.04,0 0.416,-0.03 0.37,-0.03 l 0.25,-0.02 0.25,-0.02 c 1.822,-0.166 4.855,-0.44 7.295,-0.663 l 6.71,-0.582 0.694,-0.05 0.898,-0.08 c 7.879,-0.666 15.946,-1.292 24.203,-1.889 l 0.325,-0.02 0.324,-0.02 c -2.274,0.169 0.466,-0.02 3.273,-0.24 l -2.996,0.222 c 1.093,-0.08 3.686,-0.256 3.68,-0.255 l 0.396,-0.03 0.395,-0.03 c 6.426,-0.443 13.033,-0.858 19.82,-1.256 l -2.711,0.147 c 3.225,-0.16 4.404,-0.243 3.141,-0.174 l 0.498,-0.03 0.5,-0.03 c 11.164,-0.642 22.5,-1.185 34.002,-1.643 l 1.394,-0.06 h 0.02 c 0.01,-0 0.03,-0 0.05,-0 4.535,-0.175 9.16,-0.337 13.877,-0.488 l 1.281,-0.04 c 0.1,-0 0.193,-0 0.289,-0 0.109,-0 0.219,-0 0.328,-0.01 l 1.897,-0.08 c -3.409,0.153 -2.937,0.121 -1.403,0.07 269.747,-8.159 539.513,-16.286 809.293,-24.435 847.968,-25.603 1695.946,-51.198 2543.918,-76.805 l 0.229,-0 0.228,-0 c 88.084,-2.794 176.086,-8.958 263.735,-18.487 0,0 0,0 0.01,0 112.256,-12.194 223.919,-29.936 334.444,-53.16 l 0.09,-0.02 0.09,-0.02 c 26.774,-5.642 56.805,-12.343 80.191,-17.445 l 0.168,-0.04 0.168,-0.04 c 440.521,-96.645 881.039,-193.289 1321.557,-289.91 l 0.02,-0 c 80.747,-17.705 161.609,-35.426 242.455,-53.181 l 1.51,-0.332 1.506,-0.348 c 82.428,-18.994 161.666,-56.859 229.248,-111.924 68.695,-55.879 123.277,-127.592 158.99,-207.724 34.959,-78.295 52.146,-164.908 48.904,-251.809 -2.812,-76.693 -21.561,-153.058 -54.873,-222.553 -17.427,-36.442 -38.306,-69.636 -60.781,-99.359 -25.286,-34.239 -52.463,-67.877 -81.967,-100.311 -76.52,-84.239 -164.689,-158.316 -261.199,-219.144 -58.739,-37.05 -120.414,-69.157 -184.158,-96.018 l 1.35,0.573 c -69.867,-29.844 -139.714,-59.687 -209.575,-89.528 41.076,-52.17 77.367,-108.368 103.916,-169.535 33.678,-77.475 54.682,-160.695 61.69,-245.07 l 0,-0.07 0,-0.07 c 0.535,-6.489 1.11,-14.343 1.544,-22.822 0.144,-2.706 0.307,-5.948 0.44,-9.116 2.021,-48.312 -0.574,-96.075 -7.15,-142.548 l 0.363,2.65 c -12.477,-94.212 -24.959,-188.547 -37.477,-282.859 l -0.226,-1.696 -0.244,-1.693 c -13.234,-91.677 -58.659,-181.86 -127.11,-247.578 -64.448,-61.988 -151.324,-104.195 -240.289,-116.268 -81.208,-11.076 -166.187,1.375 -242.275,37.735 -41.214,19.66 -77.306,45.061 -107.338,72.718 l 3.289,-2.984 c -44.566,39.838 -89.319,79.749 -134.186,119.816 -97.717,87.234 -195.453,174.487 -293.175,261.76 l -0.848,0.758 -0.844,0.764 c -87.553,79.393 -159.714,175.85 -211.125,282.502 -35.817,74.202 -61.645,153.226 -76.555,234.257 -10.297,55.895 -15.294,112.365 -15.261,168.411 0,17.436 -0,34.892 0,52.332 -171.286,-33.397 -342.575,-66.806 -513.916,-100.141 -120.251,-23.393 -240.62,-46.764 -360.746,-70.125 -16.364,-3.268 -31.63,-10.85 -47.032,-17.721 75.469,-23.081 148.46,-54.626 212.43,-100.302 55.024,-39.26 103.997,-85.833 145.688,-137.694 l -1.842,2.268 c 102.953,-125.546 205.944,-251.13 308.904,-376.731 l 0.707,-0.861 0.699,-0.867 c 73.947,-91.588 128.99,-198.131 160.869,-311.545 26.998,-95.884 37.473,-196.678 30.637,-296.234 -3.662,-53.582 -12.289,-106.256 -25.263,-157.221 l 0.363,1.443 c -11.401,-45.733 -22.794,-91.65 -34.262,-137.732 l -0,-0.02 c -21.62,-86.909 -43.253,-174.048 -64.92,-261.144 l -0.199,-0.801 -0.203,-0.799 c -21.074,-82.766 -63.665,-161.341 -122.068,-224.369 -54.78,-59.194 -122.966,-104.979 -198.143,-133.346 -32.588,-12.321 -66.499,-20.117 -100.66,-25.656 14.308,-17.619 28.957,-35.013 41.107,-54.16 l -1.515,2.363 c 59.342,-91.613 118.652,-183.235 177.937,-274.851 l 0.955,-1.477 0.94,-1.488 c 47.743,-75.711 75.821,-165.257 79.336,-255.668 4.15,-104.322 -23.961,-209.911 -80.528,-298.74 -39.499,-62.171 -92.456,-115.858 -154.658,-156.262 -38.031,-24.813 -85.731,-48.415 -140.414,-62.66 -73.926,-19.389 -153.313,-19.461 -228.236,-1.416 6.246,-16.686 15.42,-32.194 20.312,-49.321 25.443,-88.953 32.529,-183.972 20.041,-276.312 -2.757,-20.441 -7.767,-46.913 -8.867,-53.246 l -0.139,-0.789 -0.14,-0.789 c -28.451,-158.815 -56.908,-317.681 -85.397,-476.534 l -0.174,-0.968 -0.179,-0.969 c -21.363,-114.778 -63.771,-225.82 -124.362,-325.635 -59.293,-97.746 -136.25,-185.262 -226.058,-256.58 -40.738,-32.366 -83.887,-61.277 -128.684,-86.515 l 2.11,1.201 c -170.181,-97.702 -340.431,-195.459 -510.645,-293.17 l -1.193,-0.686 -1.202,-0.676 c -65.378,-36.736 -138.078,-58.533 -212.16,-69.566 58.544,-70.514 108.932,-147.673 145.821,-231.432 23.273,-52.81 41.72,-107.348 55.373,-162.615 l -0.367,1.473 c 12.715,-50.378 25.946,-102.423 38.826,-153.795 l 0.496,-1.977 0.469,-1.982 c 21.543,-91.156 25.308,-186.304 10.859,-279.109 -14.207,-91.599 -45.982,-180.19 -93.285,-259.948 -34.524,-58.2444 -76.982,-111.2239 -125.617,-157.3708 l -0.02,-0.016 -0.02,-0.016 c -51.722,-49.0617 -103.822,-98.5509 -155.769,-147.8125 l -0.07,-0.068 -0.07,-0.066 c -9.544,-9.0388 -21.671,-20.5894 -32.414,-30.7207 l -1.722,-1.625 -1.749,-1.5957 c -64.58,-59.006 -146.151,-98.8267 -232.611,-117.6055 23.403,-35.8432 43.646,-73.6779 59.781,-113.3145 18.769,-46.036 32.01,-93.5483 40.047,-141.1699 2.599,-15.2553 4.374,-29.4563 5.356,-37.5801 l -0.252,2.0274 c 11.929,-93.383 23.869,-186.8426 35.771,-280.3145 l 0.387,-3.0429 0.326,-3.0508 c 10.063,-94.3979 -13.929,-194.7859 -68.517,-275.5723 -55.603,-82.5217 -142.6,-144.5149 -239.182,-169.8984 -86.269,-22.7344 -183.06,-16.5378 -267.117,19.1504 -25.755,10.9405 -49.89,24.8958 -59.242,30.5429 l 3.429,-2.039 c -34.471,20.1944 -70.324,41.1211 -105.777,62.0273 l -1.473,0.8691 -1.463,0.8848 c -83.305,50.4127 -157.958,115.0577 -219.713,189.8574 -26.039,31.542 -49.597,64.6745 -70.64,98.9512 l -0.08,0.1387 -0.09,0.1387 c -5.405,8.826 -14.069,23.3218 -17.459,28.9121 l -0.207,0.3398 -0.205,0.3418 c -77.592,128.7018 -155.235,257.4708 -232.832,386.2461 l -0.61,1.0137 -0.603,1.0156 c -64.441,108.8729 -109.911,229.4614 -133.395,353.7949 -16.365,86.5567 -22.259,175.3132 -17.418,263.3809 1.351,24.7808 3.976,51.7568 5.047,64.8498 l 0.05,0.578 0.05,0.576 c 3.394,39.591 6.798,78.805 10.082,117.695 0.2,2.798 0.358,5.776 0.451,8.987 l 0.01,0.572 c -0,-0.04 0.01,0.647 0.02,0.83 l 0.03,1.981 c 0.01,0.975 0.02,2.476 0,4.498 v 0.09 l -0.03,1.551 c -0.1,5.404 -0.397,10.878 -0.929,16.397 0,-0.03 -0.03,0.281 -0.03,0.248 l -0.02,0.23 -0.02,0.231 c -0.494,4.951 -1.174,9.959 -2.044,14.99 l -0.243,1.402 c -0.04,0.256 0.105,-0.64 0.08,-0.49 l 0.03,-0.185 c -2.111,11.971 -5.359,23.976 -9.631,35.554 -2.386,6.405 -5.733,15.022 -9.961,26.209 l 0.275,-0.73 c -35.348,92.801 -70.7,185.564 -106.062,278.314 -74.614,11.52 -147.972,32.586 -212.42,71.156 -76.875,45.922 -142.968,109.665 -191.584,185.276 l -0.225,0.347 -0.222,0.35 c -8.768,13.72 -19.308,31.819 -21.711,35.805 l -0.426,0.707 -0.424,0.711 c -81.135,136.281 -162.252,272.551 -243.375,408.802 -36.441,0 -72.777,0.02 -108.795,-0.05 -6.266,-0.132 -13.955,-1.798 -19.678,-4.327 l -0.154,-0.07 -0.152,-0.07 c -5.85,-2.577 -12.729,-7.52 -17.184,-12.455 l -0.717,-0.795 -0.72,-0.789 c -150.586,-164.45 -301.171,-328.899 -451.723,-493.346 -7.105,-7.764 -11.131,-12.259 -12.131,-13.44 l -0.414,-0.49 -0.418,-0.488 c -4.786,-5.602 -9.464,-11.514 -14.004,-17.715 l -1.023,-1.398 -0.606,-0.807 c 0.228,0.308 1.157,1.554 0.674,0.895 l 0.297,0.408 c -0.252,-0.346 -1.056,-1.467 -2.168,-3.028 -0.04,-0.05 -0.03,-0.05 -0.07,-0.1 l -0.258,-0.367 c -2.725,-3.868 -5.4,-7.859 -8.014,-11.969 l -0.463,-0.729 -0.369,-0.58 c -0.07,-0.105 0.16,0.246 0.106,0.16 l 0.263,0.42 c -6.082,-9.624 -11.646,-19.638 -16.619,-29.912 l -0.34,-0.701 v -0 c -10.817,-22.526 -18.962,-46.837 -23.929,-71.471 -0,-0 -0,-0 -0,-0 -1.469,-7.303 -2.683,-14.789 -3.631,-22.411 l -0.06,-0.511 -0.08,-0.672 c -0.808,-6.617 -1.511,-15.036 -1.832,-21.877 -0.03,-0.577 -0.103,-2.5 -0.162,-4.037 -0.06,-1.979 -0.114,-3.968 -0.146,-5.975 l 0.04,4.762 c 0,-6.506 -0.04,-5.675 -0.08,-7.641 l 0.03,2.043 c -0.105,-8.048 0.199,-17.731 0.81,-25.945 0,-0 0,-0 0,-0 2.807,-36.723 6.088,-77.897 8.938,-116.414 l 0.06,-0.723 0.05,-0.72 c 2.704,-39.091 2.582,-77.79 0.04,-115.641 l -0,-0.02 -0,-0.02 c -5.571,-82.872 -23.154,-165.038 -52.327,-243.252 -22.117,-59.4 -50.964,-116.5522 -85.357,-169.4491 l -0.242,-0.3731 -0.242,-0.3711 c -30.606,-46.767 -62.092,-95.0189 -93.192,-142.4082 l -1.334,-2.0332 -1.365,-2.0098 c -50.946,-74.9533 -123.699,-136.1535 -208.082,-173.2441 -88.5,-38.9948 -188.392,-51.1824 -283.779,-34.4258 -71.433,12.5152 -140.714,40.9744 -201.262,84.377 -47.481,34.0125 -87.562,75.8249 -118.885,121.0937 l 3.242,-4.5918 c -54.51,75.7082 -109.093,151.515 -163.629,227.3379 l -0.527,0.7305 -0.521,0.7363 c -60.728,85.5128 -113.712,176.4288 -158.198,271.2248 l -0,0.02 -0,0.02 c -24.87,53.015 -47.086,107.272 -66.535,162.5 -23.615,67.051 -43.144,135.527 -58.457,204.908 l -0.02,0.108 -0.02,0.107 c -3.489,15.862 -7.556,35.641 -10.051,47.406 l -0.06,0.297 -0.06,0.297 c -35.492,169.014 -70.972,338.023 -106.455,507.022 -55.292,12.442 -109.053,31.214 -158.166,58.982 -63.289,35.729 -120.353,83.876 -166.311,140.937 l 0.856,-1.058 c -84.169,103.538 -168.221,207.023 -252.278,310.363 -11.966,14.453 -25.33,28.065 -39.754,40.442 l 4.069,-3.428 c -5.133,4.249 -5.039,4.254 -4.596,3.877 l -0.08,0.07 -0.08,0.07 c -15.195,12.968 -31.595,24.582 -48.684,34.508 l -0.406,0.233 -0.719,0.416 c -9.059,5.243 -18.582,10.15 -28.49,14.675 l -0.02,0 -0.95,0.432 c -3.885,1.762 -8.299,3.651 -13.244,5.648 l 112.348,578.17 c -16.843,0 -76.456,0.07 -143.781,-36.699 -94.256,-51.47 -173.631,-167.435 -153,-307.131 22.596,-153 142.242,-213.353 146.677,-215.916 2.776,-1.604 2.593,-1.155 5.213,-2.56 l 19.705,-1.746 c -15.572,0 -11.656,0.897 -19.632,1.71 15.533,-8.323 30.551,-15.04 30.933,-15.197 4.476,-1.835 3.295,-1.337 0.893,-0.375 l 0.199,-0.08 c -20.893,8.35 -42.869,14.631 -65.088,18.602 l -0.04,0 -0.857,0.152 c -13.102,2.307 -26.53,3.843 -40.098,4.576 l -0.172,0 -1.061,0.06 c -6.753,0.356 -15.047,0.501 -24.863,0.351 l -0.75,-0.01 -0.748,-0 c -35.83,-0.368 -71.727,-0.745 -107.582,-1.12 7.16,-36.366 11.662,-73.273 12.582,-110.353 2.395,-95.966 -16.709,-192.734 -55.693,-280.775 -6.393,-14.449 -15.616,-33.22 -17.873,-37.94 l -0.205,-0.432 -0.207,-0.427 c -25.806,-53.515 -51.826,-107.485 -77.815,-161.248 l -0.176,-0.364 -0.175,-0.361 c -10.6,-21.777 -21.66,-42.652 -32.887,-62.584 l -0.03,-0.05 -0.03,-0.05 c -59.236,-105.072 -134.364,-201.354 -222.15,-284.396 -71.313,-67.506 -150.865,-126.302 -236.487,-174.662 -31.369,-17.739 -63.144,-33.795 -95.019,-48.305 -124.768,-56.923 -249.549,-113.871 -374.34,-170.814 58.78,-52.013 105.96,-116.539 136.115,-189.196 26.804,-64.404 39.99,-133.605 39.5,-201.873 -0.172,-25.41 -2.193,-50.6676 -5.992,-75.5192 l 1.609,12.1992 c -4.042,-36.3801 -1.374,-10.6693 -1.404,-10.875 l 0.1,0.6933 c -9.743,-69.3584 -19.534,-139.3445 -29.408,-209.1191 l -0.188,-1.3145 -0.197,-1.3144 c -11.871,-78.8403 -32.146,-156.2482 -60.201,-230.5547 l -0,-0.014 -0,-0.012 c -21.219,-56.1846 -46.96,-110.7539 -76.969,-163.0039 -38.894,-67.7915 -84.793,-131.3721 -136.57,-189.4785 l 0.859,0.9687 c -266.021,-301.1469 -532.046,-602.2854 -798.056,-903.4277 -6.957,-7.9399 -13.841,-16.0655 -20.655,-24.373 0.02,0.02 -0.193,-0.2405 -0.176,-0.2188 l -0.353,-0.4355 -0.356,-0.4336 c -2.453,-3.0001 -5.102,-6.2912 -7.957,-9.8711 l -0.857,-1.0743 -0.865,-1.0644 c 3.208,3.9487 1.747,2.1673 0.922,1.1289 l 0.152,0.1895 c -4.377,-5.5156 -8.827,-11.2612 -13.353,-17.2305 l -0,-0.01 c -0.02,-0.02 -0.03,-0.038 -0.05,-0.059 l -0.356,-0.4765 -0.412,-0.545 c -2.297,-3.0392 -4.805,-6.4147 -7.533,-10.1211 l -0.904,-1.2285 c -0.06,-0.076 0.178,0.2384 0.127,0.168 l 0.17,0.2305 c -26.232,-35.8145 -50.015,-73.5559 -71.057,-112.7481 l -0.727,-1.3535 c -0.175,-0.3201 0.279,0.5108 0.174,0.3145 l -0.03,-0.053 -0.03,-0.051 c -26.929,-50.323 -49.389,-103.2004 -66.911,-157.5293 l -0.01,-0.043 -0.01,-0.043 c -18.72,-57.9857 -31.907,-117.9837 -39.26,-178.5664 l -0.131,-1.0684 c -0,-0.047 0.03,0.2601 0.03,0.2032 l -0.03,-0.252 -0.03,-0.2519 c -0.775,-6.4365 -1.509,-13.2041 -2.215,-20.2891 -0.03,-0.2732 -0.07,-0.7246 -0.07,-0.7734 l -0.03,-0.2754 -0.03,-0.2774 c -0.327,-3.3518 -0.66,-7.0386 -1.007,-11.0644 l -0.04,-0.5059 -0.05,-0.5058 c 0.166,1.8495 0.03,0.33 -0.04,-0.5782 l 0.03,0.416 c -0.632,-7.5021 -1.183,-15.2248 -1.658,-23.1699 l 0.1,1.7168 c -0.07,-1.3787 -0.155,-2.7059 -0.169,-2.9433 -0.57,-9.7953 -0.988,-19.5946 -1.258,-29.3946 l 0,0.1602 c 0,0.2652 -0.07,-2.5875 -0.143,-4.6231 l 0.1,3.0176 c -0.1,-3.7713 -0.18,-7.9562 -0.246,-12.5566 l 0.03,4.3398 c 0,-2.9344 -0.04,-5.8528 -0.07,-7.289 l 0.03,1.9003 c -0.09,-7.3614 -0.09,-14.8428 0,-22.4472 l 0.02,-1.7578 v -0.01 c 0.04,-2.8142 0.09,-5.7148 0.153,-8.7324 l -0.06,2.2226 c 0.04,-1.2739 0.09,-3.6569 0.115,-4.8828 l -0.03,1.3731 c 0.06,-2.6977 0.147,-5.6308 0.25,-8.7949 0,-0.02 0,-0.035 0,-0.055 0.01,-0.4314 0.04,-1.2016 0.07,-1.9727 l 0,-0.027 c 0.819,-22.5768 2.428,-45.2333 4.807,-67.4746 l 0.02,-0.2149 0.02,-0.2129 c 1.292,-12.2467 3.021,-25.6336 5.117,-40.1582 l 0.06,-0.4472 0.06,-0.4493 c 21.594,-152.8998 43.324,-306.333 64.92,-459.4218 l 0.15,-1.0703 0.145,-1.0723 c 8.667,-64.8161 11.663,-130.4362 8.861,-195.9297 l -0,-0.031 -0,-0.031 c -3.246,-75.508 -14.198,-150.7331 -32.66,-224.0996 -22.871,-91.0294 -57.357,-179.2637 -102.24,-261.6484 -38.301,-70.3542 -84.209,-136.5163 -136.656,-197.004 -30.984,-35.7672 -64.038,-69.2442 -98.682,-100.3261 l -0.106,-0.094 -0.105,-0.094 c -42.276,-37.8579 -84.601,-75.8151 -127.02,-113.8262 l -0.08,-0.074 c -32.343,-29.0054 -64.589,-57.8954 -96.714,-86.7246 -15.632,-14.315 -29.345,-32.1602 -39.082,-50.8672 l -0.05,-0.098 -0.05,-0.096 c -9.795,-18.7847 -16.585,-40.2312 -19.381,-61.1699 l -0.01,-0.1 -0.01,-0.1016 c -0.08,-0.5988 -0.228,-1.8024 -0.385,-3.1093 l -0.02,-0.1387 -0.07,-0.6094 c -0.656,-5.8226 -1.043,-11.8084 -1.141,-17.8848 l 0.04,4.8106 c 0,-32.8809 -0,-4.5655 -0.1,-8.4551 l 0.05,2.8906 c -0.03,-2.4542 -0,-5.2779 0.1,-8.4296 l 0.04,-1.1387 c 0.139,-3.9317 0.585,-9.9888 1.563,-18.1192 l -0.03,0.2442 c 4.971,-41.0298 7.436,-82.4172 7.44,-123.5313 v -0.016 -0.016 c 0,-53.703 -4.167,-107.4546 -12.502,-160.6348 -16.003,-102.1496 -47.445,-201.6834 -92.795,-294.3574 -31.907,-65.2488 -70.555,-126.5969 -114.656,-183.0371 -179.553,-231.4081 -359.106,-462.8496 -538.676,-694.2774 -8.742,-11.2895 -18.912,-24.1712 -29.779,-37.2675 -79.991,-96.6562 -173.592,-182.4076 -277.059,-253.6289 -96.738,-66.6276 -202.097,-120.7009 -312.787,-160.4102 -101.62,-36.4956 -207.56,-60.8311 -314.879,-72.3516 l -0.07,-0.01 -0.07,-0.01 c -14.608,-1.5607 -32.41,-3.2097 -42.696,-4.2324 l -0.408,-0.041 -0.408,-0.039 c -41.27,-3.9894 -84.043,-8.1907 -126.367,-12.1875 l -1.979,-0.1855 -1.982,-0.1621 c -2.031,-0.1647 -3.965,-0.1616 -5.987,-0.3086 l -15.562,-1.6368 c 2.72,0.2861 -6.008,-0.7468 -13.15,-1.3281 z" />
    <path
       d="m 24475.359,4949.8906 c -112.971,-3.1154 -222.679,47.7321 -293.068,140.627 l -0.09,0.1133 -197.338,260.9472 -0.25,0.3321 c -64.088,85.2368 -86.523,193.5412 -61.385,297.3183 l 0.06,0.2442 219.281,898.6191 c 0,0 0,0.01 0,0.01 27.157,112.495 107.702,204.3766 214.086,246.6738 l 0.317,0.127 193.693,76.5 157.086,224.6367 0.01,0.014 c 169.027,241.6513 541.808,184.2987 630.091,-97.3067 l 0,-0.01 83.602,-266.7051 -0.629,1.9863 c 23.095,-71.926 21.991,-148.2434 -0.1,-217.039 l -0.125,-0.3868 -402.533,-1241.998 v -0 c -33.319,-103.1592 -112.429,-186.6209 -216.072,-224.4277 l 0.824,0.3008 c -48.575,-17.8805 -157.185,-57.843 -215.182,-79.0781 l -0.263,-0.096 -0.262,-0.096 c -36.471,-13.2769 -74.14,-20.2691 -111.764,-21.3067 z"
       style="fill:#0000fe;fill-opacity:1;fill-rule:nonzero;stroke:none;stroke-width:375;stroke-linecap:round;stroke-linejoin:round;stroke-dasharray:none;paint-order:normal"
       id="path11" />
    <path
       d="m 15234.072,16422.793 c -37.762,-1.053 -75.896,2.72 -113.472,11.533 l -0.01,0 -251.729,59.008 -0.08,0.02 c -160.08,37.611 -285.135,159.322 -327.068,318.357 l -0,0.01 -100.272,380.386 c -0,0 0,0.01 -0,0.01 -48.249,182.75 23.87,374.315 180.256,480.024 l 0.06,0.04 158.574,107.074 -44.467,394.49 -363.474,37.217 -0.05,0 c -202.373,20.796 -364.285,176.195 -393.189,377.714 -34.109,237.631 126.323,458.438 362.849,499.411 l 0.06,0.01 2164.138,373.893 0.471,0.08 c 36.792,6.236 73.171,7.618 108.369,4.979 l 0.828,-0.06 1820.422,-146.666 c 380.913,-30.684 546.746,-496.935 270.895,-761.318 l -0.05,-0.04 -949.049,-908.838 -0.203,-0.196 c -53.316,-50.864 -118.844,-88.168 -191.43,-107.566 l 0.391,0.104 -1438.254,-386.444 -591.117,-601.207 -0.145,-0.146 c -81.091,-82.25 -190.01,-128.728 -303.258,-131.885 z"
       style="fill:#0000fe;fill-opacity:1;fill-rule:nonzero;stroke:none;stroke-width:375;stroke-linecap:round;stroke-linejoin:round;stroke-dasharray:none;paint-order:normal"
       id="path12" />
    <path
       d="m 13243.059,16628.49 c -25.979,0.07 -52.088,2.662 -78.03,7.864 l -0.02,0 -340.723,68.145 -0.383,0.08 c -29.777,6.036 -56.556,14.89 -81.418,25.699 l -0.734,0.319 -273.498,120.652 -0.07,0.03 c -311.347,137.528 -320.65,571.008 -25.002,725.203 l -211.161,2.641 h -0.03 c -369.091,4.687 -538.094,462.976 -260.502,706.211 l 177.631,155.717 0.182,0.158 c 80.277,70.145 185.032,105.782 291.836,98.74 l 710.492,-46.592 -0.594,0.04 c 67.952,-4.321 133.694,-25.877 190.805,-62.249 l 0.02,-0.01 464.74,-295.951 0.262,-0.168 c 112.545,-71.999 181.768,-194.131 185.658,-327.869 l 2.211,-1.231 0.09,-0.05 c 258.98,-144.311 278.08,-512.122 34.985,-682.25 l -44.221,-31.105 -0.307,-0.215 c -75.505,-52.829 -165.319,-77.255 -254.49,-72.088 -17.456,-54.148 -46.484,-104.997 -86.51,-148.678 l -0,-0 -103.136,-112.557 -0.245,-0.266 c -71.031,-77.144 -168.488,-123.067 -271.906,-129.441 -8.622,-0.531 -17.269,-0.786 -25.931,-0.762 z"
       style="fill:#0000fe;fill-opacity:1;fill-rule:nonzero;stroke:none;stroke-width:375;stroke-linecap:round;stroke-linejoin:round;stroke-dasharray:none;paint-order:normal"
       id="path13" />
    <path
       d="m 12568.002,1002.5195 c -78.506,5.3013 -155.919,26.9941 -226.936,64.6836 l -0,0 -184.149,97.6758 -0.01,0.01 c -528.475,280.3914 -912.556,771.9365 -1056.838,1352.4473 l -236.875,952.6094 c -27.097,108.874 -43.089,220.1898 -47.727,332.3574 l -84.189,2012.5605 c -6.422,152.3308 -90.959,289.3425 -224.059,363.2871 l -0.05,0.027 -90.914,50.5527 c -0,7e-4 -0,0 -0,0 -297.093,164.9991 -537.9094,415.038 -691.6013,718.2207 l -361.1602,712.1367 c -0,0 -0,0.01 -0.01,0.014 l -0,0 c -151.4801,298.659 -143.8533,652.3644 20.3066,944.2519 l 0.01,0.018 260.041,462.2188 c 36.4125,64.7216 49.7943,139.7519 37.9766,213.0507 l -0.01,0.037 -22.8965,142.2383 -91.8281,-0.7129 c -149.1572,-1.2293 -294.6572,45.5876 -415.0683,133.3672 l -0.025,0.018 -168.3008,122.7441 -0.035,0.025 c -135.8526,99.1401 -242.8066,232.6861 -309.8672,386.9008 l -22.5293,51.795 -0.012,0.02 c -14.8384,34.129 -43.4409,59.851 -78.7324,70.963 l -0.025,0 -159.0859,50.121 -0.033,0.01 c -149.3666,47.094 -283.9611,132.312 -390.4043,247.744 l -52.5039,56.849 c -147.442,-29.388 -300.9531,-10.774 -435.4707,60.139 l -0.051,0.03 -674.9707,356.153 -0.051,0.02 c -183.8863,97.116 -282.1092,302.381 -242.3574,506.52 l 0.01,0.03 0.01,0.03 c 3.5155,18.035 0.5253,36.403 -8.7754,52.651 0,0 0,0 0,0 l -17.7891,31.037 c -169.5672,-106.561 -397.29,-52.305 -498.7519,121.974 0,0 -0,0 -0,0 l -214.0136,366.865 c -110.6116,189.606 -172.5219,403.617 -180.2442,623.018 v 0 l -7.4609,212.301 c -1.8285,51.996 -20.8753,101.995 -54.084,141.986 l -0.031,0.04 -115.3965,139.057 -0.016,0.02 c -92.6966,111.739 -146.9825,250.116 -154.9101,395.17 -1e-4,0 10e-5,0 0,0 l -16.6211,303.578 v 0 c -13.1292,240.022 64.3302,476.158 217.1387,661.764 l 0,0 656.4238,797.259 -128.6386,297.428 -0.025,0.06 c -63.9617,148.067 -95.015,308.072 -90.9317,469.351 l 4.0997,162.104 c 0.047,1.869 0.136,1.797 -1.711,2.672 l -479.8262,226.834 -0.027,0.01 c -26.2332,12.408 -56.1048,13.686 -83.4141,3.502 l -776.0996,-289.703 -900.8007,-353.185 -0.2129,-0.08 c -127.1407,-49.628 -270.7614,-27.487 -377.045,58.05 l -0.1347,0.11 -0.1367,0.109 c -209.2338,168.791 -159.8531,500.697 89.998,600.854 l 113.8418,45.814 c -53.3416,127.409 -41.916,277.466 44.2187,396.701 l 0.01,0.01 62.1973,86.08 0.047,0.06 c 96.0539,132.786 238.111,224.671 398.455,259.045 -0.3921,27.89 2.2506,56.319 8.3008,84.916 l 0,0.01 0,0.01 c 36.7798,173.779 177.9208,305.566 354.4492,329.715 l 271.0449,37.593 c 58.7114,143.769 186.4656,251.397 345.1484,278.952 l 1066.2833,185.763 c 149.771,26.116 302.6838,28.009 452.9726,5.711 h 0.01 l 727.7304,-107.861 c 42.1463,-6.217 84.5614,-8.073 126.5997,-5.535 l 0.1093,0 1215.2305,72.49 c 108.438,6.569 216.9564,-4.587 321.377,-32.59 l 0.062,-0.02 431.4941,-115.914 -0.5,0.133 c 88.4702,-23.603 159.7693,-79.28 209.332,-150.707 l 335.4492,-32.601 c 21.8507,-2.076 43.6939,-2.605 65.1169,-1.59 l 965.977,46.89 c 8.178,90.33 48.933,178.505 127.648,242.51 l 28.549,23.24 0.176,0.141 c 112.279,91.116 260.888,123.751 401.685,86.855 h 0 l 156.807,-40.923 -0.74,0.191 c 111.957,-28.914 196.421,-108.46 239.232,-206.994 l 41.965,25.131 0.04,0.03 c 149.188,89.273 335.118,85.242 480.361,-11.164 226.599,-150.237 239.052,-480.617 24.436,-647.496 l -0.05,-0.04 -151.135,-117.42 17.971,2.09 0.1,0.01 c 151.26,17.493 304.016,-13.348 436.695,-88.353 l 49.129,-27.76 c 100.031,-56.508 169.183,-146.71 201.148,-248.705 223.316,116.676 499.65,0.979 567.686,-245.603 l 46.217,-166.694 0.01,-0.05 c 17.485,-63.15 20.444,-128.203 12.739,-191.826 l 84.57,-52.568 0.05,-0.03 c 170.265,-105.937 250.779,-310.034 198.586,-503.725 -43.055,-159.983 -154.586,-292.055 -304.334,-361.65 l -0.08,-0.03 -312.946,-145.223 c -146.936,-68.207 -307.146,-100.629 -468.615,-99.152 219.856,-138.321 223.137,-482.233 -28.51,-610.442 l -0.02,-0.01 -351.18,-178.841 -0.06,-0.03 c -135.952,-69.163 -292.298,-58.964 -414.569,18.332 l -924.633,-509.814 -0,-0 c -36.202,-19.976 -57.925,-56.83 -57.925,-98.029 0,-240.269 -112.556,-466.13 -304.573,-610.678 l -522.367,-393.274 c -0,0 -0,-0 -0,-0 -15.371,-11.577 -23.131,-29.542 -21.043,-48.655 v -0 l 37.342,-341.816 0,-0.01 c 15.116,-138.451 -37.962,-275.331 -142.367,-367.385 l -55.985,-49.464 -0.08,-0.07 c -190.842,-168.373 -492.2862,-91.198 -579.0406,147.801 l -104.3477,287.361 c -13.5184,37.226 -45.6954,62.255 -84.9844,66.2 l -0.072,0 -243.9727,24.612 -0.053,0 c -135.4946,13.716 -272.2105,-6.3 -398.0996,-58.301 l -0.061,-0.03 -191.289,-78.918 -0.01,-0 -0,-0 c -166.6243,-68.756 -290.1453,-212.306 -333.3399,-387.348 l -0,-0 -27.4688,-111.293 c -21.8282,-88.458 -10.0251,-181.651 33.0859,-261.765 l 0.014,-0.03 0.016,-0.03 c 13.5042,-25.108 38.8058,-38.026 67.0118,-34.254 l 69.6738,9.318 23.0859,49.485 0.01,0.02 c 78.7699,168.775 245.3362,278.897 431.498,285.25 l 3.5352,0.119 174.6016,1.84 h 0.084 c 252.288,2.516 435.1665,-241.548 361.8301,-482.978 l -84.7461,-279.577 43.1719,-0.234 h -0.2422 c 263.4478,-1.213 452.8206,-252.212 382.252,-505.742 l -0.012,-0.04 -86.1074,-309.031 c -3.0444,-10.928 -0.5403,-21.388 7.1367,-29.762 l 40.0684,-43.705 34.6113,12.517 0.051,0.02 c 105.7349,38.196 218.9874,36.125 322.9766,1.807 l 21.0019,30.492 0.055,0.08 c 117.2097,169.935 309.5477,272.265 516.1247,274.351 h -0.09 l 508.765,5.299 c 127.503,1.386 243.303,-59.784 319.399,-158.662 l 497.172,-93.383 0.03,-0 c 176.886,-33.262 338.799,-120.886 463.39,-250.687 l 188.192,-195.8946 0.08,-0.086 c 33.948,-35.3942 76.172,-60.7226 121.459,-79.0469 l 77.344,0.959 0.03,0 c 332.479,4.0586 630.878,-202.1308 744.517,-514.8027 l 0.02,-0.065 42.465,-116.998 c 74.068,-203.6783 235.212,-362.6404 439.941,-433.875 l 0.02,-0.01 860.677,-299.5898 0,-0 c 386.643,-134.5234 599.374,-548.5219 483.93,-941.164 l -0,-0.01 -492.605,-1675.0234 -0,-0.014 c -72.171,-245.3152 -259.229,-440.1178 -501.242,-522.2988 l -0.05,-0.018 -365.065,-123.8203 -0.01,-0 c -3.662,-1.2415 -2.753,0.2827 -1.969,-3.4707 l 32.754,-156.6836 c 26.89,-128.3115 8.684,-261.2779 -51.065,-377.3965 l -540.828,-1051.0547 -0.03,-0.053 c -99.288,-192.7662 -282.493,-327.9636 -496.008,-365.9844 l -0.166,-0.029 -110.176,-19.4902 -173.459,-491.4297 c 230.767,-148.397 306.184,-462.3796 149.168,-699.5879 l -46.547,-70.3906 280.369,-248.6075 c 199.646,-176.9436 138.615,-502.5527 -111.83,-594.9629 l -0.04,-0.016 -0.04,-0.016 c -75.43,-27.8069 -155.054,-38.89928 -233.566,-33.5977 z M 11297.521,16225.076 c 43.024,31.677 88.561,60.096 138.471,81.045 l 0.03,0.01 0.02,0.01 c 104.513,43.845 186.843,127.397 229.172,232.515 l 138.164,343.41 0,0 c 35.373,87.93 93.311,162.092 164.885,218.748 -0.776,0.04 -1.537,-0.115 -2.313,-0.07 l -0.197,0.01 -101.207,6.3 c 0,0 -0,0 -0,0 -35.984,2.217 -71.851,-5.805 -103.358,-23.089 l -0,-0 -1013.924,-556.119 379.959,-167.833 -0.07,0.03 c 69.896,-30.852 126.551,-78.51 170.38,-134.977 z"
       style="fill:#0000fe;fill-opacity:1;fill-rule:nonzero;stroke:none;stroke-width:375;stroke-linecap:round;stroke-linejoin:round;stroke-dasharray:none;paint-order:normal"
       id="path14" />
  </g>
  <g
     id="g11"
     transform="matrix(0.13333333,0,0,-0.13333333,-434.27271,2595.7759)"
     style="fill:#00ff00;fill-opacity:1;stroke:none;stroke-width:375;stroke-linecap:round;stroke-linejoin:round;stroke-dasharray:none;paint-order:normal">
    <path
       d="m 35052.199,3559.0996 c -89.7,0 -167.399,62.0996 -187.199,149.5996 l -85.699,378.9004 c -16,70.5 -70.201,126.1012 -140.301,143.7012 l -705,177.7988 c -40,10.1 -82.201,7.0008 -120.301,-8.6992 L 32818,3988.3008 c -36.6,-15.1 -76.9,-18.6004 -115.6,-9.9004 l -314.4,70.9004 c -96.4,21.7 -160.599,113.1992 -148.199,211.1992 l 169.799,1346.0996 c 9.3,73.4 59.901,135.0012 130.201,158.2012 l 759.599,251 c 19.3,6.4 37.6,15.9 54,28 l 1353.401,1002.5996 c 44.2,32.7 100.2,44.8996 154,33.5996 l 224.699,-47.5996 c 116.1,-24.5 182.3,-147.5004 138.9,-257.9004 -35.7,-90.8 2.301,-193.7996 88.401,-239.5996 l 178,-94.9004 c 97.2,-51.8 217.999,-11.1992 264.299,88.8008 l 123.3,266 c 71.5,154.4 293.7,146.3 353.7,-13 l 644.4,-1710.7012 c 23,-60.8 13.5,-129.1004 -25,-181.4004 l -922.4,-1252.5 c -36.2,-49.1 -93.5,-78.0996 -154.5,-78.0996 z"
       style="fill:#00ff00;fill-opacity:1;fill-rule:nonzero;stroke:none;stroke-width:375;stroke-linecap:round;stroke-linejoin:round;stroke-dasharray:none;paint-order:normal"
       id="path4" />
    <path
       d="m 36745.801,7323.1992 c -30.1,1.2 -58.502,14.2012 -79.102,36.2012 L 36459.301,7581.5 c -45.6,48.9 -123.301,48.3008 -168.201,-1.1992 l -101.299,-111.6016 c -25,-27.6 -61.901,-41.2996 -98.901,-36.5996 l -184.5,23.2012 c -37.7,4.8 -70.6,27.9984 -87.8,61.8984 L 35640.699,7869 c -12.5,24.6 -33.4,43.9008 -59,54.3008 L 35033.9,8146 c -26.2,10.6 -47.4,30.5004 -59.8,55.9004 l -105.401,216.5 c -32.6,67 6.601,146.9 79.701,162 46.9,9.7 94.9,-10.8996 120.2,-51.5996 L 35180.199,8349.5 c 33.5,-53.8 104.4,-70.1004 158,-36.4004 l 197,124.0996 c 31.6,19.9 70.901,23.1016 105.301,8.6016 l 814.801,-343 c 22.2,-9.3 40.898,-25.4 53.398,-46 l 340.102,-560 c 47.3,-77.9 -11.201,-177.2016 -102.301,-173.6016 z"
       style="fill:#00ff00;fill-opacity:1;fill-rule:nonzero;stroke:none;stroke-width:375;stroke-linecap:round;stroke-linejoin:round;stroke-dasharray:none;paint-order:normal"
       id="path5" />
    <path
       id="path6"
       style="fill:#00ff00;fill-opacity:1;fill-rule:nonzero;stroke:none;stroke-width:375;stroke-linecap:round;stroke-linejoin:round;stroke-dasharray:none;paint-order:normal"
       d="m 21714.682,3998.7734 c -0.771,0.1386 -1.543,0.2775 -2.315,0.4161 l 0.01,0.01 c -1.71,0.4538 -3.419,0.9076 -5.129,1.3613 1.281,-0.1673 2.561,-0.3346 3.842,-0.5019 -1.343,0.2931 -2.678,0.6501 -4.065,0.5469 -50.368,0.59 -100.619,9.6061 -148.064,26.5175 -51.75,18.441 -100.141,46.2598 -142.104,81.7188 -37.231,31.4159 -69.37,68.8392 -94.83,110.3691 -12.75,20.7432 -23.756,42.5439 -33.082,65.0313 -4.457,10.8089 -8.846,21.6459 -13.293,32.459 -165.702,404.5911 -331.41,809.1784 -497.107,1213.7715 -25.123,61.8852 -47.585,124.8494 -67.317,188.6582 -30.949,100.0634 -55.195,202.2922 -72.449,305.6406 -14.519,86.9223 -24.116,174.6655 -28.75,262.6699 -0.221,4.1553 -0.425,8.2779 -0.613,12.3906 -2.731,58.0514 -3.321,116.2027 -1.733,174.2969 2.09,76.5837 7.947,153.0645 17.553,229.0723 8.455,66.9595 19.807,133.5533 34.018,199.5312 10.314,47.871 22.143,95.4148 35.437,142.5449 3.023,10.8714 6.202,21.7016 8.91,32.6582 15.437,61.3094 22.797,124.6474 21.815,187.8633 -0.597,38.7993 -4.318,77.5476 -11.088,115.7559 -0.04,0.1713 -0.215,1.1783 -0.305,1.6738 -10.675,59.3126 -28.786,117.282 -53.779,172.1211 -5.31,11.6705 -10.793,23.2618 -16.168,34.9024 -96.12,206.9438 -192.25,413.8832 -288.363,620.83 -33.005,72.1934 -57.021,148.4829 -71.385,226.5508 -14.589,79.155 -19.163,160.1431 -13.678,240.4414 3.01,44.3211 9.127,88.4256 18.225,131.9063 2.061,9.7692 4.183,19.5386 5.537,29.4375 6.018,41.7833 3.473,84.7899 -7.553,125.5449 -11.93,44.2812 -33.707,85.893 -63.398,120.8535 -20.45,24.1012 -44.582,45.0655 -71.301,61.9512 -88.053,55.9273 -176.151,111.8942 -264.236,167.8203 -18.344,11.636 -36.666,23.3085 -55.024,34.9219 -40.119,24.9795 -82.883,45.7003 -127.332,61.7539 -0.03,0 -1.076,0.3824 -1.488,0.5273 -9.876,3.5449 -19.84,6.8416 -29.869,9.9258 -0.268,0.077 -1.148,0.3481 -1.653,0.5 -18.329,5.5705 -36.899,10.3469 -55.636,14.334 -0.257,0.05 -1.175,0.2454 -1.686,0.3515 -0.552,0.1159 -1.304,0.2739 -1.66,0.3497 -16.062,3.3273 -32.245,6.0645 -48.506,8.2207 -0.256,0.029 -1.19,0.1529 -1.707,0.2187 -2.657,0.3467 -5.687,0.7197 -8.115,1.0039 -10.88,1.2778 -21.791,2.2859 -32.721,3.0352 -0.26,0.02 -1.198,0.078 -1.719,0.1133 -12.552,0.822 -25.126,1.2941 -37.705,1.414 -0.303,0 -1.199,0.011 -1.73,0.012 -10.075,0.07 -20.151,-0.088 -30.219,-0.4648 -0.179,-0.012 -1.196,-0.05 -1.701,-0.072 -0.903,-0.037 -1.806,-0.074 -2.709,-0.1113 -0.179,-0.01 -1.195,-0.057 -1.699,-0.08 -0.904,-0.043 -1.808,-0.086 -2.711,-0.1289 -0.1,-0.01 -1.147,-0.064 -1.594,-0.09 -2.341,-0.1183 -5.203,-0.3018 -7.217,-0.4219 -16.153,-1.0456 -32.268,-2.6663 -48.304,-4.8633 -0.175,-0.029 -1.187,-0.1669 -1.686,-0.2383 -0.896,-0.1256 -1.79,-0.2513 -2.685,-0.3769 -0.174,-0.023 -1.185,-0.1736 -1.684,-0.2461 -15.444,-2.2551 -30.871,-5.0734 -46.084,-8.375 -209.458,-45.0415 -418.914,-90.0945 -628.373,-135.1289 -77.181,-16.1238 -156.51,-21.9523 -235.217,-17.211 -59.552,3.5848 -118.742,13.1661 -176.377,28.5801 -56.664,15.1374 -111.834,35.902 -164.426,61.8828 -62.002,30.6038 -120.404,68.4872 -173.638,112.6114 -28.01,23.196 -54.561,48.1435 -79.539,74.5742 -12.948,13.7411 -25.866,27.5116 -38.807,41.2597 -61.98,65.909 -123.959,131.8195 -185.914,197.752 -41.711,44.8662 -81.078,91.9098 -117.924,140.8496 -52.369,69.5663 -99.624,142.9823 -141.223,219.4783 -33.968,62.445 -64.167,126.936 -90.425,192.994 -23.675,59.592 -44.121,120.467 -61.213,182.27 -11.699,42.32 -21.836,85.095 -30.383,128.148 -12.647,63.754 -21.775,128.204 -27.357,192.959 -2.318,26.64 -3.932,53.337 -5.159,80.049 -2.133,44.182 -4.359,88.361 -6.377,132.549 -1.582,39.856 -1.679,79.771 -0.318,119.635 2.925,85.8 12.628,171.367 29.027,255.636 17.403,89.488 42.314,177.513 74.401,262.844 24.894,66.218 54.112,130.809 87.379,193.24 29.767,55.844 62.793,109.948 98.826,161.969 17.841,25.741 36.436,50.958 55.701,75.651 138.561,178.796 277.149,357.571 415.721,536.359 60.423,77.943 120.823,155.905 181.261,233.836 23.073,29.736 47.124,58.712 72.043,86.918 76.857,86.969 162.167,166.471 254.377,236.957 73.192,55.967 150.714,106.265 231.625,150.34 99.155,54.014 203.432,98.617 310.973,133.031 49.95,15.997 100.607,29.789 151.77,41.338 55.23,12.469 111.05,22.312 167.211,29.512 20.372,2.615 40.793,4.833 61.236,6.808 297.455,29.452 594.911,58.893 892.367,88.338 20.708,3.237 41.978,2.844 62.541,-1.225 23.287,-4.558 45.605,-13.899 65.266,-27.173 22.61,-15.229 41.756,-35.607 55.377,-59.233 15.835,-27.369 24.282,-58.991 24,-90.621 -0.04,-8.132 -0.454,-16.256 -0.664,-24.385 -1.321,-42.163 -2.665,-84.342 -3.913,-126.494 -0.382,-8.631 0.04,-17.294 1.282,-25.844 3.359,-23.438 12.66,-46.015 26.924,-64.927 14.928,-19.912 35.188,-35.809 58.154,-45.422 6.089,-2.559 12.303,-4.802 18.435,-7.252 0.337,-0.127 1.119,-0.437 1.627,-0.633 222.603,-86.747 445.203,-173.501 667.809,-260.242 5.401,-2.058 10.856,-3.968 16.355,-5.746 0.1,-0.03 1.095,-0.349 1.522,-0.483 12.209,-3.874 24.642,-7.038 37.213,-9.496 0.1,-0.01 1.128,-0.217 1.568,-0.299 0.607,-0.118 0.766,-0.148 1.492,-0.281 1.165,-0.218 2.332,-0.422 3.498,-0.631 0.106,-0.02 1.134,-0.194 1.577,-0.271 3.862,-0.659 7.735,-1.24 11.617,-1.768 0.06,-0.01 1.135,-0.149 1.572,-0.207 9.763,-1.268 19.582,-2.099 29.418,-2.508 0.104,0 1.149,-0.04 1.598,-0.06 0.646,-0.03 0.863,-0.03 1.623,-0.06 0.685,-0.02 1.126,-0.04 1.632,-0.05 1.285,-0.04 3.054,-0.07 4.041,-0.09 41.294,-0.589 82.677,6.503 121.43,20.771 34.821,12.791 67.493,31.405 96.248,54.842 12.65,10.28 24.514,21.514 35.569,33.49 9.223,9.729 19.142,18.802 29.742,27.014 27.671,21.541 59.675,37.496 93.554,46.56 36.555,9.831 75.238,11.708 112.557,5.331 11.867,-2.014 23.57,-4.909 35.094,-8.368 109.311,-31.512 218.639,-62.962 327.957,-94.447 66.656,-19.186 133.309,-38.381 199.969,-57.551 73.442,-20.616 149.551,-31.699 225.822,-32.89 0.253,0 1.2,-0.01 1.721,-0.02 0.84,0 2.033,-0.03 2.652,-0.03 31.864,-0.34 63.744,1.047 95.461,4.109 0.275,0.03 1.194,0.118 1.717,0.17 12.98,1.327 25.948,2.77 38.923,4.137 46.658,4.978 93.285,9.978 139.946,14.984 43.784,5.056 86.287,20.874 122.695,45.721 33.195,22.593 61.392,52.519 81.828,87.094 16.468,27.763 27.937,58.47 33.74,90.222 4.652,25.37 9.275,50.744 13.916,76.118 10.262,56.194 20.548,112.385 30.795,168.583 1.48,8.21 2.066,16.583 1.643,24.918 -0.831,17.378 -5.875,34.544 -14.664,49.565 -11.458,19.777 -29.094,35.969 -49.936,45.408 -14.285,6.511 -29.983,9.835 -45.677,9.818 -9.86,0.08 -19.72,0.06 -29.58,0.125 -140.675,0.566 -281.351,1.125 -422.026,1.711 -11.163,0.524 -22.238,2.128 -33.295,3.676 -68.483,10.18 -134.781,34.768 -193.342,71.703 -44.297,27.895 -84.215,62.737 -117.802,102.893 -32.881,39.314 -59.723,83.672 -79.225,131.07 -5.006,12.173 -9.687,24.503 -13.326,37.16 -10.551,37.309 -11.407,77.325 -2.346,115.03 9.272,38.896 28.878,75.301 56.393,104.33 22.949,24.274 51.296,43.407 82.39,55.615 47.433,19.165 94.903,38.24 142.352,57.367 86.963,35.031 173.927,70.06 260.9,105.065 48.35,19.069 98.973,32.342 150.442,39.55 49.342,6.913 99.464,8.182 149.097,3.842 102.999,-9.125 205.998,-18.264 308.991,-27.451 116.057,-10.326 232.107,-20.717 348.16,-31.092 9.353,-0.662 18.907,3.144 25.223,10.08 6.026,6.43 9.39,15.383 8.664,24.207 -0.421,5.281 -1.807,10.426 -3.215,15.514 -5.736,19.349 -17.47,36.874 -33.233,49.486 -6.055,4.894 -12.722,8.986 -19.679,12.463 -135.682,71.426 -271.369,142.842 -407.041,214.285 -4.997,2.598 -9.892,5.4 -14.557,8.559 -23.589,15.817 -42.359,38.769 -52.979,65.125 -11.37,27.921 -13.738,59.461 -6.402,88.721 4.414,17.821 12.356,34.723 23.022,49.652 8.729,12.864 17.453,25.732 26.171,38.604 -0.318,1.163 -0.535,2.373 -0.916,3.505 -0.657,0.845 -1.314,1.692 -1.97,2.536 -21.609,1.614 -43.219,3.229 -64.828,4.835 -6.316,0.466 -12.766,0.937 -19.133,1.405 -4.423,0.37 -8.878,0.667 -13.305,0.179 -14.311,-1.398 -28.041,-8.361 -37.449,-19.265 -4.096,-4.66 -7.277,-10.049 -9.869,-15.668 -21.632,-43.267 -43.225,-86.554 -64.92,-129.789 -15.383,-29.121 -40.273,-53.127 -69.99,-67.344 -29.082,-14.042 -62.568,-18.857 -94.405,-13.348 -20.359,3.482 -39.955,11.123 -57.449,22.082 -54.806,32.617 -109.591,65.27 -164.422,97.844 -18.849,10.611 -41.386,14.513 -62.697,10.772 -20.482,-3.49 -39.825,-13.714 -53.963,-28.981 -6.513,-6.964 -11.877,-14.951 -16.172,-23.451 -39.407,-73.219 -78.806,-146.44 -118.279,-219.623 -5.161,-9.753 -10.808,-19.29 -14.912,-29.561 -10.358,-25.407 -13.885,-53.565 -10.039,-80.736 1.8,-12.975 5.295,-25.689 10.086,-37.873 11.188,-30.946 12.533,-65.387 3.613,-97.076 -9.633,-34.631 -31.172,-65.846 -60.24,-87.014 -22.568,-16.527 -49.536,-27.035 -77.377,-29.894 -10.402,-1.113 -20.895,-1.086 -31.328,-0.461 -34.207,1.444 -68.414,2.893 -102.621,4.318 -10.59,0.429 -21.316,0.87 -31.958,1.303 -14.204,0.589 -28.468,-0.709 -42.384,-3.582 -13.083,-2.705 -25.847,-6.899 -38.039,-12.356 -50.382,-21.478 -100.769,-42.927 -151.123,-64.449 -4.297,-2.213 -6.537,-7.848 -4.664,-12.363 0.99,-2.263 2.335,-4.352 3.476,-6.541 6.612,-12.075 13.377,-24.071 19.705,-36.299 23.127,-45.576 34.771,-96.916 33.557,-148.01 -0.912,-40.885 -9.896,-81.58 -26.379,-119.011 -12.792,-29.115 -30.004,-56.301 -50.982,-80.208 -13.604,-15.511 -31.02,-27.591 -50.168,-35.224 -22.003,-8.807 -46.393,-11.414 -69.788,-7.721 -18.017,2.8 -35.44,9.36 -50.794,19.199 -14.499,9.262 -27.137,21.387 -37.108,35.401 -54.814,73.539 -109.656,147.059 -164.42,220.635 -37.838,52.051 -65.544,111.426 -81.156,173.853 -3.931,15.538 -6.79,31.318 -9.973,47.02 -2.569,12.796 -5.021,25.619 -7.808,38.371 -0.521,2.292 -1.073,4.575 -1.635,6.857 0,-0.06 -0.281,1.098 -0.387,1.508 -12.299,48.164 -35.35,93.552 -67.025,131.867 -12.048,14.614 -25.37,28.156 -39.602,40.645 -99.979,89.769 -199.943,179.54 -299.931,269.298 -15.778,14.152 -31.531,28.332 -47.325,42.465 -3.435,2.986 -6.976,5.849 -10.609,8.59 -0.04,0.03 -0.917,0.685 -1.268,0.949 -28.342,21.019 -62.274,34.465 -97.355,38.364 -10.979,1.242 -22.073,1.662 -33.102,0.908 -10.122,-1.194 -19.599,-6.869 -25.463,-15.201 -5.721,-7.901 -8.379,-18.085 -6.712,-27.746 0.74,-4.6 2.553,-8.921 4.349,-13.188 18.792,-46.267 37.539,-92.551 56.414,-138.785 16.479,-38.357 43.989,-71.954 78.561,-95.397 7.445,-5.084 15.155,-9.762 22.721,-14.662 92.976,-59.397 185.951,-118.794 278.91,-178.218 28.67,-19.003 51.362,-46.89 64.066,-78.86 12.66,-31.607 15.69,-67.027 8.354,-100.291 -4.182,-19.207 -11.793,-37.628 -22.127,-54.338 -24.57,-41.423 -49.094,-82.873 -73.729,-124.257 -13.23,-20.987 -34.305,-36.969 -58.221,-43.684 -25.28,-7.263 -53.294,-4.427 -76.591,7.791 -19.99,10.397 -36.439,27.552 -45.7,48.119 -4.226,9.243 -6.891,19.127 -8.611,29.123 -4.774,24.103 -9.464,48.222 -14.383,72.295 -9.832,44.336 -31.575,85.959 -62.334,119.367 -6.453,7.026 -13.299,13.689 -20.478,19.971 0.02,-0.01 -0.859,0.744 -1.182,1.025 -8.247,7.151 -16.977,13.734 -26.006,19.864 -114.054,79.599 -228.104,159.204 -342.174,238.781 -42.115,28.874 -87.859,52.437 -135.802,70.006 -67.039,24.595 -138.414,37.31 -209.823,37.369 -12.62,-0.03 -25.24,-0.25 -37.861,-0.363 -99.864,-1.131 -199.728,-2.253 -299.592,-3.395 0,0 -1.139,-0.02 -1.57,-0.03 -39.551,-0.859 -78.839,-11.56 -113.369,-30.864 -25.033,-13.941 -47.49,-32.418 -66.203,-54.103 -31.374,-35.501 -62.803,-70.956 -94.096,-106.529 -43.81,-50.717 -80.693,-107.413 -109.262,-168.039 -17.063,-36.163 -31.19,-73.707 -42.228,-112.139 0,-0.03 -0.311,-1.101 -0.428,-1.522 -2.933,-10.258 -5.722,-21.01 -8.137,-31.121 -3.295,-13.816 -6.193,-27.726 -8.72,-41.703 -0.04,-0.179 -0.21,-1.178 -0.299,-1.676 -2.661,-15.135 -5.985,-30.175 -10.555,-44.857 -12.39,-40.362 -32.392,-78.373 -58.664,-111.426 -26.89,-33.847 -60.315,-62.477 -97.896,-83.842 -16.063,-9.149 -32.892,-16.939 -50.227,-23.353 -8.325,-3.093 -16.762,-5.874 -25.131,-8.844 -83.414,-29.111 -166.825,-58.231 -250.248,-87.318 -75.922,-25.763 -156.694,-37.178 -236.781,-33.36 -46.55,2.203 -92.862,9.439 -137.86,21.565 -26.412,7.104 -52.361,15.91 -77.681,26.25 -11.445,4.625 -22.752,9.628 -33.629,15.48 -38.641,20.541 -72.898,49.308 -99.717,83.895 -22.353,28.736 -39.653,61.392 -50.806,96.051 -13.346,41.38 -17.917,85.569 -13.254,128.8 3.918,38.678 7.903,77.348 11.845,116.024 9.182,89.794 18.35,179.591 27.586,269.379 5.618,48.698 22.789,96.035 49.823,136.937 25.604,38.823 59.862,71.925 99.634,96.045 37.646,22.894 80.149,37.79 123.881,43.24 15.877,2.018 31.902,2.697 47.899,2.491 124.429,0 248.858,-0.116 373.287,-0.186 36.038,0.237 71.982,10.172 102.953,28.617 30.059,17.828 55.484,43.435 72.935,73.727 7.114,12.301 13.027,25.31 17.508,38.797 7.228,22.824 7.402,47.827 0.44,70.738 -5.085,16.935 -13.982,32.689 -25.76,45.869 -31.87,37.085 -63.818,74.101 -95.625,111.238 -25.774,31.185 -43.103,69.318 -49.408,109.295 -6.366,39.713 -2.081,81.088 12.371,118.627 13.07,34.107 34.444,65.023 61.881,89.151 8.741,7.695 18.003,14.831 27.896,20.986 5.564,3.12 11.549,5.476 17.699,7.152 5.894,1.505 12.015,1.822 18.073,1.655 40.881,-0.172 81.761,-0.439 122.642,-0.532 10.781,0.143 21.556,0.823 32.272,2.014 -0.05,0 1.126,0.131 1.548,0.18 5.455,0.633 10.894,1.407 16.311,2.308 0,0 1.122,0.194 1.547,0.266 39.561,6.78 77.853,20.853 112.396,41.293 23.279,13.757 44.859,30.381 64.092,49.387 5.934,5.801 11.573,11.892 17.135,18.047 68.951,75.141 137.92,150.266 206.889,225.392 10.524,11.628 20.403,23.832 29.744,36.428 0.106,0.153 0.709,0.965 1.008,1.373 0.385,0.523 0.769,1.044 1.154,1.566 0.131,0.175 0.706,0.971 1.008,1.385 10.436,14.361 20.182,29.214 29.443,44.356 0.173,0.277 0.624,1.026 0.904,1.484 6.339,10.41 12.31,21.062 19.348,31.029 25.399,36.683 59.035,67.629 97.73,89.846 34.384,19.809 72.701,32.772 112.065,37.818 15.571,2.028 31.292,2.726 46.986,2.487 38.657,-0.08 77.315,-0.162 115.973,-0.244 1.04,0.279 2.227,0.229 3.055,1.011 15.699,11.272 27.037,28.477 31.072,47.389 3,13.751 2.258,28.309 -2.246,41.652 -6.457,20.219 -13.032,40.4 -19.414,60.643 -2.262,6.955 -4.176,14.021 -5.735,21.166 -8.298,37.818 -7.07,77.704 3.711,114.9 10.392,36.11 29.546,69.687 55.502,96.873 14.437,15.173 30.952,28.34 48.848,39.209 16.845,10.244 33.609,20.62 50.463,30.85 4.58,2.752 9.079,5.666 13.914,7.965 22.62,11.132 48.987,14.544 73.664,9.293 26.511,-5.508 50.954,-20.599 67.576,-41.998 15.03,-19.202 23.686,-43.322 24.154,-67.713 0.242,-8.594 0.272,-17.193 0.469,-25.789 1.047,-61.119 2.056,-122.24 3.166,-183.358 0.648,-11.916 7.421,-23.275 17.527,-29.599 6.377,-4.072 13.983,-6.148 21.543,-5.934 112.315,-0.766 224.63,-1.487 336.946,-2.236 144.045,-0.95 288.09,-1.91 432.134,-2.852 25.753,0.153 51.37,9.145 71.53,25.178 18.19,14.345 32.054,34.171 39.004,56.291 2.042,6.338 3.404,12.863 4.681,19.389 7.233,34.759 14.421,69.525 21.723,104.269 7.809,32.451 22.966,63.096 43.971,89.031 18.263,22.531 40.937,41.459 66.34,55.45 17.743,9.797 36.831,17.134 56.552,21.802 8.348,2.015 16.806,3.527 25.205,5.307 5.91,1.211 11.884,2.432 17.711,3.637 3.521,0.769 7.078,1.389 10.575,2.257 6.213,1.846 10.97,7.614 11.716,14.038 0.36,3.114 -0.274,6.228 -0.525,9.328 -0.796,8.352 -1.66,16.609 -2.473,24.967 -0.09,0.964 -0.169,1.774 -0.265,2.785 -0.794,7.62 -1.233,15.288 -0.909,22.949 1.037,28.98 10.719,57.606 27.602,81.195 16.561,23.285 39.871,41.764 66.459,52.287 11.854,4.73 24.317,7.847 36.945,9.627 73.701,11.965 147.375,23.932 221.071,35.926 2.333,0.429 4.707,0.664 7.011,1.227 4.657,1.435 8.294,5.7 8.942,10.537 0.174,1.037 0.256,2.131 -0.274,3.082 -0.09,0.716 -0.882,1.055 -1.449,1.109 -7.78,0.3 -15.569,0.456 -23.353,0.701 -117.077,3.354 -234.156,6.692 -351.233,10.057 -7.532,0.212 -15.052,0.782 -22.517,1.818 -35.675,4.808 -70.052,18.996 -98.678,40.832 -28.281,21.495 -51.001,50.287 -65.119,82.897 -3.715,8.456 -6.683,17.208 -9.715,25.924 -9.768,27.825 -19.587,55.633 -29.264,83.49 -10.402,33.4 -12.943,69.211 -7.381,103.748 4.354,26.992 13.641,53.171 27.239,76.889 9.543,16.669 21.242,32.092 34.687,45.808 6.291,6.458 12.767,12.734 19.108,19.143 29.779,29.76 59.565,59.515 89.318,89.301 6.595,7.103 9.993,17.06 9.053,26.714 -0.845,10.063 -5.924,19.811 -14.063,25.877 -5.071,3.833 -11.131,5.996 -17.088,8.026 -16.443,5.372 -34.317,6.357 -51.219,2.619 -17.671,-3.839 -34.255,-12.669 -47.173,-25.342 -4.477,-4.347 -8.857,-8.792 -13.321,-13.152 -75.492,-74.703 -151.01,-149.38 -226.461,-224.125 -22.58,-23.078 -38.145,-52.939 -44.043,-84.69 -5.535,-29.336 -3.031,-60.19 7.459,-88.16 4.332,-11.679 10.079,-22.806 16.805,-33.281 9.04,-14.647 16.946,-30.008 23.363,-45.985 15.558,-38.497 23.043,-80.251 21.653,-121.757 -1.316,-41.125 -11.208,-81.967 -28.975,-119.086 -5.48,-11.469 -11.078,-22.882 -16.59,-34.336 -20.148,-41.621 -40.189,-83.294 -60.347,-124.91 -28.271,-56.882 -66.449,-108.82 -112.307,-152.774 -47.421,-45.478 -103.012,-82.405 -163.314,-108.492 -16.329,-7.069 -32.978,-13.431 -49.958,-18.76 -36.72,-10.965 -76.419,-11.738 -113.539,-2.213 -33.783,8.604 -65.414,25.564 -91.195,49.039 -16.723,15.171 -30.917,33.071 -42.144,52.649 -8.195,14.433 -16.5,28.806 -24.741,43.213 -33.97,59.255 -67.949,118.485 -101.943,177.73 -9.485,15.746 -25.583,27.321 -43.518,31.336 -11.74,2.696 -24.173,2.219 -35.685,-1.316 -47.171,-13.199 -94.314,-26.498 -141.504,-39.629 -35.905,-9.286 -74.324,-8.678 -109.891,1.851 -39.962,11.739 -76.248,35.771 -102.47,68.153 -19.684,24.191 -33.801,52.886 -40.905,83.256 -3.817,15.817 -7.555,31.651 -11.347,47.474 -8.74,36.652 -17.523,73.294 -26.176,109.967 -7.359,33.711 -7.804,68.889 -1.533,102.809 6.882,37.116 22,72.656 43.851,103.429 19.706,27.846 45.011,51.689 73.914,69.799 13.968,8.783 28.792,16.189 44.162,22.182 71.743,28.896 143.526,57.688 215.258,86.609 14.352,5.718 28.182,12.726 41.403,20.711 31.542,19.094 59.449,44.177 81.712,73.572 2.272,2.98 4.626,6.119 6.791,9.041 12.39,16.678 24.836,33.316 37.243,49.981 15.526,20.815 31.038,41.64 46.646,62.394 40.475,53.202 84.119,103.993 130.592,152.043 53.151,54.969 110.016,106.347 170.098,153.641 66.11,52.062 136.088,99.21 209.173,140.918 98.9,56.434 203.478,102.919 311.657,138.465 23.004,7.55 46.157,14.654 69.482,21.15 62.306,17.182 126.042,29.169 190.328,35.842 78.264,8.14 157.348,8.338 235.653,0.607 52.859,-5.209 105.367,-14.01 157.027,-26.361 23.379,-5.694 46.722,-11.535 70.086,-17.293 324.179,-80.181 648.357,-160.364 972.529,-240.572 37.024,-9.546 71.34,-29.365 98.074,-56.705 25.756,-26.215 44.532,-59.236 53.795,-94.805 2.496,-9.472 4.209,-19.131 5.557,-28.826 1.635,-8.127 7.656,-15.152 15.348,-18.186 5.169,-2.117 11.096,-2.403 16.416,-0.826 101.207,26.03 202.461,52.112 303.689,78.162 1014.712,261.191 2029.425,522.383 3044.137,783.573 30.291,8.934 60.667,17.579 91.146,25.849 49.243,13.357 98.727,25.831 148.426,37.377 58.762,13.657 117.822,26.028 177.123,37.117 76.242,14.245 152.884,26.363 229.803,36.323 56.409,7.31 112.968,13.456 169.629,18.451 60.148,5.286 120.407,9.275 180.728,11.943 31.853,1.401 63.722,2.458 95.6,3.133 0.404,0 1.201,0.02 1.756,0.03 68.137,1.412 136.308,1.168 204.433,-0.76 60.464,-1.717 120.891,-4.738 181.223,-9.087 98.686,-7.11 197.221,-17.738 295.189,-31.864 53.067,-7.645 105.979,-16.347 158.715,-26.011 68.257,-12.425 136.512,-24.89 204.768,-37.327 478.218,-87.184 956.436,-174.367 1434.654,-261.552 0.352,-0.06 1.182,-0.209 1.717,-0.303 6.974,-1.252 13.953,-2.469 20.937,-3.66 0.379,-0.06 1.185,-0.197 1.727,-0.287 6.984,-1.184 13.976,-2.326 20.971,-3.446 0.362,-0.05 1.185,-0.185 1.724,-0.269 4.474,-0.709 8.951,-1.398 13.428,-2.084 0.381,-0.06 1.187,-0.182 1.731,-0.264 1.95,-0.294 3.901,-0.587 5.851,-0.881 0.355,-0.05 1.189,-0.174 1.727,-0.252 1.952,-0.286 3.903,-0.571 5.855,-0.857 0.382,-0.06 1.189,-0.171 1.733,-0.25 7.012,-1.015 14.03,-1.986 21.05,-2.938 0.366,-0.05 1.192,-0.157 1.733,-0.23 16.555,-2.214 33.136,-4.231 49.736,-6.076 0.317,-0.04 1.194,-0.131 1.725,-0.19 12.171,-1.338 24.354,-2.568 36.545,-3.711 0.292,-0.02 1.195,-0.107 1.722,-0.154 2.586,-0.235 5.493,-0.496 7.877,-0.715 l 7.863,-0.681 c 0.386,-0.03 1.197,-0.1 1.745,-0.143 9.277,-0.784 18.558,-1.503 27.843,-2.174 0.403,-0.03 1.197,-0.08 1.75,-0.123 1.554,-0.108 3.227,-0.229 4.662,-0.324 7.625,-0.525 15.253,-1.004 22.883,-1.451 0.404,-0.02 1.198,-0.07 1.752,-0.102 13.096,-0.753 26.201,-1.379 39.309,-1.9 0.404,-0.02 1.2,-0.05 1.754,-0.07 5.284,-0.204 10.568,-0.388 15.853,-0.558 0.446,-0.02 1.267,-0.04 1.856,-0.06 270.14,-8.171 540.28,-16.31 810.42,-24.47 847.973,-25.603 1695.945,-51.198 2543.918,-76.805 80.453,-2.552 160.81,-8.179 240.832,-16.879 102.443,-11.127 204.336,-27.319 305.179,-48.508 26.076,-5.495 52.069,-11.318 78.102,-16.998 440.528,-96.647 881.058,-193.294 1321.592,-289.918 80.793,-17.715 161.589,-35.422 242.377,-53.164 39.069,-9.003 76.138,-26.854 107.228,-52.211 31.989,-25.995 57.661,-59.656 74.422,-97.304 16.566,-37.061 24.614,-77.929 23.086,-118.508 -1.305,-35.973 -10.079,-71.66 -25.658,-104.114 -8.221,-17.218 -18.338,-33.505 -29.879,-48.689 -20.073,-27.32 -41.488,-53.662 -64.305,-78.738 -58.457,-64.366 -125.648,-120.799 -199.211,-167.159 -44.769,-28.241 -91.873,-52.77 -140.65,-73.324 -184.124,-78.649 -368.253,-157.29 -552.367,-235.963 -12.238,-5.513 -22.32,-15.763 -27.36,-28.232 -5.786,-13.906 -5.82,-30.248 0.532,-43.973 3.376,-7.379 8.537,-13.865 14.714,-19.101 61.011,-54.265 122.032,-108.522 183.026,-162.807 13.297,-11.871 25.851,-24.566 37.703,-37.877 33.373,-37.56 60.79,-80.417 80.789,-126.515 20.707,-47.616 33.571,-98.633 37.869,-150.381 0.373,-4.516 0.698,-9.038 0.928,-13.563 0.107,-1.979 0.215,-4.16 0.301,-6.217 1.229,-29.381 -0.333,-58.862 -4.453,-87.974 -12.483,-94.259 -24.955,-188.521 -37.465,-282.776 -4.042,-28.002 -17.531,-54.603 -37.985,-74.187 -19.767,-19.068 -45.691,-31.644 -72.914,-35.313 -24.61,-3.381 -50.208,0.462 -72.629,11.204 -12.195,5.801 -23.409,13.58 -33.336,22.722 -44.743,39.997 -89.533,79.941 -134.296,119.916 -97.731,87.245 -195.458,174.492 -293.17,261.756 -59.118,53.608 -107.797,118.693 -142.444,190.588 -24.206,50.128 -41.652,103.512 -51.722,158.26 -6.919,37.548 -10.321,75.734 -10.299,113.912 0.02,81.796 0.01,163.591 0,245.388 -0.146,27.7 -8.634,55.332 -24.27,78.217 -15.996,23.561 -39.134,42.231 -65.627,52.711 -20.022,7.975 -41.891,11.29 -63.373,9.488 -7.882,-0.622 -15.68,-1.998 -23.41,-3.626 -231.501,-45.142 -463.001,-90.29 -694.521,-135.333 -120.72,-23.484 -241.449,-46.925 -362.17,-70.402 -56.23,-11.225 -110.603,-31.708 -160.241,-60.414 -48.237,-27.86 -91.992,-63.444 -129.132,-104.959 -23.81,-26.584 -44.91,-55.591 -62.907,-86.408 -0.04,-0.07 -0.574,-0.992 -0.798,-1.377 -13.34,-22.996 -24.951,-46.994 -34.788,-71.691 -0.348,-0.892 -0.682,-1.791 -1.017,-2.688 0.01,0.02 -0.389,-1.069 -0.533,-1.471 -8.558,-23.771 -11.792,-49.438 -9.362,-74.586 3.183,-33.565 16.488,-66.032 37.491,-92.378 18.582,-23.382 43.322,-41.845 71.103,-52.838 12.578,-5.017 25.76,-8.399 39.102,-10.635 45.545,-8.483 91.101,-16.906 136.627,-25.492 58.959,-11.95 115.314,-36.495 164.267,-71.455 32.289,-23.031 61.321,-50.585 86.166,-81.491 102.963,-125.557 205.929,-251.111 308.869,-376.687 48.483,-60.049 84.625,-130.016 105.502,-204.319 17.761,-63.048 24.622,-129.152 20.129,-194.501 -2.388,-34.984 -8.049,-69.731 -16.699,-103.709 -11.456,-45.953 -22.862,-91.919 -34.299,-137.877 -21.656,-87.053 -43.27,-174.116 -64.926,-261.168 -8.947,-35.139 -26.773,-67.986 -51.435,-94.575 -23.13,-25.019 -52.16,-44.528 -84.043,-56.541 -30.627,-11.597 -63.862,-16.175 -96.49,-13.423 -11.115,0.921 -22.145,2.736 -33.006,5.257 -20.997,4.392 -43.597,0.378 -61.832,-10.91 -14.302,-8.756 -25.961,-21.807 -32.895,-37.09 -2.863,-6.217 -5.524,-12.524 -8.347,-18.759 -29,-65.422 -58.112,-130.793 -87.17,-196.188 -11.923,-27.636 -15.168,-58.942 -9.092,-88.426 5.274,-26.005 17.575,-50.575 35.394,-70.252 6.996,-7.791 14.902,-14.719 23.237,-21.039 24.857,-19.678 46.349,-43.578 63.334,-70.345 59.311,-91.564 118.594,-183.146 177.863,-274.737 20.234,-32.087 31.932,-69.526 33.377,-107.443 1.784,-44.113 -10.14,-88.703 -33.885,-125.938 -16.668,-26.286 -39.04,-48.938 -65.164,-65.865 -16.196,-10.604 -33.919,-19.058 -52.703,-23.906 -27.682,-7.304 -57.236,-7.41 -84.951,-0.209 -29.933,7.698 -57.745,23.652 -79.268,45.863 -16.998,17.462 -30.117,38.657 -38.236,61.631 -25.409,68.474 -50.744,136.978 -76.186,205.44 -12.794,33.738 -30.465,65.608 -52.183,94.416 -19.312,25.638 -41.886,48.81 -66.996,68.802 -8.56,6.839 -17.435,13.273 -26.5,19.422 -72.027,49.709 -144.036,99.443 -216.086,149.117 -22.618,15.002 -50.365,22.103 -77.409,19.754 -15.871,-1.322 -31.428,-5.879 -45.613,-13.093 -12.711,-6.1 -25.333,-12.544 -38.791,-16.877 -34.234,-11.438 -71.61,-13.307 -106.805,-5.284 -35.713,8.06 -69.137,26.135 -95.269,51.799 -7.349,7.155 -14.033,14.95 -21.008,22.461 -12.949,14.133 -25.847,28.317 -38.892,42.361 -5.027,4.706 -12.518,6.458 -19.153,4.719 -5.231,-1.293 -9.944,-4.675 -12.656,-9.357 -2.433,-3.885 -4.676,-7.886 -7.074,-11.793 -22.785,-38.164 -45.581,-76.323 -68.324,-114.512 -6.752,-12.208 -8.736,-26.995 -5.284,-40.527 3.513,-14.236 12.535,-27.162 25.069,-34.875 6.17,-3.879 13.128,-6.373 20.25,-7.819 98.776,-23.004 197.561,-45.967 296.328,-69.011 28.162,-7.125 53.799,-23.981 71.306,-47.188 18.404,-24.149 28.066,-54.838 26.623,-85.181 -1.164,-25.903 -10.275,-51.418 -25.947,-72.092 -5.071,-6.778 -10.351,-13.394 -15.478,-20.129 -13.474,-17.477 -27.001,-34.914 -40.381,-52.463 -13.177,-18.365 -19.416,-41.552 -17.287,-64.051 1.705,-18.95 9.149,-37.377 21.287,-52.051 2.079,-2.543 4.554,-5.262 6.599,-7.504 9.724,-10.644 19.381,-21.349 29.081,-32.015 92.82,-102.281 185.643,-204.557 278.439,-306.861 37.235,-41.933 64.909,-92.305 80.305,-146.231 14.236,-49.742 18.129,-102.434 11.187,-153.713 -1.892,-14.107 -4.72,-28.062 -7.154,-42.08 -28.453,-158.827 -56.904,-317.654 -85.387,-476.476 -14.764,-79.324 -44.016,-155.926 -85.89,-224.897 -41.058,-67.697 -94.176,-128.07 -156.186,-177.307 -28.125,-22.348 -58.052,-42.416 -89.348,-60.048 -170.213,-97.72 -340.418,-195.452 -510.634,-293.164 -39.179,-22.015 -83.09,-35.538 -127.862,-39.418 -47.432,-4.132 -95.777,2.555 -140.283,19.478 -8.978,3.421 -17.788,7.266 -26.635,11.008 -0.333,0.145 -1.105,0.467 -1.607,0.68 -7.538,3.173 -15.055,6.364 -22.594,9.548 -0.348,0.141 -1.106,0.463 -1.611,0.674 -7.152,2.968 -14.246,6.13 -21.674,8.363 -25.786,7.994 -53.819,8.609 -79.916,1.674 -24.528,-6.444 -47.351,-19.368 -65.346,-37.256 -5.449,-5.356 -10.333,-11.238 -15.238,-17.085 -15.846,-18.695 -31.753,-37.34 -47.488,-56.129 -15.437,-19.538 -24.195,-44.256 -24.434,-69.161 -0.291,-21.872 5.759,-43.833 17.49,-62.32 4.613,-7.354 10.149,-14.089 16.139,-20.359 76.494,-83.613 152.983,-167.227 229.447,-250.867 48.556,-54.034 88.426,-115.843 117.701,-182.325 16.154,-36.651 29.056,-74.724 38.661,-113.605 12.901,-51.112 25.89,-102.202 38.71,-153.334 12.665,-53.589 14.872,-109.634 6.389,-164.045 -8.345,-53.875 -27.086,-106.117 -54.9,-153.006 -20.236,-34.149 -45.274,-65.432 -74.067,-92.752 -51.923,-49.252 -103.812,-98.5393 -155.742,-147.785 -10.655,-10.091 -21.277,-20.2169 -31.953,-30.2851 -27.935,-25.5238 -63.17,-43.0029 -100.447,-49.584 -36.378,-6.5257 -74.531,-2.9204 -109.002,10.4316 -32.771,12.6384 -62.181,33.9471 -84.227,61.3067 -6.1,7.5585 -11.811,15.4174 -17.734,23.1132 -86.656,113.9596 -173.31,227.9206 -259.992,341.8596 -10.809,13.605 -27.788,22.079 -45.162,22.512 -5.92,0.209 -11.844,0.05 -17.766,0.16 -11.826,0.04 -23.654,0.222 -35.48,0.105 -8.856,-0.671 -17.055,-6.936 -19.879,-15.383 -1.235,-3.561 -1.479,-7.349 -2.182,-11.029 -14.45,-87.347 -28.937,-174.687 -43.318,-262.045 -6.018,-40.6447 -2.179,-82.7223 11.203,-121.576 12.257,-35.7757 32.484,-68.7989 58.822,-95.9395 42.87,-44.3855 85.812,-88.7701 128.713,-133.1562 71.454,-73.9111 142.907,-147.8231 214.346,-221.7481 31.443,-33.1713 56.596,-72.2678 73.818,-114.6016 10.236,-25.0922 17.599,-51.3378 22.098,-78.0566 1.346,-7.7974 2.336,-15.6483 3.285,-23.502 11.931,-93.3961 23.863,-186.7924 35.756,-280.1933 2.824,-26.491 -3.847,-53.9492 -18.827,-76.0137 -15.591,-23.2453 -39.847,-40.5164 -66.931,-47.5937 -24.23,-6.4056 -50.58,-4.6461 -73.653,5.1894 -7.41,3.1073 -14.398,7.1074 -21.265,11.2539 -35.021,20.5164 -70.074,40.9758 -105.035,61.5918 -54.418,32.9313 -103.193,75.141 -143.686,124.1875 -16.938,20.5169 -32.403,42.2414 -46.322,64.9141 -5.655,9.2339 -11.172,18.5507 -16.787,27.8086 -77.607,128.7263 -155.219,257.4457 -232.797,386.1894 -46.812,79.0891 -79.726,166.3775 -96.781,256.6856 -11.903,62.9377 -16.174,127.3161 -12.653,191.2734 1.029,18.9638 2.951,37.862 4.5,56.787 3.444,40.17 6.935,80.339 10.323,120.514 0.581,7.817 0.973,15.647 1.195,23.482 0,0.236 0.03,1.199 0.04,1.715 0.03,1.255 0.05,2.511 0.08,3.766 0,0.237 0.02,1.199 0.02,1.715 0.06,3.999 0.06,7.999 0.02,11.998 0,0.278 -0,1.198 -0.02,1.724 0,0.749 -0.01,0.982 -0.02,1.633 -0.226,13.509 -0.993,27.007 -2.289,40.455 -0.03,0.275 -0.119,1.194 -0.172,1.717 -1.214,12.167 -2.869,24.29 -4.953,36.338 -0.03,0.195 -0.209,1.178 -0.297,1.679 -5.249,29.774 -13.186,59.07 -23.658,87.43 -3.515,9.461 -7.182,18.864 -10.75,28.305 -42.43,111.393 -84.867,222.782 -127.344,334.156 -2.095,5.375 -4.043,10.808 -6.252,16.137 -12.986,30.884 -34.859,57.97 -62.359,77.115 -25.89,18.135 -56.649,29.278 -88.17,31.77 -6.517,0.549 -13.061,0.644 -19.598,0.673 -49.494,0.799 -98.7,14.845 -141.164,40.284 -37.432,22.335 -69.615,53.405 -93.191,90.072 -6.109,9.559 -11.717,19.425 -17.573,29.139 -88.676,148.948 -177.341,297.901 -266.025,446.845 -20.265,33.225 -49.249,61.086 -83.299,79.942 -30.247,16.818 -64.383,26.616 -98.959,28.265 -10.095,0.519 -20.203,0.223 -30.306,0.293 -45.382,0 -90.767,0.03 -136.149,-0.06 -46.762,-0.775 -93.342,-11.012 -136.121,-29.912 -45.109,-19.869 -85.919,-49.398 -118.945,-85.985 -150.6,-164.465 -301.204,-328.936 -451.783,-493.412 -6.665,-7.283 -13.357,-14.547 -19.739,-22.082 -9.767,-11.432 -19.094,-23.237 -27.976,-35.369 -0.156,-0.208 -0.708,-0.972 -1.016,-1.393 -1.45,-1.989 -2.88,-3.993 -4.308,-5.998 -0.147,-0.217 -0.694,-0.981 -0.993,-1.408 -5.496,-7.799 -10.803,-15.729 -15.923,-23.779 -0.149,-0.229 -0.643,-1.014 -0.924,-1.457 -12.123,-19.182 -23.162,-39.05 -33.049,-59.475 -0.114,-0.229 -0.521,-1.08 -0.748,-1.549 -21.671,-45.129 -37.683,-92.971 -47.578,-142.045 -2.99,-14.846 -5.413,-29.807 -7.278,-44.836 -0.02,-0.183 -0.142,-1.189 -0.201,-1.691 -1.788,-14.642 -3.047,-29.86 -3.721,-44.275 -0.116,-2.498 -0.232,-5.508 -0.312,-7.69 -0.128,-3.841 -0.222,-7.682 -0.283,-11.525 0,-0.179 -0.01,-1.196 -0.02,-1.701 -0.225,-17.323 0.348,-35.117 1.612,-52.106 2.961,-38.766 6.06,-77.52 8.929,-116.293 1.723,-24.917 1.671,-49.953 0,-74.873 -3.64,-54.153 -15.132,-107.779 -34.111,-158.633 -14.41,-38.714 -33.204,-75.968 -55.758,-110.656 -30.994,-47.361 -61.923,-94.7631 -92.978,-142.0839 -19.966,-29.3747 -48.246,-53.0765 -80.789,-67.3496 -34.634,-15.2921 -73.823,-20.0628 -111.112,-13.5 -28.122,4.9147 -55.159,16.1099 -78.369,32.7559 -18.282,13.0873 -34.139,29.476 -46.924,47.9531 -54.526,75.7297 -109.053,151.4575 -163.541,227.2145 -50.333,70.875 -94.282,146.276 -131.211,224.969 -20.621,43.957 -39.042,88.947 -55.17,134.744 -19.577,55.587 -35.77,112.364 -48.472,169.912 -3.309,15.044 -6.38,30.139 -9.576,45.207 -44.027,209.659 -88.036,419.322 -132.061,628.981 -5.863,26.52 -20.413,51.038 -40.912,68.861 -19.518,17.09 -44.278,28.174 -70.084,31.039 -7.841,0.906 -15.755,0.992 -23.633,0.643 -50.055,-1.229 -100.374,11.338 -143.955,35.996 -30.711,17.32 -58.121,40.484 -80.24,67.947 -84.617,104.09 -169.191,208.216 -253.838,312.281 -22.954,27.744 -48.293,53.511 -75.619,76.959 -0.209,0.173 -0.914,0.78 -1.313,1.12 -28.873,24.639 -59.961,46.685 -92.785,65.748 -0.173,0.09 -1.039,0.597 -1.48,0.849 -17.654,10.218 -35.811,19.562 -54.369,28.03 0,-0.01 -1.039,0.467 -1.432,0.642 -8.2,3.72 -16.487,7.245 -24.836,10.617 0.03,0 -1.056,0.421 -1.453,0.58 -39.902,15.948 -81.432,27.814 -123.733,35.368 -0.06,0 -1.127,0.197 -1.562,0.271 -25.117,4.423 -50.503,7.314 -75.969,8.689 -0.04,0 -1.144,0.06 -1.582,0.08 -15.067,0.795 -30.159,0.962 -45.244,0.732 -89.132,-0.914 -178.265,-1.864 -267.397,-2.783 -70.176,-0.728 -140.353,-1.454 -210.529,-2.16 -50.261,0.01 -100.491,10.099 -146.871,29.463 -55.38,23.081 -105.19,59.415 -143.996,105.181 -4.536,5.285 -8.794,10.804 -13.254,16.152 -16.608,19.315 -39.813,32.836 -64.816,37.725 -13.623,2.708 -27.721,2.83 -41.426,0.641 -45.895,-6.157 -91.777,-12.413 -137.684,-18.477 -36.96,-4.299 -74.574,-2.814 -111.095,4.287 -32.929,6.396 -64.944,17.433 -94.846,32.629 -28.948,14.701 -55.923,33.288 -79.916,55.166 -7.478,6.822 -14.707,13.909 -22.068,20.856 -98.457,93.625 -196.902,187.263 -295.377,280.869 -11.779,10.785 -28.256,16.187 -44.137,14.535 -11.066,-1.08 -21.771,-5.473 -30.424,-12.453 -13.957,-10.963 -23.393,-27.468 -25.801,-45.049 -2.092,-14.745 0.586,-30.174 7.819,-43.219 3.072,-5.532 6.67,-10.745 9.962,-16.144 90.035,-143.273 180.062,-286.552 270.11,-429.817 18.208,-28.677 44.514,-52.167 75.133,-66.9 30.349,-14.715 64.752,-21.021 98.34,-17.807 24.891,2.324 49.284,9.807 71.193,21.848 7.525,4.141 14.937,8.481 22.422,12.695 51.513,29.271 103.008,58.574 154.549,87.797 38.843,21.203 83.251,32.122 127.502,31.233 42.379,-0.78 84.539,-12.21 121.441,-33.081 18.088,-10.206 34.874,-22.665 50.088,-36.791 71.671,-64.314 143.344,-128.624 214.986,-192.97 38.85,-35.756 69.565,-80.311 89.076,-129.379 15.581,-39.071 24.149,-80.921 25.19,-122.971 1.301,-52.015 -9.037,-104.293 -30.108,-151.871 -4.462,-10.103 -9.427,-19.97 -14.191,-29.93 -25.838,-53.581 -51.766,-107.36 -77.691,-160.992 -7.688,-15.796 -15.903,-31.334 -24.524,-46.638 -44.58,-79.076 -101.059,-151.44 -167.01,-213.821 -53.662,-50.804 -113.535,-95.049 -177.881,-131.387 -23.359,-13.212 -47.325,-25.338 -71.748,-36.455 -146.982,-67.058 -293.956,-134.134 -440.935,-201.199 -164.191,-74.918 -328.377,-149.846 -492.57,-224.758 -40.651,-18.172 -85.214,-27.633 -129.756,-27.189 -50.732,0.436 -101.286,13.533 -145.887,37.703 -38.849,20.966 -73.249,50.193 -100.014,85.314 -23.935,31.347 -41.789,67.306 -52.34,105.307 -3.426,12.359 -6.018,24.926 -9.142,37.361 -2.549,10.389 -5.213,20.75 -7.969,31.086 -0.08,0.324 -0.312,1.16 -0.451,1.68 -5.757,21.451 -11.977,42.778 -18.629,63.969 -0.102,0.309 -0.362,1.143 -0.525,1.654 -0.45,1.422 -0.902,2.846 -1.352,4.268 -0.102,0.333 -0.366,1.144 -0.531,1.66 -0.456,1.42 -0.912,2.84 -1.367,4.26 -0.115,0.342 -0.372,1.141 -0.541,1.658 -6.847,21.126 -14.151,42.103 -21.885,62.92 -0.13,0.333 -0.421,1.124 -0.613,1.633 -23.427,62.793 -50.877,124.085 -82.112,183.382 -0.123,0.241 -0.562,1.061 -0.806,1.524 -18.128,34.32 -37.554,67.952 -58.125,100.865 -247.919,399.073 -495.842,798.145 -743.768,1197.213 -9.52,14.89 -25.16,25.702 -42.449,29.365 -14.751,3.207 -30.569,1.282 -44.082,-5.465 -10.914,-5.381 -20.299,-13.83 -26.709,-24.181 -7.818,-12.451 -11.498,-27.518 -9.934,-42.164 0.696,-7.004 2.647,-13.829 5.299,-20.332 89.963,-239.84 179.92,-479.682 269.908,-719.512 8.452,-22.523 17.303,-44.895 26.491,-67.127 0.109,-0.251 0.463,-1.109 0.666,-1.592 1.151,-2.764 2.45,-5.871 3.507,-8.418 5.513,-13.114 11.146,-26.175 16.895,-39.187 0.111,-0.258 0.488,-1.097 0.701,-1.578 25.606,-57.726 53.695,-114.349 84.145,-169.672 18.409,-33.423 37.674,-66.372 57.781,-98.801 0.2,-0.33 0.634,-1.019 0.924,-1.486 4.444,-7.155 8.932,-14.282 13.457,-21.385 0.215,-0.343 0.645,-1.013 0.943,-1.481 4.532,-7.099 9.11,-14.168 13.719,-21.218 0.212,-0.33 0.659,-1.003 0.961,-1.465 10.608,-16.219 21.502,-32.251 32.453,-48.241 183.669,-269.031 367.362,-538.046 551.045,-807.068 22.977,-33.033 53.93,-60.477 89.513,-79.273 34.08,-18.078 72.314,-28.284 110.879,-29.489 20.436,-0.664 40.935,1.228 60.95,5.377 153.235,29.245 306.471,58.495 459.711,87.713 33.071,6.092 67.553,4.442 99.863,-4.898 30.069,-8.688 58.174,-23.989 81.914,-44.373 26.043,-22.316 46.738,-50.825 59.865,-82.512 11.145,-26.721 16.724,-55.714 16.51,-84.656 -0.07,-10.808 -0.934,-21.611 -2.567,-32.295 -0.01,-0.09 -0.159,-1.137 -0.222,-1.578 -9.778,-69.6072 -19.516,-139.2187 -29.365,-208.8147 -8.698,-57.7697 -23.572,-114.6007 -44.207,-169.2539 -15.6,-41.3062 -34.499,-81.3678 -56.493,-119.6543 -28.521,-49.7202 -62.243,-96.445 -100.375,-139.2383 -266.235,-301.3887 -532.476,-602.7721 -798.707,-904.164 -9.236,-10.5381 -18.293,-21.2313 -27.179,-32.0665 -0.17,-0.2168 -0.757,-0.932 -1.088,-1.3398 -3.466,-4.2377 -6.898,-8.5024 -10.311,-12.7832 -0.184,-0.2265 -0.745,-0.9416 -1.074,-1.3555 -5.91,-7.4475 -11.729,-14.9663 -17.473,-22.5429 -0.169,-0.2313 -0.723,-0.9588 -1.039,-1.3809 -3.301,-4.3678 -6.565,-8.763 -9.81,-13.1719 -0.165,-0.2162 -0.71,-0.9702 -1.02,-1.3926 -34.511,-47.118 -65.719,-96.6504 -93.346,-148.1074 -0.102,-0.1854 -0.563,-1.0589 -0.804,-1.5097 -35.415,-66.1832 -64.876,-135.549 -87.916,-206.9883 -24.636,-76.3102 -41.923,-154.9863 -51.584,-234.5899 -0.05,-0.3687 -0.129,-1.0683 -0.199,-1.6582 -1.065,-8.8468 -2.025,-17.7054 -2.907,-26.5722 -0.03,-0.3168 -0.115,-1.1963 -0.166,-1.7286 -0.471,-4.8212 -0.906,-9.6444 -1.322,-14.4707 -0.03,-0.3348 -0.1,-1.1976 -0.146,-1.7343 -0.855,-10.1412 -1.576,-20.2924 -2.184,-30.4512 -0.02,-0.3697 -0.07,-1.1986 -0.102,-1.7441 -0.746,-12.8376 -1.296,-25.6867 -1.65,-38.5411 -0.01,-0.3703 -0.03,-1.2016 -0.05,-1.748 -0.143,-5.3903 -0.242,-10.7803 -0.32,-16.1719 0,-0.3451 -0.01,-1.2015 -0.02,-1.7422 -0.12,-9.8729 -0.116,-19.7462 0,-29.6191 0,-0.3704 0.02,-1.2017 0.02,-1.7481 0.05,-3.8972 0.119,-7.7929 0.203,-11.6894 0.01,-0.3451 0.03,-1.2017 0.04,-1.7422 0.09,-3.8994 0.203,-7.7969 0.33,-11.6953 0.03,-0.8888 0.07,-2.067 0.106,-3.0664 1.069,-29.5078 3.165,-59.1323 6.312,-88.5508 1.817,-17.219 4.064,-34.3892 6.537,-51.5254 21.626,-153.1271 43.312,-306.2452 64.914,-459.375 6.349,-47.4775 8.536,-95.4923 6.489,-143.3437 -2.374,-55.2251 -10.38,-110.2078 -23.872,-163.8125 -16.724,-66.5905 -41.915,-131.0467 -74.765,-191.336 -27.987,-51.4166 -61.55,-99.7923 -99.904,-144.0176 -22.517,-25.9975 -46.718,-50.5289 -72.317,-73.496 -42.407,-37.975 -84.788,-75.9793 -127.182,-113.9688 -32.989,-29.584 -65.993,-59.15 -98.97,-88.7461 -41.688,-38.1426 -76.638,-83.6317 -102.727,-133.7539 -26.025,-49.9109 -43.282,-104.3755 -50.732,-160.1699 -0.385,-2.8686 -0.739,-5.7408 -1.078,-8.6153 0,-0.025 -0.125,-1.1351 -0.172,-1.5683 -1.745,-15.4913 -2.737,-31.0672 -2.987,-46.6543 0,-0.029 -0,-1.1439 -0.02,-1.5801 -0.1,-7.5296 -0.01,-15.0599 0.24,-22.5859 0,-0.028 0.04,-1.1422 0.06,-1.5781 0.513,-14.4931 1.791,-28.9484 3.523,-43.3438 3.506,-28.94 5.259,-58.265 5.262,-87.4824 0,-38.2167 -2.965,-76.4337 -8.883,-114.1895 -11.346,-72.436 -33.666,-143.1339 -65.896,-208.9863 -22.53,-46.0796 -49.989,-89.7278 -81.567,-130.1406 -179.832,-231.768 -359.649,-463.5477 -539.482,-695.3145 -7.732,-9.9851 -15.564,-19.892 -23.633,-29.6074 -62.467,-75.4957 -135.415,-142.3126 -216.133,-197.8711 -75.488,-51.9966 -157.722,-94.1957 -244.004,-125.1445 -79.228,-28.4588 -161.851,-47.4386 -245.554,-56.4239 -13.491,-1.4414 -27.004,-2.6653 -40.506,-4.0078 -41.901,-4.0505 -83.795,-8.1654 -125.705,-12.123 -8.785,-0.7122 -17.593,-1.1564 -26.405,-1.3574 -0.768,-0.3894 -1.463,-0.995 -2.275,-1.252 -2.037,-0.2142 -4.077,-0.5062 -6.113,-0.6719 z" />
    <path
       d="m 24467.09,5249.7773 c -17.508,-0.4828 -34.665,7.3719 -45.69,21.9219 l -197,260.5 c -10,13.3 -13.499,30.3004 -9.599,46.4004 l 219.398,899.0996 c 4.2,17.4 16.701,31.7008 33.301,38.3008 l 261.801,103.4004 c 10.1,4 18.8,10.7992 25,19.6992 l 199.299,285 c 26.3,37.6 84.3,28.6004 98,-15.0996 l 83.599,-266.6992 c 3.5,-10.9 3.401,-22.7016 -0.1,-33.6016 l -402.5,-1241.8984 c -5.2,-16.1 -17.501,-29.0008 -33.401,-34.8008 -48.9,-18 -156.799,-57.7004 -214.699,-78.9004 -5.7,-2.075 -11.574,-3.1613 -17.41,-3.3223 z"
       style="fill:#00ff00;fill-opacity:1;fill-rule:nonzero;stroke:none;stroke-width:375;stroke-linecap:round;stroke-linejoin:round;stroke-dasharray:none;paint-order:normal"
       id="path7" />
    <path
       d="m 15225.713,16722.676 c -12.163,-0.339 -24.463,0.874 -36.613,3.724 l -251.7,59 c -51.5,12.1 -92.099,51.599 -105.599,102.799 l -100.301,380.5 c -15.5,58.7 7.899,120.901 58.199,154.901 l 237.401,160.3 c 44.1,29.7 68,81.501 62,134.401 l -69.299,614.799 c -7.5,66.8 -60.6,119.401 -127.5,126.201 L 14403,18509.4 c -65.2,6.7 -117.6,57.001 -126.9,121.901 -11,76.6 40.899,147.999 117.099,161.199 l 2163.602,373.801 c 11.8,2 23.799,2.499 35.799,1.599 l 1819.599,-146.599 c 122.9,-9.9 176.401,-160.401 87.401,-245.701 l -948.799,-908.6 c -17.4,-16.6 -38.601,-28.601 -61.801,-34.801 l -1479.4,-397.5 c -24.6,-6.6 -47.001,-19.699 -64.901,-37.799 l -621,-631.599 c -26.25,-26.625 -61.499,-41.608 -97.986,-42.625 z"
       style="fill:#00ff00;fill-opacity:1;fill-rule:nonzero;stroke:none;stroke-width:375;stroke-linecap:round;stroke-linejoin:round;stroke-dasharray:none;paint-order:normal"
       id="path8" />
    <path
       d="m 13250.535,16928.684 c -8.772,-0.541 -17.685,0.04 -26.535,1.816 l -340.5,68.1 c -7.4,1.5 -14.5,3.8 -21.4,6.8 l -272.7,120.299 c -81.5,36 -82.1,151.401 -1,188.201 l 429.5,195 c 39.4,17.9 63.4,58.5 60.2,101.6 l -3.901,51.9 c -2.7,35.3 -23.299,66.799 -54.599,83.299 l -217.1,114.901 c -14.4,7.7 -30.5,11.8 -46.9,12 l -519.799,6.5 c -94.5,1.2 -137.702,118.299 -66.602,180.599 l 177.5,155.602 c 20.6,18 47.401,27.099 74.701,25.299 l 710.6,-46.6 c 17.3,-1.1 34.099,-6.6 48.699,-15.9 l 464.5,-295.799 c 29.7,-19 47.701,-51.7 47.701,-87 v -104.102 c 0,-37.4 20.201,-71.899 52.901,-90.099 l 103,-57.299 c 66.4,-37 71.3,-130.801 9,-174.401 l -44.5,-31.3 c -30.3,-21.2 -69.6,-24.601 -103,-8.901 l -168.701,79.301 c -36.5,17.1 -79.499,11.4 -110.299,-14.5 -34.7,-29.3 -46.201,-77.9 -28.201,-119.6 l 38.701,-89.8 c 16,-37.2 8.699,-80.501 -18.701,-110.401 l -102.901,-112.299 c -18.3,-19.875 -43.348,-31.595 -69.664,-33.216 z"
       style="fill:#00ff00;fill-opacity:1;fill-rule:nonzero;stroke:none;stroke-width:375;stroke-linecap:round;stroke-linejoin:round;stroke-dasharray:none;paint-order:normal"
       id="path9" />
    <path
       d="m 12588.213,1301.8379 c -36.838,2.4875 -73.164,12.6613 -106.514,30.3613 l -184.199,97.7012 c -453.1,240.4 -782.601,662.0988 -906.301,1159.7988 l -236.898,952.7012 c -22.2,89.2 -35.302,180.3988 -39.102,272.2988 L 11031,5827.5 c -10.8,256.2 -154,488.4004 -378.1,612.9004 l -91,50.5996 c -244.7,135.9 -443.099,341.8996 -569.6793,591.5996 l -361.1914,712.2012 c -106.01,209 -100.6695,457.2 14.2305,661.5 L 9905.2891,8918.5 c 69.65,123.8 95.3109,267.6004 72.6914,407.9004 l -30.8106,191.4004 c -19,118 -121.3098,204.4 -240.8398,203.5 l -141.7207,-1.1016 c -84.73,-0.7 -167.4289,25.9008 -235.8789,75.8008 l -168.2403,122.6992 c -92.77,67.7 -165.8096,158.9008 -211.5996,264.2008 l -22.5312,51.799 c -49.39,113.6 -145.6098,200.3 -263.7598,237.5 l -159.0293,50.102 c -99.59,31.4 -189.2503,88.2 -260.0703,165 l -99.1895,107.398 c -47.9,51.9 -121.7502,70.902 -188.7402,48.602 -92.79,-30.9 -194.1894,-22.6 -280.6894,23 l -674.8711,356.099 c -66.65,35.2 -102.4003,109.901 -87.9903,183.901 17.29,88.7 2.0611,180.599 -42.8789,259.099 l -400.7304,699.2 c -48.51,84.7 -80.5106,177.7 -94.3106,274.3 l -25.2695,176.901 c -4.59,32.1 -26.6407,58.999 -57.2207,69.799 l -39.0899,13.8 c -44.69,15.8 -92.9786,-11.8 -102.1386,-58.3 -10.35,-52.5 -6.3803,-106.901 11.5097,-157.401 l 291.1289,-821.898 c 7.91,-22.4 -0.36,-47.201 -20.08,-60.401 -27.5,-18.3 -64.7797,-9.699 -81.4297,18.901 l -214.1504,367.099 c -85.64,146.8 -133.5786,312.501 -139.5586,482.401 l -7.461,212.299 c -4.16,118.3 -47.4496,231.999 -123.0996,323.099 l -115.3496,139 c -51.6,62.2 -81.84,139.3 -86.25,220 l -16.6211,303.602 c -9.02,164.9 44.2214,327.199 149.1914,454.699 l 666.75,809.801 c 65.19,79.1 80.5889,188.099 39.8789,282.299 l -135.0703,312.3 c -46.74,108.2 -69.4097,225.099 -66.4297,342.799 l 4.0997,162.102 c 3.03,119.8 -64.8886,230.098 -173.2286,281.398 l -479.9707,226.901 c -99.37,47 -213.52,51.8 -316.5,13.4 l -778.5,-290.6 -902.8808,-354 c -26.9,-10.5 -57.3792,-5.801 -79.8692,12.299 -30.99,25 -23.6602,74.101 13.2598,88.901 l 361.8008,145.599 c 75.07,30.2 91.1886,129.301 29.5586,181.701 l -84.0801,71.5 c -43.2,36.8 -50.8902,100.5 -17.6602,146.5 l 62.1407,86 c 53.53,74 133.0193,125.2 222.6093,143.2 l 390.7207,78.599 c 38.46,7.7 69.7501,35.601 81.8301,72.901 9.02,27.9 -10.9001,56.801 -40.1601,58.201 l -121.7207,6 c -50.35,2.5 -86.5199,49.499 -76.0899,98.799 10.54,49.8 51.1713,87.699 101.6113,94.599 l 365.5489,50.701 c 68.24,9.4 121.7705,63.3 130.8105,131.6 9.13,68.9 61.97,124 130.5,135.9 l 1066.4903,185.799 c 118.14,20.6 238.7999,22.1 357.4199,4.5 l 727.9804,-107.898 c 62.37,-9.2 125.519,-12.001 188.459,-8.201 l 1215.3907,72.5 c 75.92,4.6 152.079,-3.201 225.539,-22.901 l 431.4317,-115.898 c 31.86,-8.5 54.6086,-36.6 56.3886,-69.5 2.2,-40.7 33.7801,-73.702 74.3301,-77.602 l 462.9902,-45 c 35.78,-3.4 71.8112,-4.299 107.7112,-2.599 l 1151.599,55.9 c 47.5,2.3 90.8,28.2 115.2,69.1 l 33.4,55.9 c 17.6,29.5 7.1,67.6 -23,84 -34.5,18.7 -39,66.6 -8.5,91.4 l 28.5,23.2 c 38.2,31 88.9,42.099 136.6,29.599 l 157.099,-41 c 33.3,-8.6 52.901,-43 43.401,-76 l -21.6,-75.599 c -10.7,-37.7 4.099,-78.1 36.699,-100 l 57.201,-38.2 c 45.9,-30.7 105.399,-32.1 152.799,-3.8 l 241.801,144.8 c 49.8,29.8 112.2,28.399 160.5,-3.701 56.5,-37.4 59.6,-119.099 6.1,-160.699 l -169.901,-132 c -44.1,-34.2 -99.2,-51.201 -155,-47.801 L 11883,17406.5 c -92.5,5.7 -184.8,-14.9 -266.1,-59.5 l -1066.4,-584.9 c -78.7,-43.1 -129.4,-123.9 -134.1,-213.5 -6.2,-119.2 61.8,-229.9 171,-278.1 l 418.6,-184.9 c 69.1,-30.5 102.9,-109.201 77.4,-180.401 l -28,-78 c -22.8,-63.6 -11.4,-134.399 30.1,-187.699 l 33,-42.301 c 25.6,-32.9 76.301,-29.498 97.301,6.602 l 155.299,266.799 c 41.5,71.2 105,127 181,158.9 178.3,74.8 319.2,217.8 391.4,397.1 l 138.199,343.5 c 32.1,79.8 105.301,135.6 190.801,145.5 l 122.1,14.201 c 88.2,10.2 177.299,-7.8 254.599,-51.5 l 49.201,-27.801 c 60.9,-34.4 85.5,-109.601 56.6,-173.301 l -18.9,-41.699 c -24.4,-53.7 -5.799,-117.099 43.701,-149.199 63,-40.9 143.699,-42.501 208.299,-4.201 l 192,114 c 55.9,33.3 128.2,4.2 145.5,-58.5 l 46.3,-167 c 15.2,-54.9 5.8,-113.601 -25.8,-160.901 -25.8,-38.9 -14.499,-91.399 25.201,-116.099 l 228.599,-142.1 c 57.7,-35.9 85.101,-105.4 67.401,-171 -19.9,-74 -71.602,-135.3 -141.102,-167.6 l -312.898,-145.201 c -118.7,-55.1 -249.301,-79.798 -379.901,-71.898 l -170.701,10.299 c -107.3,6.4 -199.099,-76.399 -203.599,-183.799 l -6.299,-151.5 c -3.5,-82.5 48.698,-157.101 127.398,-182.201 l 118.102,-37.6 c 45.2,-14.3 50.2,-76.199 8,-97.699 l -351.102,-178.801 c -51.5,-26.2 -114.398,-12.199 -149.898,33.301 -41.2,52.9 -114.601,67.899 -173.301,35.599 l -1024.9,-565.099 c -131.4,-72.5 -213,-210.701 -213,-360.701 0,-145.9 -68.5,-283.3 -185,-371 l -522.401,-393.299 c -99.5998,-75 -152.3484,-197.001 -138.8084,-320.901 l 37.3399,-341.8 c 4.52,-41.4 -11.351,-82.299 -42.541,-109.799 l -56.1387,-49.602 c -32.53,-28.7 -83.7603,-15.599 -98.5703,25.201 l -104.3614,287.401 c -52.62,144.9 -183.6,246.899 -337,262.299 l -243.8496,24.599 c -184.73,18.7 -371.2096,-8.6 -542.8496,-79.5 l -191.2402,-78.898 c -254.72,-105.1 -444.1795,-325.301 -510.1895,-592.801 l -27.4707,-111.301 c -39.63,-160.6 -18.18,-330.199 60.17,-475.799 72.18,-134.2 219.9502,-209.7 370.9902,-189.5 l 142.0605,19 c 56.28,7.5 104.8394,43.2 128.8594,94.7 l 53.9297,115.599 c 30.99,66.4 96.6309,109.801 169.8809,112.301 l 170.9804,1.801 c 50.13,0.5 86.3391,-47.901 71.7891,-95.801 l -150.5606,-496.699 c -24.57,-81.1 33.0518,-163.801 117.5918,-168.801 l 276.8184,-1.5 c 65.13,-0.3 112.1011,-62.501 94.6211,-125.301 l -86.0996,-309 c -30.73,-110.3 -2.3817,-228.6 74.9883,-313 l 94.8906,-103.4998 c 48.62,-53.1 124.3612,-71.6992 192.0312,-47.1992 l 110.8789,40.0996 c 60.9,22 128.7695,12.4004 181.1895,-25.5996 69.77,-50.7 167.5707,-33.9004 216.4707,37.0996 l 91.4,132.7014 c 61.8,89.6 163.3,143.599 272.2,144.699 l 508.9,5.301 c 36.8,0.4 70.8,-19.201 89,-51.201 28.3,-49.7 77.001,-84.5 133.301,-95.1 l 535.599,-100.5996 c 115.4,-21.7 221.101,-78.8996 302.401,-163.5996 l 188.199,-195.9004 c 77.5,-80.8 174.7,-140.0996 281.9,-172.0996 l 137.1,1.6992 c 204.8,2.5 388.9,-124.7008 458.9,-317.3008 l 42.5,-117.0996 c 104.8,-288.2 333.599,-513.8992 623.299,-614.6992 l 860.701,-299.5996 c 235.4,-81.9 365,-334.1012 294.7,-573.2012 l -492.6,-1675 c -44.6,-151.6 -160.3,-272.1004 -309.9,-322.9004 l -365,-123.7988 C 13630,5350.2004 13544.501,5200.4 13575.801,5050.5 l 32.799,-156.9004 c 12.7,-60.6 4.1,-123.5996 -24.2,-178.5996 l -540.8,-1051 c -56.4,-109.5 -160.601,-186.4 -281.901,-208 l -133.398,-23.5996 c -92.1,-16.4 -168.301,-81.0012 -199.401,-169.2012 l -204.9,-580.5 c -37.4,-106.1 13.499,-222.9992 116.699,-267.6992 116.2,-50.5 158.701,-193.7008 88.801,-299.3008 l -98.199,-148.5 c -52.8,-79.8 -38.801,-186.2984 32.799,-249.8984 l 350.4,-310.7012 c 29.9,-26.5 20.701,-75.2 -16.699,-89 -35.4,-13.05 -72.751,-18.2492 -109.588,-15.7617 z"
       style="fill:#00ff00;fill-opacity:1;fill-rule:nonzero;stroke:none;stroke-width:375;stroke-linecap:round;stroke-linejoin:round;stroke-dasharray:none;paint-order:normal"
       id="path10" />
  </g>
  <rect
     style="fill:#0000ff;fill-opacity:0;stroke:none;stroke-width:50;stroke-linecap:round;stroke-linejoin:round"
     id="rect11"
     width="5599.918"
     height="3081.2944"
     x="-586.10455"
     y="-299.28058" />
</svg>
